# MagicaVoxel @ Ephtracy

# group
o 

# material
mtllib silla.mtl
usemtl palette

# normals
vn -1 0 0
vn 1 0 0
vn 0 0 1
vn 0 0 -1
vn 0 -1 0
vn 0 1 0

# texcoords
vt 0.298828 0.5
vt 0.306641 0.5
vt 0.970703 0.5
vt 0.974609 0.5

# verts
v -2 3.8 1
v -2 3.8 -2.4
v -2 3.9 1
v -2 3.9 -2.4
v -1.9 0 0.9
v -1.9 0 0.6
v -1.9 0.1 -3.2
v -1.9 0.1 -3.4
v -1.9 0.8 -3.1
v -1.9 0.8 -3.2
v -1.9 0.8 -3.3
v -1.9 0.8 -3.4
v -1.9 1.6 -3
v -1.9 1.6 -3.1
v -1.9 1.6 -3.2
v -1.9 1.6 -3.3
v -1.9 2.4 -2.9
v -1.9 2.4 -3
v -1.9 2.4 -3.1
v -1.9 2.4 -3.2
v -1.9 3.2 -2.8
v -1.9 3.2 -2.9
v -1.9 3.2 -3
v -1.9 3.2 -3.1
v -1.9 3.6 0.6
v -1.9 3.6 -2.8
v -1.9 3.8 0.9
v -1.9 3.8 -2.4
v -1.9 3.9 0.8
v -1.9 3.9 -2.3
v -1.9 3.9 -2.4
v -1.9 4 0.8
v -1.9 4 -2.3
v -1.9 4 -2.9
v -1.9 4 -3
v -1.9 4.1 -2.4
v -1.9 4.1 -2.5
v -1.9 4.3 -2.5
v -1.9 4.3 -2.6
v -1.9 4.3 -2.8
v -1.9 4.3 -2.9
v -1.9 4.5 -2.5
v -1.9 4.5 -2.6
v -1.9 7.3 -2.5
v -1.9 7.3 -2.6
v -1.9 7.4 -2.6
v -1.9 7.4 -2.8
v -1.8 3.9 0.9
v -1.8 3.9 0.8
v -1.8 3.9 -2.3
v -1.8 3.9 -2.4
v -1.8 4 0.9
v -1.8 4 0.8
v -1.8 4 -2.3
v -1.8 4 -2.4
v -1.8 4.1 0.8
v -1.8 4.1 -2.3
v -1.8 4.5 -2.4
v -1.8 4.5 -2.5
v -1.8 7.3 -2.4
v -1.8 7.3 -2.5
v -1.8 7.3 -2.6
v -1.8 7.4 -2.5
v -1.8 7.4 -2.6
v -1.8 7.4 -2.8
v -1.8 7.5 -2.6
v -1.8 7.5 -2.8
v -1.7 7.5 -2.6
v -1.7 7.5 -2.8
v -1.7 7.6 -2.6
v -1.7 7.6 -2.8
v -1.6 7.6 -2.6
v -1.6 7.6 -2.8
v -1.6 7.7 -2.6
v -1.6 7.7 -2.8
v 1.6 0 0.9
v 1.6 0 0.6
v 1.6 3.6 0.9
v 1.6 3.6 0.7
v 1.6 3.6 0.6
v 1.7 0 -3.2
v 1.7 0 -3.4
v 1.7 0.8 -3.1
v 1.7 0.8 -3.2
v 1.7 0.8 -3.3
v 1.7 0.8 -3.4
v 1.7 1.6 -3
v 1.7 1.6 -3.1
v 1.7 1.6 -3.2
v 1.7 1.6 -3.3
v 1.7 2.4 -2.9
v 1.7 2.4 -3
v 1.7 2.4 -3.1
v 1.7 2.4 -3.2
v 1.7 3.2 -2.8
v 1.7 3.2 -2.9
v 1.7 3.2 -3
v 1.7 3.2 -3.1
v 1.7 3.6 0.7
v 1.7 3.6 0.6
v 1.7 3.6 -2.8
v 1.7 3.8 0.7
v 1.7 3.8 -2.6
v 1.7 4 -2.9
v 1.7 4 -3
v 1.7 4.2 -2.6
v 1.7 4.2 -2.7
v 1.7 4.3 -2.7
v 1.7 4.3 -2.8
v 1.7 4.3 -2.9
v -1.7 0.1 -3.2
v -1.7 0.1 -3.4
v -1.7 0.8 -3.1
v -1.7 0.8 -3.2
v -1.7 0.8 -3.3
v -1.7 0.8 -3.4
v -1.7 1.6 -3
v -1.7 1.6 -3.1
v -1.7 1.6 -3.2
v -1.7 1.6 -3.3
v -1.7 2.4 -2.9
v -1.7 2.4 -3
v -1.7 2.4 -3.1
v -1.7 2.4 -3.2
v -1.7 3.2 -2.8
v -1.7 3.2 -2.9
v -1.7 3.2 -3
v -1.7 3.2 -3.1
v -1.7 3.6 0.7
v -1.7 3.6 0.6
v -1.7 3.6 -2.8
v -1.7 3.8 0.7
v -1.7 3.8 -2.6
v -1.7 4 -2.9
v -1.7 4 -3
v -1.7 4.2 -2.6
v -1.7 4.2 -2.7
v -1.7 4.3 -2.7
v -1.7 4.3 -2.8
v -1.7 4.3 -2.9
v -1.6 0 0.9
v -1.6 0 0.6
v -1.6 3.6 0.9
v -1.6 3.6 0.7
v -1.6 3.6 0.6
v 1.6 7.6 -2.6
v 1.6 7.6 -2.8
v 1.6 7.7 -2.6
v 1.6 7.7 -2.8
v 1.7 7.5 -2.6
v 1.7 7.5 -2.8
v 1.7 7.6 -2.6
v 1.7 7.6 -2.8
v 1.8 3.9 0.9
v 1.8 3.9 0.8
v 1.8 3.9 -2.3
v 1.8 3.9 -2.4
v 1.8 4 0.9
v 1.8 4 0.8
v 1.8 4 -2.3
v 1.8 4 -2.4
v 1.8 4.1 0.8
v 1.8 4.1 -2.3
v 1.8 4.5 -2.4
v 1.8 4.5 -2.5
v 1.8 7.3 -2.4
v 1.8 7.3 -2.5
v 1.8 7.3 -2.6
v 1.8 7.4 -2.5
v 1.8 7.4 -2.6
v 1.8 7.4 -2.8
v 1.8 7.5 -2.6
v 1.8 7.5 -2.8
v 1.9 0 0.9
v 1.9 0 0.6
v 1.9 0 -3.2
v 1.9 0 -3.4
v 1.9 0.8 -3.1
v 1.9 0.8 -3.2
v 1.9 0.8 -3.3
v 1.9 0.8 -3.4
v 1.9 1.6 -3
v 1.9 1.6 -3.1
v 1.9 1.6 -3.2
v 1.9 1.6 -3.3
v 1.9 2.4 -2.9
v 1.9 2.4 -3
v 1.9 2.4 -3.1
v 1.9 2.4 -3.2
v 1.9 3.2 -2.8
v 1.9 3.2 -2.9
v 1.9 3.2 -3
v 1.9 3.2 -3.1
v 1.9 3.6 0.6
v 1.9 3.6 -2.8
v 1.9 3.8 0.9
v 1.9 3.8 -2.4
v 1.9 3.9 0.8
v 1.9 3.9 -2.3
v 1.9 3.9 -2.4
v 1.9 4 0.8
v 1.9 4 -2.3
v 1.9 4 -2.9
v 1.9 4 -3
v 1.9 4.1 -2.4
v 1.9 4.1 -2.5
v 1.9 4.3 -2.5
v 1.9 4.3 -2.6
v 1.9 4.3 -2.8
v 1.9 4.3 -2.9
v 1.9 4.5 -2.5
v 1.9 4.5 -2.6
v 1.9 7.3 -2.5
v 1.9 7.3 -2.6
v 1.9 7.4 -2.6
v 1.9 7.4 -2.8
v 2 3.8 1
v 2 3.8 -2.4
v 2 3.9 1
v 2 3.9 -2.4
v -2 3.8 1
v -2 3.9 1
v 2 3.8 1
v 2 3.9 1
v -1.9 0 0.9
v -1.9 3.8 0.9
v -1.8 3.9 0.9
v -1.8 4 0.9
v -1.6 0 0.9
v -1.6 3.6 0.9
v 1.6 0 0.9
v 1.6 3.6 0.9
v 1.8 3.9 0.9
v 1.8 4 0.9
v 1.9 0 0.9
v 1.9 3.8 0.9
v -1.9 3.9 0.8
v -1.9 4 0.8
v -1.8 3.9 0.8
v -1.8 4 0.8
v -1.8 4.1 0.8
v 1.8 3.9 0.8
v 1.8 4 0.8
v 1.8 4.1 0.8
v 1.9 3.9 0.8
v 1.9 4 0.8
v -1.9 3.9 -2.4
v -1.9 4.1 -2.4
v -1.8 3.9 -2.4
v -1.8 4 -2.4
v -1.8 4.5 -2.4
v -1.8 7.3 -2.4
v 1.8 3.9 -2.4
v 1.8 4 -2.4
v 1.8 4.5 -2.4
v 1.8 7.3 -2.4
v 1.9 3.9 -2.4
v 1.9 4.1 -2.4
v -1.9 4.1 -2.5
v -1.9 4.3 -2.5
v -1.9 4.5 -2.5
v -1.9 7.3 -2.5
v -1.8 4.5 -2.5
v -1.8 7.3 -2.5
v -1.8 7.4 -2.5
v 1.8 4.5 -2.5
v 1.8 7.3 -2.5
v 1.8 7.4 -2.5
v 1.9 4.1 -2.5
v 1.9 4.3 -2.5
v 1.9 4.5 -2.5
v 1.9 7.3 -2.5
v -1.9 4.3 -2.6
v -1.9 4.5 -2.6
v -1.9 7.3 -2.6
v -1.9 7.4 -2.6
v -1.8 7.3 -2.6
v -1.8 7.4 -2.6
v -1.8 7.5 -2.6
v -1.7 7.5 -2.6
v -1.7 7.6 -2.6
v -1.6 7.6 -2.6
v -1.6 7.7 -2.6
v 1.6 7.6 -2.6
v 1.6 7.7 -2.6
v 1.7 7.5 -2.6
v 1.7 7.6 -2.6
v 1.8 7.3 -2.6
v 1.8 7.4 -2.6
v 1.8 7.5 -2.6
v 1.9 4.3 -2.6
v 1.9 4.5 -2.6
v 1.9 7.3 -2.6
v 1.9 7.4 -2.6
v -1.9 3.2 -2.8
v -1.9 3.6 -2.8
v -1.7 3.2 -2.8
v -1.7 3.6 -2.8
v 1.7 3.2 -2.8
v 1.7 3.6 -2.8
v 1.9 3.2 -2.8
v 1.9 3.6 -2.8
v -1.9 2.4 -2.9
v -1.9 3.2 -2.9
v -1.7 2.4 -2.9
v -1.7 3.2 -2.9
v 1.7 2.4 -2.9
v 1.7 3.2 -2.9
v 1.9 2.4 -2.9
v 1.9 3.2 -2.9
v -1.9 1.6 -3
v -1.9 2.4 -3
v -1.7 1.6 -3
v -1.7 2.4 -3
v 1.7 1.6 -3
v 1.7 2.4 -3
v 1.9 1.6 -3
v 1.9 2.4 -3
v -1.9 0.8 -3.1
v -1.9 1.6 -3.1
v -1.7 0.8 -3.1
v -1.7 1.6 -3.1
v 1.7 0.8 -3.1
v 1.7 1.6 -3.1
v 1.9 0.8 -3.1
v 1.9 1.6 -3.1
v -1.9 0.1 -3.2
v -1.9 0.8 -3.2
v -1.7 0.1 -3.2
v -1.7 0.8 -3.2
v 1.7 0 -3.2
v 1.7 0.8 -3.2
v 1.9 0 -3.2
v 1.9 0.8 -3.2
v -1.7 3.6 0.7
v -1.7 3.8 0.7
v -1.6 3.6 0.7
v 1.6 3.6 0.7
v 1.7 3.6 0.7
v 1.7 3.8 0.7
v -1.9 0 0.6
v -1.9 3.6 0.6
v -1.7 3.6 0.6
v -1.6 0 0.6
v -1.6 3.6 0.6
v 1.6 0 0.6
v 1.6 3.6 0.6
v 1.7 3.6 0.6
v 1.9 0 0.6
v 1.9 3.6 0.6
v -1.9 3.9 -2.3
v -1.9 4 -2.3
v -1.8 3.9 -2.3
v -1.8 4 -2.3
v -1.8 4.1 -2.3
v 1.8 3.9 -2.3
v 1.8 4 -2.3
v 1.8 4.1 -2.3
v 1.9 3.9 -2.3
v 1.9 4 -2.3
v -2 3.8 -2.4
v -2 3.9 -2.4
v -1.9 3.8 -2.4
v -1.9 3.9 -2.4
v 1.9 3.8 -2.4
v 1.9 3.9 -2.4
v 2 3.8 -2.4
v 2 3.9 -2.4
v -1.7 3.8 -2.6
v -1.7 4.2 -2.6
v 1.7 3.8 -2.6
v 1.7 4.2 -2.6
v -1.7 4.2 -2.7
v -1.7 4.3 -2.7
v 1.7 4.2 -2.7
v 1.7 4.3 -2.7
v -1.9 4.3 -2.8
v -1.9 7.4 -2.8
v -1.8 7.4 -2.8
v -1.8 7.5 -2.8
v -1.7 4.3 -2.8
v -1.7 7.5 -2.8
v -1.7 7.6 -2.8
v -1.6 7.6 -2.8
v -1.6 7.7 -2.8
v 1.6 7.6 -2.8
v 1.6 7.7 -2.8
v 1.7 4.3 -2.8
v 1.7 7.5 -2.8
v 1.7 7.6 -2.8
v 1.8 7.4 -2.8
v 1.8 7.5 -2.8
v 1.9 4.3 -2.8
v 1.9 7.4 -2.8
v -1.9 4 -2.9
v -1.9 4.3 -2.9
v -1.7 4 -2.9
v -1.7 4.3 -2.9
v 1.7 4 -2.9
v 1.7 4.3 -2.9
v 1.9 4 -2.9
v 1.9 4.3 -2.9
v -1.9 3.2 -3
v -1.9 4 -3
v -1.7 3.2 -3
v -1.7 4 -3
v 1.7 3.2 -3
v 1.7 4 -3
v 1.9 3.2 -3
v 1.9 4 -3
v -1.9 2.4 -3.1
v -1.9 3.2 -3.1
v -1.7 2.4 -3.1
v -1.7 3.2 -3.1
v 1.7 2.4 -3.1
v 1.7 3.2 -3.1
v 1.9 2.4 -3.1
v 1.9 3.2 -3.1
v -1.9 1.6 -3.2
v -1.9 2.4 -3.2
v -1.7 1.6 -3.2
v -1.7 2.4 -3.2
v 1.7 1.6 -3.2
v 1.7 2.4 -3.2
v 1.9 1.6 -3.2
v 1.9 2.4 -3.2
v -1.9 0.8 -3.3
v -1.9 1.6 -3.3
v -1.7 0.8 -3.3
v -1.7 1.6 -3.3
v 1.7 0.8 -3.3
v 1.7 1.6 -3.3
v 1.9 0.8 -3.3
v 1.9 1.6 -3.3
v -1.9 0.1 -3.4
v -1.9 0.8 -3.4
v -1.7 0.1 -3.4
v -1.7 0.8 -3.4
v 1.7 0 -3.4
v 1.7 0.8 -3.4
v 1.9 0 -3.4
v 1.9 0.8 -3.4
v -1.9 0 0.9
v -1.6 0 0.9
v 1.6 0 0.9
v 1.9 0 0.9
v -1.8 0 0.8
v -1.7 0 0.8
v -1.8 0 0.7
v -1.7 0 0.7
v -1.9 0 0.6
v -1.6 0 0.6
v 1.6 0 0.6
v 1.9 0 0.6
v 1.7 0 -3.2
v 1.9 0 -3.2
v 1.7 0 -3.4
v 1.9 0 -3.4
v -1.9 0.1 -3.2
v -1.7 0.1 -3.2
v -1.9 0.1 -3.4
v -1.7 0.1 -3.4
v -1.9 0.8 -3.1
v -1.7 0.8 -3.1
v 1.7 0.8 -3.1
v 1.9 0.8 -3.1
v -1.9 0.8 -3.2
v -1.7 0.8 -3.2
v 1.7 0.8 -3.2
v 1.9 0.8 -3.2
v -1.9 1.6 -3
v -1.7 1.6 -3
v 1.7 1.6 -3
v 1.9 1.6 -3
v -1.9 1.6 -3.1
v -1.7 1.6 -3.1
v 1.7 1.6 -3.1
v 1.9 1.6 -3.1
v -1.9 2.4 -2.9
v -1.7 2.4 -2.9
v 1.7 2.4 -2.9
v 1.9 2.4 -2.9
v -1.9 2.4 -3
v -1.7 2.4 -3
v 1.7 2.4 -3
v 1.9 2.4 -3
v -1.9 3.2 -2.8
v -1.7 3.2 -2.8
v 1.7 3.2 -2.8
v 1.9 3.2 -2.8
v -1.9 3.2 -2.9
v -1.7 3.2 -2.9
v 1.7 3.2 -2.9
v 1.9 3.2 -2.9
v -1.6 3.6 0.9
v 1.6 3.6 0.9
v -1.6 3.6 0.7
v 1.6 3.6 0.7
v -1.9 3.6 0.6
v -1.7 3.6 0.6
v 1.7 3.6 0.6
v 1.9 3.6 0.6
v -1.9 3.6 -2.8
v -1.7 3.6 -2.8
v 1.7 3.6 -2.8
v 1.9 3.6 -2.8
v -2 3.8 1
v 2 3.8 1
v -1.9 3.8 0.9
v 1.9 3.8 0.9
v -1.7 3.8 0.7
v 1.7 3.8 0.7
v -2 3.8 -2.4
v -1.9 3.8 -2.4
v 1.9 3.8 -2.4
v 2 3.8 -2.4
v -1.7 3.8 -2.6
v 1.7 3.8 -2.6
v -1.7 4.2 -2.6
v 1.7 4.2 -2.6
v -1.7 4.2 -2.7
v 1.7 4.2 -2.7
v -1.7 4.3 -2.7
v 1.7 4.3 -2.7
v -1.7 4.3 -2.8
v 1.7 4.3 -2.8
v -1.8 4.5 -2.4
v 1.8 4.5 -2.4
v -1.9 4.5 -2.5
v -1.8 4.5 -2.5
v 1.8 4.5 -2.5
v 1.9 4.5 -2.5
v -1.9 4.5 -2.6
v 1.9 4.5 -2.6
v -1.9 0.8 -3.3
v -1.7 0.8 -3.3
v 1.7 0.8 -3.3
v 1.9 0.8 -3.3
v -1.9 0.8 -3.4
v -1.7 0.8 -3.4
v 1.7 0.8 -3.4
v 1.9 0.8 -3.4
v -1.9 1.6 -3.2
v -1.7 1.6 -3.2
v 1.7 1.6 -3.2
v 1.9 1.6 -3.2
v -1.9 1.6 -3.3
v -1.7 1.6 -3.3
v 1.7 1.6 -3.3
v 1.9 1.6 -3.3
v -1.9 2.4 -3.1
v -1.7 2.4 -3.1
v 1.7 2.4 -3.1
v 1.9 2.4 -3.1
v -1.9 2.4 -3.2
v -1.7 2.4 -3.2
v 1.7 2.4 -3.2
v 1.9 2.4 -3.2
v -1.9 3.2 -3
v -1.7 3.2 -3
v 1.7 3.2 -3
v 1.9 3.2 -3
v -1.9 3.2 -3.1
v -1.7 3.2 -3.1
v 1.7 3.2 -3.1
v 1.9 3.2 -3.1
v -1.7 3.6 0.7
v -1.6 3.6 0.7
v 1.6 3.6 0.7
v 1.7 3.6 0.7
v -1.7 3.6 0.6
v -1.6 3.6 0.6
v 1.6 3.6 0.6
v 1.7 3.6 0.6
v -2 3.9 1
v 2 3.9 1
v -1.9 3.9 0.9
v -1.8 3.9 0.9
v 1.8 3.9 0.9
v 1.9 3.9 0.9
v -1.9 3.9 0.8
v -1.8 3.9 0.8
v 1.8 3.9 0.8
v 1.9 3.9 0.8
v -1.9 3.9 -2.3
v -1.8 3.9 -2.3
v 1.8 3.9 -2.3
v 1.9 3.9 -2.3
v -2 3.9 -2.4
v -1.9 3.9 -2.4
v -1.8 3.9 -2.4
v 1.8 3.9 -2.4
v 1.9 3.9 -2.4
v 2 3.9 -2.4
v -1.8 4 0.9
v 1.8 4 0.9
v -1.9 4 0.8
v -1.8 4 0.8
v 1.8 4 0.8
v 1.9 4 0.8
v -1.9 4 -2.3
v -1.8 4 -2.3
v 1.8 4 -2.3
v 1.9 4 -2.3
v -1.8 4 -2.4
v 1.8 4 -2.4
v -1.9 4 -2.9
v -1.7 4 -2.9
v 1.7 4 -2.9
v 1.9 4 -2.9
v -1.9 4 -3
v -1.7 4 -3
v 1.7 4 -3
v 1.9 4 -3
v -1.8 4.1 0.8
v 1.8 4.1 0.8
v -1.8 4.1 -2.3
v 1.8 4.1 -2.3
v -1.9 4.1 -2.4
v 1.9 4.1 -2.4
v -1.9 4.1 -2.5
v 1.9 4.1 -2.5
v -1.9 4.3 -2.5
v 1.9 4.3 -2.5
v -1.9 4.3 -2.6
v 1.9 4.3 -2.6
v -1.9 4.3 -2.8
v -1.7 4.3 -2.8
v 1.7 4.3 -2.8
v 1.9 4.3 -2.8
v -1.9 4.3 -2.9
v -1.7 4.3 -2.9
v 1.7 4.3 -2.9
v 1.9 4.3 -2.9
v -1.8 7.3 -2.4
v 1.8 7.3 -2.4
v -1.9 7.3 -2.5
v -1.8 7.3 -2.5
v 1.8 7.3 -2.5
v 1.9 7.3 -2.5
v -1.9 7.3 -2.6
v -1.8 7.3 -2.6
v 1.8 7.3 -2.6
v 1.9 7.3 -2.6
v -1.8 7.4 -2.5
v 1.8 7.4 -2.5
v -1.9 7.4 -2.6
v -1.8 7.4 -2.6
v 1.8 7.4 -2.6
v 1.9 7.4 -2.6
v -1.9 7.4 -2.8
v -1.8 7.4 -2.8
v 1.8 7.4 -2.8
v 1.9 7.4 -2.8
v -1.8 7.5 -2.6
v -1.7 7.5 -2.6
v 1.7 7.5 -2.6
v 1.8 7.5 -2.6
v -1.8 7.5 -2.8
v -1.7 7.5 -2.8
v 1.7 7.5 -2.8
v 1.8 7.5 -2.8
v -1.7 7.6 -2.6
v -1.6 7.6 -2.6
v 1.6 7.6 -2.6
v 1.7 7.6 -2.6
v -1.7 7.6 -2.8
v -1.6 7.6 -2.8
v 1.6 7.6 -2.8
v 1.7 7.6 -2.8
v -1.6 7.7 -2.6
v 1.6 7.7 -2.6
v -1.6 7.7 -2.8
v 1.6 7.7 -2.8

# faces
f 3/4/1 2/4/1 1/4/1
f 4/4/1 2/4/1 3/4/1
f 10/4/1 8/4/1 7/4/1
f 11/4/1 8/4/1 10/4/1
f 12/4/1 8/4/1 11/4/1
f 14/4/1 10/4/1 9/4/1
f 14/4/1 11/4/1 10/4/1
f 15/4/1 11/4/1 14/4/1
f 16/4/1 11/4/1 15/4/1
f 18/4/1 14/4/1 13/4/1
f 18/4/1 15/4/1 14/4/1
f 19/4/1 15/4/1 18/4/1
f 20/4/1 15/4/1 19/4/1
f 22/4/1 18/4/1 17/4/1
f 22/4/1 19/4/1 18/4/1
f 23/4/1 19/4/1 22/4/1
f 24/4/1 19/4/1 23/4/1
f 25/4/1 6/4/1 5/4/1
f 26/4/1 22/4/1 21/4/1
f 26/4/1 23/4/1 22/4/1
f 27/4/1 25/4/1 5/4/1
f 27/4/1 26/4/1 25/4/1
f 28/4/1 26/4/1 27/4/1
f 31/4/1 26/4/1 28/4/1
f 32/3/1 30/3/1 29/3/1
f 33/3/1 30/3/1 32/3/1
f 34/4/1 23/4/1 26/4/1
f 34/4/1 26/4/1 31/4/1
f 35/4/1 23/4/1 34/4/1
f 36/4/1 34/4/1 31/4/1
f 37/4/1 34/4/1 36/4/1
f 38/4/1 34/4/1 37/4/1
f 39/4/1 34/4/1 38/4/1
f 40/4/1 34/4/1 39/4/1
f 41/4/1 34/4/1 40/4/1
f 43/4/1 40/4/1 39/4/1
f 44/3/1 43/3/1 42/3/1
f 45/4/1 40/4/1 43/4/1
f 45/3/1 43/3/1 44/3/1
f 46/4/1 40/4/1 45/4/1
f 47/4/1 40/4/1 46/4/1
f 52/3/1 49/3/1 48/3/1
f 53/3/1 49/3/1 52/3/1
f 54/3/1 51/3/1 50/3/1
f 55/3/1 51/3/1 54/3/1
f 56/3/1 54/3/1 53/3/1
f 57/3/1 54/3/1 56/3/1
f 60/3/1 59/3/1 58/3/1
f 61/3/1 59/3/1 60/3/1
f 63/3/1 62/3/1 61/3/1
f 64/3/1 62/3/1 63/3/1
f 66/4/1 65/4/1 64/4/1
f 67/4/1 65/4/1 66/4/1
f 70/4/1 69/4/1 68/4/1
f 71/4/1 69/4/1 70/4/1
f 74/4/1 73/4/1 72/4/1
f 75/4/1 73/4/1 74/4/1
f 78/4/1 77/4/1 76/4/1
f 79/4/1 77/4/1 78/4/1
f 80/4/1 77/4/1 79/4/1
f 84/4/1 82/4/1 81/4/1
f 85/4/1 82/4/1 84/4/1
f 86/4/1 82/4/1 85/4/1
f 88/4/1 84/4/1 83/4/1
f 88/4/1 85/4/1 84/4/1
f 89/4/1 85/4/1 88/4/1
f 90/4/1 85/4/1 89/4/1
f 92/4/1 88/4/1 87/4/1
f 92/4/1 89/4/1 88/4/1
f 93/4/1 89/4/1 92/4/1
f 94/4/1 89/4/1 93/4/1
f 96/4/1 92/4/1 91/4/1
f 96/4/1 93/4/1 92/4/1
f 97/4/1 93/4/1 96/4/1
f 98/4/1 93/4/1 97/4/1
f 101/4/1 96/4/1 95/4/1
f 101/4/1 97/4/1 96/4/1
f 102/4/1 100/4/1 99/4/1
f 102/4/1 101/4/1 100/4/1
f 103/4/1 101/4/1 102/4/1
f 104/4/1 97/4/1 101/4/1
f 104/4/1 101/4/1 103/4/1
f 105/4/1 97/4/1 104/4/1
f 106/4/1 104/4/1 103/4/1
f 107/4/1 104/4/1 106/4/1
f 108/4/1 104/4/1 107/4/1
f 109/4/1 104/4/1 108/4/1
f 110/4/1 104/4/1 109/4/1
f 111/4/2 112/4/2 114/4/2
f 114/4/2 112/4/2 115/4/2
f 115/4/2 112/4/2 116/4/2
f 113/4/2 114/4/2 118/4/2
f 114/4/2 115/4/2 118/4/2
f 118/4/2 115/4/2 119/4/2
f 119/4/2 115/4/2 120/4/2
f 117/4/2 118/4/2 122/4/2
f 118/4/2 119/4/2 122/4/2
f 122/4/2 119/4/2 123/4/2
f 123/4/2 119/4/2 124/4/2
f 121/4/2 122/4/2 126/4/2
f 122/4/2 123/4/2 126/4/2
f 126/4/2 123/4/2 127/4/2
f 127/4/2 123/4/2 128/4/2
f 125/4/2 126/4/2 131/4/2
f 126/4/2 127/4/2 131/4/2
f 129/4/2 130/4/2 132/4/2
f 130/4/2 131/4/2 132/4/2
f 132/4/2 131/4/2 133/4/2
f 131/4/2 127/4/2 134/4/2
f 133/4/2 131/4/2 134/4/2
f 134/4/2 127/4/2 135/4/2
f 133/4/2 134/4/2 136/4/2
f 136/4/2 134/4/2 137/4/2
f 137/4/2 134/4/2 138/4/2
f 138/4/2 134/4/2 139/4/2
f 139/4/2 134/4/2 140/4/2
f 141/4/2 142/4/2 143/4/2
f 143/4/2 142/4/2 144/4/2
f 144/4/2 142/4/2 145/4/2
f 146/4/2 147/4/2 148/4/2
f 148/4/2 147/4/2 149/4/2
f 150/4/2 151/4/2 152/4/2
f 152/4/2 151/4/2 153/4/2
f 154/3/2 155/3/2 158/3/2
f 158/3/2 155/3/2 159/3/2
f 156/3/2 157/3/2 160/3/2
f 160/3/2 157/3/2 161/3/2
f 159/3/2 160/3/2 162/3/2
f 162/3/2 160/3/2 163/3/2
f 164/3/2 165/3/2 166/3/2
f 166/3/2 165/3/2 167/3/2
f 167/3/2 168/3/2 169/3/2
f 169/3/2 168/3/2 170/3/2
f 170/4/2 171/4/2 172/4/2
f 172/4/2 171/4/2 173/4/2
f 176/4/2 177/4/2 179/4/2
f 179/4/2 177/4/2 180/4/2
f 180/4/2 177/4/2 181/4/2
f 178/4/2 179/4/2 183/4/2
f 179/4/2 180/4/2 183/4/2
f 183/4/2 180/4/2 184/4/2
f 184/4/2 180/4/2 185/4/2
f 182/4/2 183/4/2 187/4/2
f 183/4/2 184/4/2 187/4/2
f 187/4/2 184/4/2 188/4/2
f 188/4/2 184/4/2 189/4/2
f 186/4/2 187/4/2 191/4/2
f 187/4/2 188/4/2 191/4/2
f 191/4/2 188/4/2 192/4/2
f 192/4/2 188/4/2 193/4/2
f 174/4/2 175/4/2 194/4/2
f 190/4/2 191/4/2 195/4/2
f 191/4/2 192/4/2 195/4/2
f 174/4/2 194/4/2 196/4/2
f 194/4/2 195/4/2 196/4/2
f 196/4/2 195/4/2 197/4/2
f 197/4/2 195/4/2 200/4/2
f 198/3/2 199/3/2 201/3/2
f 201/3/2 199/3/2 202/3/2
f 195/4/2 192/4/2 203/4/2
f 200/4/2 195/4/2 203/4/2
f 203/4/2 192/4/2 204/4/2
f 200/4/2 203/4/2 205/4/2
f 205/4/2 203/4/2 206/4/2
f 206/4/2 203/4/2 207/4/2
f 207/4/2 203/4/2 208/4/2
f 208/4/2 203/4/2 209/4/2
f 209/4/2 203/4/2 210/4/2
f 208/4/2 209/4/2 212/4/2
f 211/3/2 212/3/2 213/3/2
f 212/4/2 209/4/2 214/4/2
f 213/3/2 212/3/2 214/3/2
f 214/4/2 209/4/2 215/4/2
f 215/4/2 209/4/2 216/4/2
f 217/4/2 218/4/2 219/4/2
f 219/4/2 218/4/2 220/4/2
f 223/4/3 222/4/3 221/4/3
f 224/4/3 222/4/3 223/4/3
f 229/4/3 226/4/3 225/4/3
f 230/4/3 226/4/3 229/4/3
f 232/4/3 226/4/3 230/4/3
f 233/3/3 228/3/3 227/3/3
f 234/3/3 228/3/3 233/3/3
f 235/4/3 232/4/3 231/4/3
f 236/4/3 226/4/3 232/4/3
f 236/4/3 232/4/3 235/4/3
f 239/3/3 238/3/3 237/3/3
f 240/3/3 238/3/3 239/3/3
f 243/3/3 241/3/3 240/3/3
f 244/3/3 241/3/3 243/3/3
f 245/3/3 243/3/3 242/3/3
f 246/3/3 243/3/3 245/3/3
f 249/4/3 248/4/3 247/4/3
f 250/4/3 248/4/3 249/4/3
f 254/4/3 248/4/3 250/4/3
f 255/3/3 252/3/3 251/3/3
f 256/3/3 252/3/3 255/3/3
f 257/4/3 254/4/3 253/4/3
f 258/4/3 248/4/3 254/4/3
f 258/4/3 254/4/3 257/4/3
f 263/3/3 262/3/3 261/3/3
f 264/3/3 262/3/3 263/3/3
f 267/3/3 265/3/3 264/3/3
f 268/3/3 265/3/3 267/3/3
f 269/4/3 260/4/3 259/4/3
f 270/4/3 260/4/3 269/4/3
f 271/3/3 267/3/3 266/3/3
f 272/3/3 267/3/3 271/3/3
f 277/4/3 276/4/3 275/4/3
f 278/4/3 276/4/3 277/4/3
f 280/4/3 279/4/3 278/4/3
f 282/4/3 281/4/3 280/4/3
f 284/4/3 282/4/3 280/4/3
f 284/4/3 283/4/3 282/4/3
f 285/4/3 283/4/3 284/4/3
f 286/4/3 280/4/3 278/4/3
f 286/4/3 284/4/3 280/4/3
f 287/4/3 284/4/3 286/4/3
f 289/4/3 286/4/3 278/4/3
f 290/4/3 286/4/3 289/4/3
f 291/4/3 274/4/3 273/4/3
f 292/4/3 274/4/3 291/4/3
f 293/4/3 289/4/3 288/4/3
f 294/4/3 289/4/3 293/4/3
f 297/4/3 296/4/3 295/4/3
f 298/4/3 296/4/3 297/4/3
f 301/4/3 300/4/3 299/4/3
f 302/4/3 300/4/3 301/4/3
f 305/4/3 304/4/3 303/4/3
f 306/4/3 304/4/3 305/4/3
f 309/4/3 308/4/3 307/4/3
f 310/4/3 308/4/3 309/4/3
f 313/4/3 312/4/3 311/4/3
f 314/4/3 312/4/3 313/4/3
f 317/4/3 316/4/3 315/4/3
f 318/4/3 316/4/3 317/4/3
f 321/4/3 320/4/3 319/4/3
f 322/4/3 320/4/3 321/4/3
f 325/4/3 324/4/3 323/4/3
f 326/4/3 324/4/3 325/4/3
f 329/4/3 328/4/3 327/4/3
f 330/4/3 328/4/3 329/4/3
f 333/4/3 332/4/3 331/4/3
f 334/4/3 332/4/3 333/4/3
f 335/4/4 336/4/4 337/4/4
f 337/4/4 336/4/4 338/4/4
f 338/4/4 336/4/4 339/4/4
f 339/4/4 336/4/4 340/4/4
f 341/4/4 342/4/4 343/4/4
f 341/4/4 343/4/4 344/4/4
f 344/4/4 343/4/4 345/4/4
f 346/4/4 347/4/4 348/4/4
f 346/4/4 348/4/4 349/4/4
f 349/4/4 348/4/4 350/4/4
f 351/3/4 352/3/4 353/3/4
f 353/3/4 352/3/4 354/3/4
f 354/3/4 355/3/4 357/3/4
f 357/3/4 355/3/4 358/3/4
f 356/3/4 357/3/4 359/3/4
f 359/3/4 357/3/4 360/3/4
f 361/4/4 362/4/4 363/4/4
f 363/4/4 362/4/4 364/4/4
f 365/4/4 366/4/4 367/4/4
f 367/4/4 366/4/4 368/4/4
f 369/4/4 370/4/4 371/4/4
f 371/4/4 370/4/4 372/4/4
f 373/4/4 374/4/4 375/4/4
f 375/4/4 374/4/4 376/4/4
f 377/4/4 378/4/4 379/4/4
f 377/4/4 379/4/4 381/4/4
f 379/4/4 380/4/4 381/4/4
f 381/4/4 380/4/4 382/4/4
f 381/4/4 382/4/4 384/4/4
f 382/4/4 383/4/4 384/4/4
f 381/4/4 384/4/4 386/4/4
f 384/4/4 385/4/4 386/4/4
f 386/4/4 385/4/4 387/4/4
f 381/4/4 386/4/4 388/4/4
f 388/4/4 386/4/4 389/4/4
f 389/4/4 386/4/4 390/4/4
f 388/4/4 389/4/4 391/4/4
f 391/4/4 389/4/4 392/4/4
f 388/4/4 391/4/4 393/4/4
f 393/4/4 391/4/4 394/4/4
f 395/4/4 396/4/4 397/4/4
f 397/4/4 396/4/4 398/4/4
f 399/4/4 400/4/4 401/4/4
f 401/4/4 400/4/4 402/4/4
f 403/4/4 404/4/4 405/4/4
f 405/4/4 404/4/4 406/4/4
f 407/4/4 408/4/4 409/4/4
f 409/4/4 408/4/4 410/4/4
f 411/4/4 412/4/4 413/4/4
f 413/4/4 412/4/4 414/4/4
f 415/4/4 416/4/4 417/4/4
f 417/4/4 416/4/4 418/4/4
f 419/4/4 420/4/4 421/4/4
f 421/4/4 420/4/4 422/4/4
f 423/4/4 424/4/4 425/4/4
f 425/4/4 424/4/4 426/4/4
f 427/4/4 428/4/4 429/4/4
f 429/4/4 428/4/4 430/4/4
f 431/4/4 432/4/4 433/4/4
f 433/4/4 432/4/4 434/4/4
f 435/4/4 436/4/4 437/4/4
f 437/4/4 436/4/4 438/4/4
f 439/4/4 440/4/4 441/4/4
f 441/4/4 440/4/4 442/4/4
f 447/4/5 444/4/5 443/4/5
f 448/4/5 444/4/5 447/4/5
f 449/4/5 447/4/5 443/4/5
f 449/1/5 448/1/5 447/1/5
f 450/4/5 444/4/5 448/4/5
f 450/1/5 448/1/5 449/1/5
f 451/4/5 449/4/5 443/4/5
f 451/4/5 450/4/5 449/4/5
f 452/4/5 444/4/5 450/4/5
f 452/4/5 450/4/5 451/4/5
f 453/4/5 446/4/5 445/4/5
f 454/4/5 446/4/5 453/4/5
f 457/4/5 456/4/5 455/4/5
f 458/4/5 456/4/5 457/4/5
f 461/4/5 460/4/5 459/4/5
f 462/4/5 460/4/5 461/4/5
f 467/4/5 464/4/5 463/4/5
f 468/4/5 464/4/5 467/4/5
f 469/4/5 466/4/5 465/4/5
f 470/4/5 466/4/5 469/4/5
f 475/4/5 472/4/5 471/4/5
f 476/4/5 472/4/5 475/4/5
f 477/4/5 474/4/5 473/4/5
f 478/4/5 474/4/5 477/4/5
f 483/4/5 480/4/5 479/4/5
f 484/4/5 480/4/5 483/4/5
f 485/4/5 482/4/5 481/4/5
f 486/4/5 482/4/5 485/4/5
f 491/4/5 488/4/5 487/4/5
f 492/4/5 488/4/5 491/4/5
f 493/4/5 490/4/5 489/4/5
f 494/4/5 490/4/5 493/4/5
f 497/4/5 496/4/5 495/4/5
f 498/4/5 496/4/5 497/4/5
f 503/4/5 500/4/5 499/4/5
f 504/4/5 500/4/5 503/4/5
f 505/4/5 502/4/5 501/4/5
f 506/4/5 502/4/5 505/4/5
f 509/4/5 508/4/5 507/4/5
f 510/4/5 508/4/5 509/4/5
f 513/4/5 509/4/5 507/4/5
f 514/4/5 509/4/5 513/4/5
f 515/4/5 508/4/5 510/4/5
f 516/4/5 508/4/5 515/4/5
f 517/4/5 512/4/5 511/4/5
f 518/4/5 512/4/5 517/4/5
f 521/4/5 520/4/5 519/4/5
f 522/4/5 520/4/5 521/4/5
f 525/4/5 524/4/5 523/4/5
f 526/4/5 524/4/5 525/4/5
f 530/3/5 528/3/5 527/3/5
f 531/3/5 528/3/5 530/3/5
f 533/3/5 530/3/5 529/3/5
f 533/3/5 532/3/5 531/3/5
f 533/3/5 531/3/5 530/3/5
f 534/3/5 532/3/5 533/3/5
f 535/4/6 536/4/6 539/4/6
f 539/4/6 536/4/6 540/4/6
f 537/4/6 538/4/6 541/4/6
f 541/4/6 538/4/6 542/4/6
f 543/4/6 544/4/6 547/4/6
f 547/4/6 544/4/6 548/4/6
f 545/4/6 546/4/6 549/4/6
f 549/4/6 546/4/6 550/4/6
f 551/4/6 552/4/6 555/4/6
f 555/4/6 552/4/6 556/4/6
f 553/4/6 554/4/6 557/4/6
f 557/4/6 554/4/6 558/4/6
f 559/4/6 560/4/6 563/4/6
f 563/4/6 560/4/6 564/4/6
f 561/4/6 562/4/6 565/4/6
f 565/4/6 562/4/6 566/4/6
f 567/4/6 568/4/6 571/4/6
f 571/4/6 568/4/6 572/4/6
f 569/4/6 570/4/6 573/4/6
f 573/4/6 570/4/6 574/4/6
f 575/4/6 576/4/6 577/4/6
f 577/4/6 576/4/6 578/4/6
f 578/4/6 576/4/6 579/4/6
f 579/4/6 576/4/6 580/4/6
f 575/4/6 577/4/6 581/4/6
f 577/1/6 578/1/6 581/1/6
f 581/1/6 578/1/6 582/1/6
f 579/1/6 580/1/6 583/1/6
f 580/4/6 576/4/6 584/4/6
f 583/1/6 580/1/6 584/1/6
f 575/4/6 581/4/6 585/4/6
f 584/4/6 576/4/6 588/4/6
f 575/4/6 585/4/6 589/4/6
f 585/1/6 586/1/6 590/1/6
f 589/4/6 585/4/6 590/4/6
f 590/1/6 586/1/6 591/1/6
f 587/1/6 588/1/6 592/1/6
f 588/4/6 576/4/6 593/4/6
f 592/1/6 588/1/6 593/1/6
f 593/4/6 576/4/6 594/4/6
f 595/3/6 596/3/6 598/3/6
f 598/3/6 596/3/6 599/3/6
f 597/3/6 598/3/6 601/3/6
f 601/3/6 598/3/6 602/3/6
f 599/3/6 600/3/6 603/3/6
f 603/3/6 600/3/6 604/3/6
f 602/3/6 603/3/6 605/3/6
f 605/3/6 603/3/6 606/3/6
f 607/4/6 608/4/6 611/4/6
f 611/4/6 608/4/6 612/4/6
f 609/4/6 610/4/6 613/4/6
f 613/4/6 610/4/6 614/4/6
f 615/3/6 616/3/6 617/3/6
f 617/3/6 616/3/6 618/3/6
f 619/4/6 620/4/6 621/4/6
f 621/4/6 620/4/6 622/4/6
f 623/4/6 624/4/6 625/4/6
f 625/4/6 624/4/6 626/4/6
f 627/4/6 628/4/6 631/4/6
f 631/4/6 628/4/6 632/4/6
f 629/4/6 630/4/6 633/4/6
f 633/4/6 630/4/6 634/4/6
f 635/3/6 636/3/6 638/3/6
f 638/3/6 636/3/6 639/3/6
f 637/3/6 638/3/6 641/3/6
f 641/3/6 638/3/6 642/3/6
f 639/3/6 640/3/6 643/3/6
f 643/3/6 640/3/6 644/3/6
f 645/3/6 646/3/6 648/3/6
f 648/3/6 646/3/6 649/3/6
f 647/4/6 648/4/6 651/4/6
f 651/4/6 648/4/6 652/4/6
f 649/4/6 650/4/6 653/4/6
f 653/4/6 650/4/6 654/4/6
f 655/4/6 656/4/6 659/4/6
f 659/4/6 656/4/6 660/4/6
f 657/4/6 658/4/6 661/4/6
f 661/4/6 658/4/6 662/4/6
f 663/4/6 664/4/6 667/4/6
f 667/4/6 664/4/6 668/4/6
f 665/4/6 666/4/6 669/4/6
f 669/4/6 666/4/6 670/4/6
f 671/4/6 672/4/6 673/4/6
f 673/4/6 672/4/6 674/4/6
