# MagicaVoxel @ Ephtracy

# group
o 

# material
mtllib FriedFries.mtl
usemtl palette

# normals
vn -1 0 0
vn 1 0 0
vn 0 0 1
vn 0 0 -1
vn 0 -1 0
vn 0 1 0

# texcoords
vt 0.974609 0.5
vt 0.978516 0.5

# verts
v -2.23517e-08 0 -0.1
v -2.23517e-08 0 -0.5
v -2.23517e-08 0.1 -0.1
v -2.23517e-08 0.1 -0.5
v 0.1 0 0.3
v 0.1 0 0.2
v 0.1 0 -0.1
v 0.1 0.1 0.3
v 0.1 0.1 0.2
v 0.1 0.1 -0.1
v 0.1 0.1 -0.4
v 0.1 0.1 -0.5
v 0.1 0.2 -0.1
v 0.1 0.2 -0.4
v 0.1 0.2 -0.5
v 0.2 0 -0.4
v 0.2 0 -0.6
v 0.2 0 -0.7
v 0.2 0.1 0.4
v 0.2 0.1 0.3
v 0.2 0.1 0.2
v 0.2 0.1 -0.4
v 0.2 0.1 -0.5
v 0.2 0.1 -0.6
v 0.2 0.1 -0.7
v 0.2 0.2 0.4
v 0.2 0.2 0.2
v 0.3 0 0.5
v 0.3 0 0.3
v 0.3 0 0.1
v 0.3 0 -5.96046e-08
v 0.3 0 -0.3
v 0.3 0.1 0.5
v 0.3 0.1 0.4
v 0.3 0.1 0.3
v 0.3 0.1 0.1
v 0.3 0.1 -5.96046e-08
v 0.3 0.1 -0.3
v 0.4 0 0.8
v 0.4 0 0.7
v 0.4 0 0.5
v 0.4 0.1 0.8
v 0.4 0.1 0.7
v 0.4 0.1 0.5
v 0.4 0.1 0.2
v 0.4 0.1 0.1
v 0.4 0.1 -5.96046e-08
v 0.4 0.1 -0.2
v 0.4 0.1 -0.4
v 0.4 0.1 -0.7
v 0.4 0.1 -0.8
v 0.4 0.2 0.2
v 0.4 0.2 -0.2
v 0.4 0.2 -0.4
v 0.4 0.2 -0.7
v 0.4 0.2 -0.8
v 0.5 0 0.4
v 0.5 0 0.1
v 0.5 0 -0.3
v 0.5 0 -0.4
v 0.5 0 -0.7
v 0.5 0.1 0.4
v 0.5 0.1 0.2
v 0.5 0.1 0.1
v 0.5 0.1 -0.3
v 0.5 0.1 -0.4
v 0.5 0.1 -0.7
v 0.7 0 -5.96046e-08
v 0.7 0 -0.1
v 0.7 0 -0.4
v 0.7 0 -0.6
v 0.7 0 -0.8
v 0.7 0 -0.9
v 0.7 0.1 0.6
v 0.7 0.1 0.2
v 0.7 0.1 -5.96046e-08
v 0.7 0.1 -0.1
v 0.7 0.1 -0.4
v 0.7 0.1 -0.6
v 0.7 0.1 -0.8
v 0.7 0.1 -0.9
v 0.7 0.2 0.6
v 0.7 0.2 0.2
v 0.8 0 0.7
v 0.8 0 0.6
v 0.8 0 0.2
v 0.8 0.1 0.7
v 0.8 0.1 0.6
v 0.8 0.1 0.2
v 0.8 0.1 -5.96046e-08
v 0.8 0.1 -0.1
v 0.8 0.1 -0.4
v 0.8 0.1 -0.5
v 0.8 0.2 -5.96046e-08
v 0.8 0.2 -0.4
v 0.8 0.2 -0.5
v 0.9 0 0.2
v 0.9 0 -5.96046e-08
v 0.9 0 -0.4
v 0.9 0 -0.8
v 0.9 0.1 0.2
v 0.9 0.1 -5.96046e-08
v 0.9 0.1 -0.4
v 0.9 0.1 -0.5
v 0.9 0.1 -0.8
v 1 0 -5.96046e-08
v 1 0 -0.2
v 1 0.1 -5.96046e-08
v 1 0.1 -0.1
v 1 0.1 -0.2
v 1 0.1 -0.4
v 1 0.2 -5.96046e-08
v 1 0.2 -0.1
v 1 0.2 -0.4
v 0.1 0 -0.1
v 0.1 0 -0.5
v 0.1 0.1 -0.1
v 0.1 0.1 -0.4
v 0.1 0.1 -0.5
v 0.2 0 0.3
v 0.2 0 0.2
v 0.2 0 -0.1
v 0.2 0.1 0.3
v 0.2 0.1 0.2
v 0.2 0.1 -0.1
v 0.2 0.1 -0.4
v 0.2 0.1 -0.5
v 0.2 0.2 -0.1
v 0.2 0.2 -0.4
v 0.2 0.2 -0.5
v 0.3 0 -0.4
v 0.3 0 -0.6
v 0.3 0 -0.7
v 0.3 0.1 0.4
v 0.3 0.1 0.3
v 0.3 0.1 0.2
v 0.3 0.1 -0.4
v 0.3 0.1 -0.6
v 0.3 0.1 -0.7
v 0.3 0.2 0.4
v 0.3 0.2 0.2
v 0.4 0 0.5
v 0.4 0 0.3
v 0.4 0 -5.96046e-08
v 0.4 0 -0.3
v 0.4 0.1 0.5
v 0.4 0.1 0.3
v 0.4 0.1 -5.96046e-08
v 0.4 0.1 -0.2
v 0.4 0.1 -0.3
v 0.5 0 0.8
v 0.5 0 0.7
v 0.5 0 0.5
v 0.5 0.1 0.8
v 0.5 0.1 0.7
v 0.5 0.1 0.5
v 0.5 0.1 0.2
v 0.5 0.1 0.1
v 0.5 0.1 -5.96046e-08
v 0.5 0.1 -0.2
v 0.5 0.1 -0.4
v 0.5 0.1 -0.7
v 0.5 0.1 -0.8
v 0.5 0.2 0.2
v 0.5 0.2 -0.2
v 0.5 0.2 -0.4
v 0.5 0.2 -0.7
v 0.5 0.2 -0.8
v 0.6 0 0.4
v 0.6 0 0.1
v 0.6 0 -5.96046e-08
v 0.6 0 -0.3
v 0.6 0 -0.4
v 0.6 0 -0.7
v 0.6 0.1 0.4
v 0.6 0.1 0.1
v 0.6 0.1 -5.96046e-08
v 0.6 0.1 -0.3
v 0.6 0.1 -0.4
v 0.6 0.1 -0.7
v 0.8 0 -5.96046e-08
v 0.8 0 -0.1
v 0.8 0 -0.4
v 0.8 0 -0.6
v 0.8 0 -0.8
v 0.8 0 -0.9
v 0.8 0.1 0.6
v 0.8 0.1 0.2
v 0.8 0.1 -5.96046e-08
v 0.8 0.1 -0.1
v 0.8 0.1 -0.4
v 0.8 0.1 -0.6
v 0.8 0.1 -0.8
v 0.8 0.1 -0.9
v 0.8 0.2 0.6
v 0.8 0.2 0.2
v 0.9 0 0.7
v 0.9 0 0.6
v 0.9 0 0.5
v 0.9 0.1 0.7
v 0.9 0.1 0.6
v 0.9 0.1 0.5
v 0.9 0.1 -5.96046e-08
v 0.9 0.1 -0.4
v 0.9 0.1 -0.5
v 0.9 0.2 -5.96046e-08
v 0.9 0.2 -0.4
v 0.9 0.2 -0.5
v 1 0 0.5
v 1 0 0.3
v 1 0 -0.4
v 1 0 -0.8
v 1 0.1 0.5
v 1 0.1 0.3
v 1 0.1 -0.4
v 1 0.1 -0.8
v 1.1 0 0.3
v 1.1 0 0.2
v 1.1 0 -0.2
v 1.1 0.1 0.3
v 1.1 0.1 0.2
v 1.1 0.1 -5.96046e-08
v 1.1 0.1 -0.1
v 1.1 0.1 -0.2
v 1.1 0.1 -0.4
v 1.1 0.2 -5.96046e-08
v 1.1 0.2 -0.1
v 1.1 0.2 -0.4
v 0.4 0 0.8
v 0.4 0.1 0.8
v 0.5 0 0.8
v 0.5 0.1 0.8
v 0.8 0 0.7
v 0.8 0.1 0.7
v 0.9 0 0.7
v 0.9 0.1 0.7
v 0.7 0.1 0.6
v 0.7 0.2 0.6
v 0.8 0.1 0.6
v 0.8 0.2 0.6
v 0.3 0 0.5
v 0.3 0.1 0.5
v 0.4 0 0.5
v 0.4 0.1 0.5
v 0.9 0 0.5
v 0.9 0.1 0.5
v 1 0 0.5
v 1 0.1 0.5
v 0.2 0.1 0.4
v 0.2 0.2 0.4
v 0.3 0.1 0.4
v 0.3 0.2 0.4
v 0.5 0 0.4
v 0.5 0.1 0.4
v 0.6 0 0.4
v 0.6 0.1 0.4
v 0.1 0 0.3
v 0.1 0.1 0.3
v 0.2 0 0.3
v 0.2 0.1 0.3
v 1 0 0.3
v 1 0.1 0.3
v 1.1 0 0.3
v 1.1 0.1 0.3
v 0.4 0.1 0.2
v 0.4 0.2 0.2
v 0.5 0.1 0.2
v 0.5 0.2 0.2
v 0.3 0 0.1
v 0.3 0.1 0.1
v 0.4 0 0.1
v 0.4 0.1 0.1
v 0.5 0 0.1
v 0.5 0.1 0.1
v 0.7 0 -5.96046e-08
v 0.7 0.1 -5.96046e-08
v 0.8 0 -5.96046e-08
v 0.8 0.1 -5.96046e-08
v 0.8 0.2 -5.96046e-08
v 0.9 0.1 -5.96046e-08
v 0.9 0.2 -5.96046e-08
v 1 0.1 -5.96046e-08
v 1 0.2 -5.96046e-08
v 1.1 0.1 -5.96046e-08
v 1.1 0.2 -5.96046e-08
v -2.23517e-08 0 -0.1
v -2.23517e-08 0.1 -0.1
v 0.1 0 -0.1
v 0.1 0.1 -0.1
v 0.1 0.2 -0.1
v 0.2 0.1 -0.1
v 0.2 0.2 -0.1
v 0.5 0 -0.3
v 0.5 0.1 -0.3
v 0.6 0 -0.3
v 0.6 0.1 -0.3
v 0.2 0 -0.4
v 0.2 0.1 -0.4
v 0.3 0 -0.4
v 0.3 0.1 -0.4
v 0.4 0.1 -0.4
v 0.4 0.2 -0.4
v 0.5 0.1 -0.4
v 0.5 0.2 -0.4
v 0.9 0 -0.4
v 0.9 0.1 -0.4
v 1 0 -0.4
v 1 0.1 -0.4
v 0.7 0 -0.6
v 0.7 0.1 -0.6
v 0.8 0 -0.6
v 0.8 0.1 -0.6
v 0.4 0 0.5
v 0.4 0.1 0.5
v 0.5 0 0.5
v 0.5 0.1 0.5
v 0.3 0 0.3
v 0.3 0.1 0.3
v 0.4 0 0.3
v 0.4 0.1 0.3
v 0.2 0.1 0.2
v 0.2 0.2 0.2
v 0.3 0.1 0.2
v 0.3 0.2 0.2
v 0.7 0.1 0.2
v 0.7 0.2 0.2
v 0.8 0 0.2
v 0.8 0.1 0.2
v 0.8 0.2 0.2
v 0.9 0 0.2
v 0.9 0.1 0.2
v 0.4 0 -5.96046e-08
v 0.4 0.1 -5.96046e-08
v 0.5 0 -5.96046e-08
v 0.5 0.1 -5.96046e-08
v 0.6 0 -5.96046e-08
v 0.6 0.1 -5.96046e-08
v 0.9 0 -5.96046e-08
v 0.9 0.1 -5.96046e-08
v 1 0 -5.96046e-08
v 1 0.1 -5.96046e-08
v 0.1 0 -0.1
v 0.1 0.1 -0.1
v 0.2 0 -0.1
v 0.2 0.1 -0.1
v 0.4 0.1 -0.2
v 0.4 0.2 -0.2
v 0.5 0.1 -0.2
v 0.5 0.2 -0.2
v 1 0 -0.2
v 1 0.1 -0.2
v 1.1 0 -0.2
v 1.1 0.1 -0.2
v 0.3 0 -0.3
v 0.3 0.1 -0.3
v 0.4 0 -0.3
v 0.4 0.1 -0.3
v 0.7 0 -0.4
v 0.7 0.1 -0.4
v 0.8 0 -0.4
v 0.8 0.1 -0.4
v 1 0.1 -0.4
v 1 0.2 -0.4
v 1.1 0.1 -0.4
v 1.1 0.2 -0.4
v -2.23517e-08 0 -0.5
v -2.23517e-08 0.1 -0.5
v 0.1 0 -0.5
v 0.1 0.1 -0.5
v 0.1 0.2 -0.5
v 0.2 0.1 -0.5
v 0.2 0.2 -0.5
v 0.8 0.1 -0.5
v 0.8 0.2 -0.5
v 0.9 0.1 -0.5
v 0.9 0.2 -0.5
v 0.2 0 -0.7
v 0.2 0.1 -0.7
v 0.3 0 -0.7
v 0.3 0.1 -0.7
v 0.5 0 -0.7
v 0.5 0.1 -0.7
v 0.6 0 -0.7
v 0.6 0.1 -0.7
v 0.4 0.1 -0.8
v 0.4 0.2 -0.8
v 0.5 0.1 -0.8
v 0.5 0.2 -0.8
v 0.9 0 -0.8
v 0.9 0.1 -0.8
v 1 0 -0.8
v 1 0.1 -0.8
v 0.7 0 -0.9
v 0.7 0.1 -0.9
v 0.8 0 -0.9
v 0.8 0.1 -0.9
v 0.4 0 0.8
v 0.5 0 0.8
v 0.4 0 0.7
v 0.5 0 0.7
v 0.8 0 0.7
v 0.9 0 0.7
v 0.8 0 0.6
v 0.9 0 0.6
v 0.3 0 0.5
v 0.4 0 0.5
v 0.5 0 0.5
v 0.9 0 0.5
v 1 0 0.5
v 0.5 0 0.4
v 0.6 0 0.4
v 0.1 0 0.3
v 0.2 0 0.3
v 0.3 0 0.3
v 0.4 0 0.3
v 1 0 0.3
v 1.1 0 0.3
v 0.1 0 0.2
v 0.2 0 0.2
v 0.8 0 0.2
v 0.9 0 0.2
v 1 0 0.2
v 1.1 0 0.2
v 0.3 0 0.1
v 0.4 0 0.1
v 0.5 0 0.1
v 0.6 0 0.1
v 0.3 0 -5.96046e-08
v 0.4 0 -5.96046e-08
v 0.5 0 -5.96046e-08
v 0.6 0 -5.96046e-08
v 0.7 0 -5.96046e-08
v 0.8 0 -5.96046e-08
v 0.9 0 -5.96046e-08
v 1 0 -5.96046e-08
v -2.23517e-08 0 -0.1
v 0.1 0 -0.1
v 0.2 0 -0.1
v 0.7 0 -0.1
v 0.8 0 -0.1
v 1 0 -0.2
v 1.1 0 -0.2
v 0.3 0 -0.3
v 0.4 0 -0.3
v 0.5 0 -0.3
v 0.6 0 -0.3
v 0.2 0 -0.4
v 0.3 0 -0.4
v 0.5 0 -0.4
v 0.6 0 -0.4
v 0.7 0 -0.4
v 0.8 0 -0.4
v 0.9 0 -0.4
v 1 0 -0.4
v -2.23517e-08 0 -0.5
v 0.1 0 -0.5
v 0.2 0 -0.6
v 0.3 0 -0.6
v 0.7 0 -0.6
v 0.8 0 -0.6
v 0.2 0 -0.7
v 0.3 0 -0.7
v 0.5 0 -0.7
v 0.6 0 -0.7
v 0.7 0 -0.8
v 0.8 0 -0.8
v 0.9 0 -0.8
v 1 0 -0.8
v 0.7 0 -0.9
v 0.8 0 -0.9
v 0.7 0.1 0.6
v 0.8 0.1 0.6
v 0.2 0.1 0.4
v 0.3 0.1 0.4
v 0.2 0.1 0.3
v 0.3 0.1 0.3
v 0.2 0.1 0.2
v 0.3 0.1 0.2
v 0.4 0.1 0.2
v 0.5 0.1 0.2
v 0.7 0.1 0.2
v 0.8 0.1 0.2
v 0.4 0.1 0.1
v 0.5 0.1 0.1
v 0.4 0.1 -5.96046e-08
v 0.5 0.1 -5.96046e-08
v 0.8 0.1 -5.96046e-08
v 0.9 0.1 -5.96046e-08
v 0.1 0.1 -0.1
v 0.2 0.1 -0.1
v 0.8 0.1 -0.1
v 0.4 0.1 -0.2
v 0.5 0.1 -0.2
v 1 0.1 -0.2
v 1.1 0.1 -0.2
v 0.1 0.1 -0.4
v 0.2 0.1 -0.4
v 0.4 0.1 -0.4
v 0.5 0.1 -0.4
v 0.8 0.1 -0.4
v 0.9 0.1 -0.4
v 1 0.1 -0.4
v 1.1 0.1 -0.4
v 0.1 0.1 -0.5
v 0.2 0.1 -0.5
v 0.8 0.1 -0.5
v 0.9 0.1 -0.5
v 0.4 0.1 -0.7
v 0.5 0.1 -0.7
v 0.4 0.1 -0.8
v 0.5 0.1 -0.8
v 0.4 0.1 0.8
v 0.5 0.1 0.8
v 0.4 0.1 0.7
v 0.5 0.1 0.7
v 0.8 0.1 0.7
v 0.9 0.1 0.7
v 0.8 0.1 0.6
v 0.9 0.1 0.6
v 0.3 0.1 0.5
v 0.4 0.1 0.5
v 0.5 0.1 0.5
v 0.9 0.1 0.5
v 1 0.1 0.5
v 0.3 0.1 0.4
v 0.5 0.1 0.4
v 0.6 0.1 0.4
v 0.1 0.1 0.3
v 0.2 0.1 0.3
v 0.3 0.1 0.3
v 0.4 0.1 0.3
v 1 0.1 0.3
v 1.1 0.1 0.3
v 0.1 0.1 0.2
v 0.2 0.1 0.2
v 0.5 0.1 0.2
v 0.8 0.1 0.2
v 0.9 0.1 0.2
v 1 0.1 0.2
v 1.1 0.1 0.2
v 0.3 0.1 0.1
v 0.4 0.1 0.1
v 0.5 0.1 0.1
v 0.6 0.1 0.1
v 0.3 0.1 -5.96046e-08
v 0.4 0.1 -5.96046e-08
v 0.5 0.1 -5.96046e-08
v 0.6 0.1 -5.96046e-08
v 0.7 0.1 -5.96046e-08
v 0.8 0.1 -5.96046e-08
v 0.9 0.1 -5.96046e-08
v 1 0.1 -5.96046e-08
v 1.1 0.1 -5.96046e-08
v -2.23517e-08 0.1 -0.1
v 0.1 0.1 -0.1
v 0.2 0.1 -0.1
v 0.7 0.1 -0.1
v 0.8 0.1 -0.1
v 0.4 0.1 -0.2
v 0.3 0.1 -0.3
v 0.4 0.1 -0.3
v 0.5 0.1 -0.3
v 0.6 0.1 -0.3
v 0.1 0.1 -0.4
v 0.2 0.1 -0.4
v 0.3 0.1 -0.4
v 0.5 0.1 -0.4
v 0.6 0.1 -0.4
v 0.7 0.1 -0.4
v 0.8 0.1 -0.4
v 0.9 0.1 -0.4
v 1 0.1 -0.4
v -2.23517e-08 0.1 -0.5
v 0.1 0.1 -0.5
v 0.2 0.1 -0.5
v 0.9 0.1 -0.5
v 0.2 0.1 -0.6
v 0.3 0.1 -0.6
v 0.7 0.1 -0.6
v 0.8 0.1 -0.6
v 0.2 0.1 -0.7
v 0.3 0.1 -0.7
v 0.5 0.1 -0.7
v 0.6 0.1 -0.7
v 0.7 0.1 -0.8
v 0.8 0.1 -0.8
v 0.9 0.1 -0.8
v 1 0.1 -0.8
v 0.7 0.1 -0.9
v 0.8 0.1 -0.9
v 0.7 0.2 0.6
v 0.8 0.2 0.6
v 0.2 0.2 0.4
v 0.3 0.2 0.4
v 0.2 0.2 0.2
v 0.3 0.2 0.2
v 0.4 0.2 0.2
v 0.5 0.2 0.2
v 0.7 0.2 0.2
v 0.8 0.2 0.2
v 0.8 0.2 -5.96046e-08
v 0.9 0.2 -5.96046e-08
v 1 0.2 -5.96046e-08
v 1.1 0.2 -5.96046e-08
v 0.1 0.2 -0.1
v 0.2 0.2 -0.1
v 1 0.2 -0.1
v 1.1 0.2 -0.1
v 0.4 0.2 -0.2
v 0.5 0.2 -0.2
v 0.1 0.2 -0.4
v 0.2 0.2 -0.4
v 0.4 0.2 -0.4
v 0.5 0.2 -0.4
v 0.8 0.2 -0.4
v 0.9 0.2 -0.4
v 1 0.2 -0.4
v 1.1 0.2 -0.4
v 0.1 0.2 -0.5
v 0.2 0.2 -0.5
v 0.8 0.2 -0.5
v 0.9 0.2 -0.5
v 0.4 0.2 -0.7
v 0.5 0.2 -0.7
v 0.4 0.2 -0.8
v 0.5 0.2 -0.8

# faces
f 3/2/1 2/2/1 1/2/1
f 4/2/1 2/2/1 3/2/1
f 8/1/1 6/1/1 5/1/1
f 9/2/1 7/2/1 6/2/1
f 9/1/1 6/1/1 8/1/1
f 10/2/1 7/2/1 9/2/1
f 13/2/1 11/2/1 10/2/1
f 14/1/1 12/1/1 11/1/1
f 14/2/1 11/2/1 13/2/1
f 15/1/1 12/1/1 14/1/1
f 22/2/1 17/2/1 16/2/1
f 23/2/1 17/2/1 22/2/1
f 24/1/1 18/1/1 17/1/1
f 24/2/1 17/2/1 23/2/1
f 25/1/1 18/1/1 24/1/1
f 26/2/1 21/2/1 20/2/1
f 26/2/1 20/2/1 19/2/1
f 27/2/1 21/2/1 26/2/1
f 33/2/1 29/2/1 28/2/1
f 34/2/1 29/2/1 33/2/1
f 35/2/1 29/2/1 34/2/1
f 36/1/1 31/1/1 30/1/1
f 37/2/1 32/2/1 31/2/1
f 37/1/1 31/1/1 36/1/1
f 38/2/1 32/2/1 37/2/1
f 42/1/1 40/1/1 39/1/1
f 43/2/1 41/2/1 40/2/1
f 43/1/1 40/1/1 42/1/1
f 44/2/1 41/2/1 43/2/1
f 52/2/1 46/2/1 45/2/1
f 52/2/1 48/2/1 47/2/1
f 52/2/1 47/2/1 46/2/1
f 53/2/1 48/2/1 52/2/1
f 54/2/1 50/2/1 49/2/1
f 55/1/1 51/1/1 50/1/1
f 55/2/1 50/2/1 54/2/1
f 56/1/1 51/1/1 55/1/1
f 62/2/1 58/2/1 57/2/1
f 63/2/1 58/2/1 62/2/1
f 64/2/1 58/2/1 63/2/1
f 65/1/1 60/1/1 59/1/1
f 66/2/1 61/2/1 60/2/1
f 66/1/1 60/1/1 65/1/1
f 67/2/1 61/2/1 66/2/1
f 76/1/1 69/1/1 68/1/1
f 77/2/1 70/2/1 69/2/1
f 77/1/1 69/1/1 76/1/1
f 78/2/1 70/2/1 77/2/1
f 79/2/1 72/2/1 71/2/1
f 80/1/1 73/1/1 72/1/1
f 80/2/1 72/2/1 79/2/1
f 81/1/1 73/1/1 80/1/1
f 82/2/1 75/2/1 74/2/1
f 83/2/1 75/2/1 82/2/1
f 87/1/1 85/1/1 84/1/1
f 88/2/1 86/2/1 85/2/1
f 88/1/1 85/1/1 87/1/1
f 89/2/1 86/2/1 88/2/1
f 94/2/1 92/2/1 91/2/1
f 94/2/1 91/2/1 90/2/1
f 95/1/1 93/1/1 92/1/1
f 95/2/1 92/2/1 94/2/1
f 96/1/1 93/1/1 95/1/1
f 101/2/1 98/2/1 97/2/1
f 102/2/1 98/2/1 101/2/1
f 103/2/1 100/2/1 99/2/1
f 104/2/1 100/2/1 103/2/1
f 105/2/1 100/2/1 104/2/1
f 108/2/1 107/2/1 106/2/1
f 109/2/1 107/2/1 108/2/1
f 110/2/1 107/2/1 109/2/1
f 112/1/1 109/1/1 108/1/1
f 113/2/1 111/2/1 110/2/1
f 113/1/1 109/1/1 112/1/1
f 113/2/1 110/2/1 109/2/1
f 114/2/1 111/2/1 113/2/1
f 115/2/2 116/2/2 117/2/2
f 117/2/2 116/2/2 118/2/2
f 118/2/2 116/2/2 119/2/2
f 120/1/2 121/1/2 123/1/2
f 121/2/2 122/2/2 124/2/2
f 123/1/2 121/1/2 124/1/2
f 124/2/2 122/2/2 125/2/2
f 125/2/2 126/2/2 128/2/2
f 126/1/2 127/1/2 129/1/2
f 128/2/2 126/2/2 129/2/2
f 129/1/2 127/1/2 130/1/2
f 131/2/2 132/2/2 137/2/2
f 132/1/2 133/1/2 138/1/2
f 137/2/2 132/2/2 138/2/2
f 138/1/2 133/1/2 139/1/2
f 135/2/2 136/2/2 140/2/2
f 134/2/2 135/2/2 140/2/2
f 140/2/2 136/2/2 141/2/2
f 142/2/2 143/2/2 146/2/2
f 146/2/2 143/2/2 147/2/2
f 144/2/2 145/2/2 148/2/2
f 148/2/2 145/2/2 149/2/2
f 149/2/2 145/2/2 150/2/2
f 151/1/2 152/1/2 154/1/2
f 152/2/2 153/2/2 155/2/2
f 154/1/2 152/1/2 155/1/2
f 155/2/2 153/2/2 156/2/2
f 157/2/2 158/2/2 164/2/2
f 159/2/2 160/2/2 164/2/2
f 158/2/2 159/2/2 164/2/2
f 164/2/2 160/2/2 165/2/2
f 161/2/2 162/2/2 166/2/2
f 162/1/2 163/1/2 167/1/2
f 166/2/2 162/2/2 167/2/2
f 167/1/2 163/1/2 168/1/2
f 169/2/2 170/2/2 175/2/2
f 170/1/2 171/1/2 176/1/2
f 175/2/2 170/2/2 176/2/2
f 176/1/2 171/1/2 177/1/2
f 172/1/2 173/1/2 178/1/2
f 173/2/2 174/2/2 179/2/2
f 178/1/2 173/1/2 179/1/2
f 179/2/2 174/2/2 180/2/2
f 181/1/2 182/1/2 189/1/2
f 182/2/2 183/2/2 190/2/2
f 189/1/2 182/1/2 190/1/2
f 190/2/2 183/2/2 191/2/2
f 184/2/2 185/2/2 192/2/2
f 185/1/2 186/1/2 193/1/2
f 192/2/2 185/2/2 193/2/2
f 193/1/2 186/1/2 194/1/2
f 187/2/2 188/2/2 195/2/2
f 195/2/2 188/2/2 196/2/2
f 197/1/2 198/1/2 200/1/2
f 198/2/2 199/2/2 201/2/2
f 200/1/2 198/1/2 201/1/2
f 201/2/2 199/2/2 202/2/2
f 203/2/2 204/2/2 206/2/2
f 204/1/2 205/1/2 207/1/2
f 206/2/2 204/2/2 207/2/2
f 207/1/2 205/1/2 208/1/2
f 209/2/2 210/2/2 213/2/2
f 213/2/2 210/2/2 214/2/2
f 211/2/2 212/2/2 215/2/2
f 215/2/2 212/2/2 216/2/2
f 217/1/2 218/1/2 220/1/2
f 218/2/2 219/2/2 221/2/2
f 220/1/2 218/1/2 221/1/2
f 221/2/2 219/2/2 222/2/2
f 222/2/2 219/2/2 223/2/2
f 223/2/2 219/2/2 224/2/2
f 222/1/2 223/1/2 226/1/2
f 224/2/2 225/2/2 227/2/2
f 226/1/2 223/1/2 227/1/2
f 223/2/2 224/2/2 227/2/2
f 227/2/2 225/2/2 228/2/2
f 231/1/3 230/1/3 229/1/3
f 232/1/3 230/1/3 231/1/3
f 235/1/3 234/1/3 233/1/3
f 236/1/3 234/1/3 235/1/3
f 239/2/3 238/2/3 237/2/3
f 240/2/3 238/2/3 239/2/3
f 243/2/3 242/2/3 241/2/3
f 244/2/3 242/2/3 243/2/3
f 247/2/3 246/2/3 245/2/3
f 248/2/3 246/2/3 247/2/3
f 251/2/3 250/2/3 249/2/3
f 252/2/3 250/2/3 251/2/3
f 255/2/3 254/2/3 253/2/3
f 256/2/3 254/2/3 255/2/3
f 259/1/3 258/1/3 257/1/3
f 260/1/3 258/1/3 259/1/3
f 263/1/3 262/1/3 261/1/3
f 264/1/3 262/1/3 263/1/3
f 267/2/3 266/2/3 265/2/3
f 268/2/3 266/2/3 267/2/3
f 271/1/3 270/1/3 269/1/3
f 272/1/3 270/1/3 271/1/3
f 273/2/3 272/2/3 271/2/3
f 274/2/3 272/2/3 273/2/3
f 277/1/3 276/1/3 275/1/3
f 278/1/3 276/1/3 277/1/3
f 280/2/3 279/2/3 278/2/3
f 281/2/3 279/2/3 280/2/3
f 284/1/3 283/1/3 282/1/3
f 285/1/3 283/1/3 284/1/3
f 288/2/3 287/2/3 286/2/3
f 289/2/3 287/2/3 288/2/3
f 291/2/3 290/2/3 289/2/3
f 292/2/3 290/2/3 291/2/3
f 295/1/3 294/1/3 293/1/3
f 296/1/3 294/1/3 295/1/3
f 299/2/3 298/2/3 297/2/3
f 300/2/3 298/2/3 299/2/3
f 303/2/3 302/2/3 301/2/3
f 304/2/3 302/2/3 303/2/3
f 307/2/3 306/2/3 305/2/3
f 308/2/3 306/2/3 307/2/3
f 311/2/3 310/2/3 309/2/3
f 312/2/3 310/2/3 311/2/3
f 313/2/4 314/2/4 315/2/4
f 315/2/4 314/2/4 316/2/4
f 317/2/4 318/2/4 319/2/4
f 319/2/4 318/2/4 320/2/4
f 321/2/4 322/2/4 323/2/4
f 323/2/4 322/2/4 324/2/4
f 325/2/4 326/2/4 328/2/4
f 328/2/4 326/2/4 329/2/4
f 327/2/4 328/2/4 330/2/4
f 330/2/4 328/2/4 331/2/4
f 332/2/4 333/2/4 334/2/4
f 334/2/4 333/2/4 335/2/4
f 334/1/4 335/1/4 336/1/4
f 336/1/4 335/1/4 337/1/4
f 338/2/4 339/2/4 340/2/4
f 340/2/4 339/2/4 341/2/4
f 342/2/4 343/2/4 344/2/4
f 344/2/4 343/2/4 345/2/4
f 346/2/4 347/2/4 348/2/4
f 348/2/4 347/2/4 349/2/4
f 350/2/4 351/2/4 352/2/4
f 352/2/4 351/2/4 353/2/4
f 354/2/4 355/2/4 356/2/4
f 356/2/4 355/2/4 357/2/4
f 358/2/4 359/2/4 360/2/4
f 360/2/4 359/2/4 361/2/4
f 362/2/4 363/2/4 364/2/4
f 364/2/4 363/2/4 365/2/4
f 366/2/4 367/2/4 368/2/4
f 368/2/4 367/2/4 369/2/4
f 369/1/4 370/1/4 371/1/4
f 371/1/4 370/1/4 372/1/4
f 373/1/4 374/1/4 375/1/4
f 375/1/4 374/1/4 376/1/4
f 377/1/4 378/1/4 379/1/4
f 379/1/4 378/1/4 380/1/4
f 381/2/4 382/2/4 383/2/4
f 383/2/4 382/2/4 384/2/4
f 385/1/4 386/1/4 387/1/4
f 387/1/4 386/1/4 388/1/4
f 389/2/4 390/2/4 391/2/4
f 391/2/4 390/2/4 392/2/4
f 393/1/4 394/1/4 395/1/4
f 395/1/4 394/1/4 396/1/4
f 399/1/5 398/1/5 397/1/5
f 400/1/5 398/1/5 399/1/5
f 403/1/5 402/1/5 401/1/5
f 404/1/5 402/1/5 403/1/5
f 406/2/5 400/2/5 399/2/5
f 407/2/5 400/2/5 406/2/5
f 408/2/5 404/2/5 403/2/5
f 414/2/5 406/2/5 405/2/5
f 415/2/5 406/2/5 414/2/5
f 416/2/5 409/2/5 408/2/5
f 418/1/5 413/1/5 412/1/5
f 419/1/5 413/1/5 418/1/5
f 420/2/5 408/2/5 403/2/5
f 420/2/5 416/2/5 408/2/5
f 421/2/5 416/2/5 420/2/5
f 422/1/5 417/1/5 416/1/5
f 422/2/5 416/2/5 421/2/5
f 423/1/5 417/1/5 422/1/5
f 426/2/5 411/2/5 410/2/5
f 427/2/5 411/2/5 426/2/5
f 428/1/5 425/1/5 424/1/5
f 429/2/5 426/2/5 425/2/5
f 429/1/5 425/1/5 428/1/5
f 430/1/5 427/1/5 426/1/5
f 430/2/5 426/2/5 429/2/5
f 431/1/5 427/1/5 430/1/5
f 434/2/5 422/2/5 421/2/5
f 434/2/5 423/2/5 422/2/5
f 435/2/5 423/2/5 434/2/5
f 437/2/5 419/2/5 418/2/5
f 438/2/5 419/2/5 437/2/5
f 439/1/5 433/1/5 432/1/5
f 440/1/5 433/1/5 439/1/5
f 441/2/5 423/2/5 435/2/5
f 442/2/5 423/2/5 441/2/5
f 443/2/5 429/2/5 428/2/5
f 444/2/5 429/2/5 443/2/5
f 449/1/5 446/1/5 445/1/5
f 450/1/5 446/1/5 449/1/5
f 451/2/5 440/2/5 439/2/5
f 452/2/5 440/2/5 451/2/5
f 455/2/5 437/2/5 436/2/5
f 456/2/5 437/2/5 455/2/5
f 457/2/5 448/2/5 447/2/5
f 458/2/5 448/2/5 457/2/5
f 461/1/5 458/1/5 457/1/5
f 462/1/5 458/1/5 461/1/5
f 463/2/5 450/2/5 449/2/5
f 464/2/5 450/2/5 463/2/5
f 465/2/5 460/2/5 459/2/5
f 466/2/5 460/2/5 465/2/5
f 467/2/5 454/2/5 453/2/5
f 468/2/5 454/2/5 467/2/5
f 469/1/5 466/1/5 465/1/5
f 470/1/5 466/1/5 469/1/5
f 475/2/5 474/2/5 473/2/5
f 476/2/5 474/2/5 475/2/5
f 477/2/5 476/2/5 475/2/5
f 478/2/5 476/2/5 477/2/5
f 481/2/5 472/2/5 471/2/5
f 482/2/5 472/2/5 481/2/5
f 483/2/5 480/2/5 479/2/5
f 484/2/5 480/2/5 483/2/5
f 491/2/5 488/2/5 487/2/5
f 492/2/5 486/2/5 485/2/5
f 493/2/5 486/2/5 492/2/5
f 496/2/5 490/2/5 489/2/5
f 497/2/5 490/2/5 496/2/5
f 500/2/5 488/2/5 491/2/5
f 501/2/5 488/2/5 500/2/5
f 502/2/5 495/2/5 494/2/5
f 503/2/5 495/2/5 502/2/5
f 504/1/5 497/1/5 496/1/5
f 505/1/5 497/1/5 504/1/5
f 506/1/5 501/1/5 500/1/5
f 507/1/5 501/1/5 506/1/5
f 508/2/5 499/2/5 498/2/5
f 509/2/5 499/2/5 508/2/5
f 510/1/5 509/1/5 508/1/5
f 511/1/5 509/1/5 510/1/5
f 512/1/6 513/1/6 514/1/6
f 514/1/6 513/1/6 515/1/6
f 516/1/6 517/1/6 518/1/6
f 518/1/6 517/1/6 519/1/6
f 514/2/6 515/2/6 521/2/6
f 521/2/6 515/2/6 522/2/6
f 518/2/6 519/2/6 523/2/6
f 520/2/6 521/2/6 525/2/6
f 525/2/6 521/2/6 530/2/6
f 530/2/6 521/2/6 531/2/6
f 523/2/6 524/2/6 532/2/6
f 528/1/6 529/1/6 534/1/6
f 534/1/6 529/1/6 535/1/6
f 526/2/6 527/2/6 536/2/6
f 518/2/6 523/2/6 537/2/6
f 523/2/6 532/2/6 537/2/6
f 537/2/6 532/2/6 538/2/6
f 532/1/6 533/1/6 539/1/6
f 538/2/6 532/2/6 539/2/6
f 539/1/6 533/1/6 540/1/6
f 536/2/6 527/2/6 543/2/6
f 543/2/6 527/2/6 544/2/6
f 541/1/6 542/1/6 545/1/6
f 545/1/6 542/1/6 546/1/6
f 543/1/6 544/1/6 547/1/6
f 547/1/6 544/1/6 548/1/6
f 538/2/6 539/2/6 551/2/6
f 539/2/6 540/2/6 551/2/6
f 551/2/6 540/2/6 552/2/6
f 552/2/6 540/2/6 553/2/6
f 534/2/6 535/2/6 555/2/6
f 555/2/6 535/2/6 556/2/6
f 549/1/6 550/1/6 557/1/6
f 557/1/6 550/1/6 558/1/6
f 545/2/6 546/2/6 559/2/6
f 545/2/6 559/2/6 560/2/6
f 560/2/6 559/2/6 561/2/6
f 554/2/6 555/2/6 564/2/6
f 562/1/6 563/1/6 567/1/6
f 567/1/6 563/1/6 568/1/6
f 557/2/6 558/2/6 569/2/6
f 569/2/6 558/2/6 570/2/6
f 554/2/6 564/2/6 573/2/6
f 573/2/6 564/2/6 574/2/6
f 565/2/6 566/2/6 575/2/6
f 571/2/6 572/2/6 576/2/6
f 575/2/6 566/2/6 577/2/6
f 577/2/6 566/2/6 578/2/6
f 577/1/6 578/1/6 581/1/6
f 581/1/6 578/1/6 582/1/6
f 567/2/6 568/2/6 583/2/6
f 583/2/6 568/2/6 584/2/6
f 579/2/6 580/2/6 585/2/6
f 585/2/6 580/2/6 586/2/6
f 576/2/6 572/2/6 587/2/6
f 587/2/6 572/2/6 588/2/6
f 585/1/6 586/1/6 589/1/6
f 589/1/6 586/1/6 590/1/6
f 593/2/6 594/2/6 595/2/6
f 595/2/6 594/2/6 596/2/6
f 591/2/6 592/2/6 599/2/6
f 599/2/6 592/2/6 600/2/6
f 603/1/6 604/1/6 607/1/6
f 607/1/6 604/1/6 608/1/6
f 597/2/6 598/2/6 609/2/6
f 609/2/6 598/2/6 610/2/6
f 605/2/6 606/2/6 611/2/6
f 611/2/6 606/2/6 612/2/6
f 601/2/6 602/2/6 615/2/6
f 615/2/6 602/2/6 616/2/6
f 607/2/6 608/2/6 617/2/6
f 617/2/6 608/2/6 618/2/6
f 611/1/6 612/1/6 619/1/6
f 619/1/6 612/1/6 620/1/6
f 615/1/6 616/1/6 621/1/6
f 621/1/6 616/1/6 622/1/6
f 613/2/6 614/2/6 623/2/6
f 623/2/6 614/2/6 624/2/6
f 623/1/6 624/1/6 625/1/6
f 625/1/6 624/1/6 626/1/6
