# MagicaVoxel @ Ephtracy

# group
o 

# material
mtllib lechuga.mtl
usemtl palette

# normals
vn -1 0 0
vn 1 0 0
vn 0 0 1
vn 0 0 -1
vn 0 -1 0
vn 0 1 0

# texcoords
vt 0.939453 0.5
vt 0.970703 0.5

# verts
v -0.2 1.3 -0.2
v -0.2 1.3 -0.3
v -0.2 1.4 -0.2
v -0.2 1.4 -0.3
v -0.2 1.5 -0.2
v -0.2 1.5 -0.3
v -0.2 1.7 -0.2
v -0.2 1.7 -0.3
v -0.2 1.8 -0.2
v -0.2 1.8 -0.3
v -0.2 1.9 -0.2
v -0.2 1.9 -0.3
v -0.0999999 1.6 -0.3
v -0.0999999 1.6 -0.4
v -0.0999999 1.7 -0.2
v -0.0999999 1.7 -0.3
v -0.0999999 1.7 -0.4
v -0.0999999 1.8 -0.2
v -0.0999999 1.8 -0.3
v -0.0999999 1.8 -0.4
v -0.0999999 1.9 -0.2
v -0.0999999 1.9 -0.3
v -0.0999999 2 -0.2
v -0.0999999 2 -0.3
v 5.96046e-08 1.2 -0.2
v 5.96046e-08 1.2 -0.3
v 5.96046e-08 1.3 -0.2
v 5.96046e-08 1.3 -0.3
v 5.96046e-08 1.3 -0.4
v 5.96046e-08 1.4 -0.3
v 5.96046e-08 1.5 -0.3
v 5.96046e-08 1.5 -0.4
v 5.96046e-08 1.6 -0.3
v 5.96046e-08 1.6 -0.4
v 5.96046e-08 1.8 -0.3
v 5.96046e-08 1.8 -0.4
v 5.96046e-08 1.9 -0.3
v 5.96046e-08 1.9 -0.4
v 0.1 1 -0.2
v 0.1 1 -0.3
v 0.1 1.2 -0.2
v 0.1 1.2 -0.3
v 0.1 1.2 -0.4
v 0.1 1.3 -0.3
v 0.1 1.3 -0.4
v 0.1 1.9 -0.3
v 0.1 1.9 -0.4
v 0.1 2 -0.3
v 0.1 2 -0.4
v 0.2 1 -0.3
v 0.2 1 -0.4
v 0.2 1.2 -0.3
v 0.2 1.2 -0.4
v 0.3 1 -0.4
v 0.3 1 -0.5
v 0.3 1.3 -0.4
v 0.3 1.3 -0.5
v 0.3 1.4 -0.4
v 0.3 1.5 -0.4
v 0.3 1.5 -0.5
v 0.3 1.8 -0.3
v 0.3 1.8 -0.4
v 0.3 1.9 -0.3
v 0.3 1.9 -0.4
v 0.3 2 -0.3
v 0.3 2 -0.4
v 0.4 1.5 -0.4
v 0.4 1.5 -0.5
v 0.4 1.6 -0.4
v 0.4 1.6 -0.5
v 0.4 1.7 -0.4
v 0.4 1.7 -0.5
v 0.5 1.7 -0.4
v 0.5 1.7 -0.5
v 0.5 1.8 -0.4
v 0.5 1.8 -0.5
v 0.5 1.9 -0.3
v 0.5 1.9 -0.4
v 0.5 1.9 -0.5
v 0.5 2 -0.3
v 0.5 2 -0.4
v 0.6 1.9 -0.4
v 0.6 1.9 -0.5
v 0.6 2 -0.4
v 0.6 2 -0.5
v 5.96046e-08 1.9 -0.2
v 5.96046e-08 1.9 -0.3
v 5.96046e-08 2 -0.2
v 5.96046e-08 2 -0.3
v 0.1 1.8 -0.2
v 0.1 1.8 -0.3
v 0.1 1.9 -0.2
v 0.1 1.9 -0.3
v 0.2 1.7 -0.2
v 0.2 1.7 -0.3
v 0.2 1.8 -0.2
v 0.2 1.8 -0.3
v 0.2 1.8 -0.4
v 0.2 1.9 -0.3
v 0.2 1.9 -0.4
v 0.2 2 -0.3
v 0.2 2 -0.4
v 0.3 1 -0.2
v 0.3 1 -0.3
v 0.3 1.1 -0.2
v 0.3 1.1 -0.3
v 0.3 1.6 -0.2
v 0.3 1.6 -0.3
v 0.3 1.7 -0.2
v 0.3 1.7 -0.3
v 0.4 1.1 -0.2
v 0.4 1.1 -0.3
v 0.4 1.3 -0.3
v 0.4 1.4 -0.3
v 0.4 1.5 -0.3
v 0.4 1.6 -0.2
v 0.4 1.6 -0.3
v 0.4 1.9 -0.3
v 0.4 1.9 -0.4
v 0.4 2 -0.3
v 0.4 2 -0.4
v 0.5 1 -0.3
v 0.5 1 -0.5
v 0.5 1.2 -0.3
v 0.5 1.2 -0.4
v 0.5 1.3 -0.4
v 0.5 1.3 -0.5
v 0.6 1.2 -0.3
v 0.6 1.2 -0.4
v 0.6 1.3 -0.3
v 0.6 1.3 -0.4
v 0.6 1.3 -0.5
v 0.6 1.4 -0.4
v 0.6 1.4 -0.5
v 0.6 1.8 -0.3
v 0.6 1.8 -0.4
v 0.6 2 -0.3
v 0.6 2 -0.4
v 0.7 1.3 -0.3
v 0.7 1.3 -0.4
v 0.7 1.4 -0.3
v 0.7 1.4 -0.4
v 0.7 1.4 -0.5
v 0.7 1.5 -0.3
v 0.7 1.5 -0.4
v 0.7 1.5 -0.5
v 0.7 1.6 -0.3
v 0.7 1.6 -0.4
v 0.7 1.7 -0.4
v 0.7 1.7 -0.5
v 0.7 1.9 -0.4
v 0.7 1.9 -0.5
v 0.7 2 -0.4
v 0.7 2 -0.5
v 0.8 1.4 -0.3
v 0.8 1.4 -0.4
v 0.8 1.5 -0.3
v 0.8 1.5 -0.4
v 0.8 1.6 -0.3
v 0.8 1.6 -0.4
v 0.8 1.7 -0.3
v 0.8 1.7 -0.4
v 0.8 1.7 -0.5
v 0.8 1.8 -0.3
v 0.8 1.8 -0.4
v 0.8 1.8 -0.5
v 0.8 1.9 -0.4
v 0.8 1.9 -0.5
v -0.2 1.3 -0.2
v -0.2 1.4 -0.2
v -0.2 1.5 -0.2
v -0.2 1.7 -0.2
v -0.2 1.8 -0.2
v -0.2 1.9 -0.2
v -0.0999999 1.6 -0.2
v -0.0999999 1.7 -0.2
v -0.0999999 1.8 -0.2
v -0.0999999 1.9 -0.2
v -0.0999999 2 -0.2
v 5.96046e-08 1.2 -0.2
v 5.96046e-08 1.3 -0.2
v 5.96046e-08 1.5 -0.2
v 5.96046e-08 1.6 -0.2
v 5.96046e-08 1.8 -0.2
v 5.96046e-08 1.9 -0.2
v 5.96046e-08 2 -0.2
v 0.1 1 -0.2
v 0.1 1.2 -0.2
v 0.1 1.3 -0.2
v 0.1 1.4 -0.2
v 0.1 1.6 -0.2
v 0.1 1.8 -0.2
v 0.1 1.9 -0.2
v 0.2 1 -0.2
v 0.2 1.3 -0.2
v 0.2 1.4 -0.2
v 0.2 1.5 -0.2
v 0.2 1.6 -0.2
v 0.2 1.7 -0.2
v 0.2 1.8 -0.2
v 0.3 1 -0.2
v 0.3 1.1 -0.2
v 0.3 1.3 -0.2
v 0.3 1.4 -0.2
v 0.3 1.5 -0.2
v 0.3 1.6 -0.2
v 0.3 1.7 -0.2
v 0.4 1.1 -0.2
v 0.4 1.6 -0.2
v 0.1 1.8 -0.3
v 0.1 1.9 -0.3
v 0.1 2 -0.3
v 0.2 1.7 -0.3
v 0.2 1.8 -0.3
v 0.2 1.9 -0.3
v 0.2 2 -0.3
v 0.3 1 -0.3
v 0.3 1.1 -0.3
v 0.3 1.6 -0.3
v 0.3 1.7 -0.3
v 0.3 1.8 -0.3
v 0.3 1.9 -0.3
v 0.3 2 -0.3
v 0.4 1 -0.3
v 0.4 1.1 -0.3
v 0.4 1.3 -0.3
v 0.4 1.4 -0.3
v 0.4 1.5 -0.3
v 0.4 1.6 -0.3
v 0.4 1.9 -0.3
v 0.4 2 -0.3
v 0.5 1 -0.3
v 0.5 1.2 -0.3
v 0.5 1.3 -0.3
v 0.5 1.4 -0.3
v 0.5 1.5 -0.3
v 0.5 1.6 -0.3
v 0.5 1.9 -0.3
v 0.5 2 -0.3
v 0.6 1.2 -0.3
v 0.6 1.3 -0.3
v 0.6 1.4 -0.3
v 0.6 1.5 -0.3
v 0.6 1.6 -0.3
v 0.6 1.8 -0.3
v 0.6 2 -0.3
v 0.7 1.3 -0.3
v 0.7 1.4 -0.3
v 0.7 1.5 -0.3
v 0.7 1.6 -0.3
v 0.7 1.7 -0.3
v 0.8 1.4 -0.3
v 0.8 1.5 -0.3
v 0.8 1.6 -0.3
v 0.8 1.7 -0.3
v 0.8 1.8 -0.3
v 0.6 1.8 -0.4
v 0.6 2 -0.4
v 0.7 1.8 -0.4
v 0.7 1.9 -0.4
v 0.7 2 -0.4
v 0.8 1.8 -0.4
v 0.8 1.9 -0.4
v -0.2 1.3 -0.3
v -0.2 1.4 -0.3
v -0.2 1.5 -0.3
v -0.2 1.7 -0.3
v -0.2 1.8 -0.3
v -0.2 1.9 -0.3
v -0.0999999 1.6 -0.3
v -0.0999999 1.7 -0.3
v -0.0999999 1.8 -0.3
v -0.0999999 1.9 -0.3
v -0.0999999 2 -0.3
v 5.96046e-08 1.2 -0.3
v 5.96046e-08 1.3 -0.3
v 5.96046e-08 1.4 -0.3
v 5.96046e-08 1.5 -0.3
v 5.96046e-08 1.6 -0.3
v 5.96046e-08 1.8 -0.3
v 5.96046e-08 1.9 -0.3
v 5.96046e-08 2 -0.3
v 0.1 1 -0.3
v 0.1 1.2 -0.3
v 0.1 1.3 -0.3
v 0.2 1 -0.3
v 0.2 1.2 -0.3
v -0.0999999 1.6 -0.4
v -0.0999999 1.7 -0.4
v -0.0999999 1.8 -0.4
v 5.96046e-08 1.3 -0.4
v 5.96046e-08 1.5 -0.4
v 5.96046e-08 1.6 -0.4
v 5.96046e-08 1.7 -0.4
v 5.96046e-08 1.8 -0.4
v 5.96046e-08 1.9 -0.4
v 0.1 1.2 -0.4
v 0.1 1.3 -0.4
v 0.1 1.4 -0.4
v 0.1 1.5 -0.4
v 0.1 1.6 -0.4
v 0.1 1.8 -0.4
v 0.1 1.9 -0.4
v 0.1 2 -0.4
v 0.2 1 -0.4
v 0.2 1.2 -0.4
v 0.2 1.3 -0.4
v 0.2 1.4 -0.4
v 0.2 1.5 -0.4
v 0.2 1.7 -0.4
v 0.2 1.8 -0.4
v 0.2 1.9 -0.4
v 0.2 2 -0.4
v 0.3 1 -0.4
v 0.3 1.3 -0.4
v 0.3 1.4 -0.4
v 0.3 1.5 -0.4
v 0.3 1.6 -0.4
v 0.3 1.7 -0.4
v 0.3 1.8 -0.4
v 0.3 1.9 -0.4
v 0.3 2 -0.4
v 0.4 1.5 -0.4
v 0.4 1.6 -0.4
v 0.4 1.7 -0.4
v 0.4 1.9 -0.4
v 0.4 2 -0.4
v 0.5 1.2 -0.4
v 0.5 1.3 -0.4
v 0.5 1.7 -0.4
v 0.5 1.8 -0.4
v 0.5 1.9 -0.4
v 0.5 2 -0.4
v 0.6 1.2 -0.4
v 0.6 1.3 -0.4
v 0.6 1.4 -0.4
v 0.6 1.9 -0.4
v 0.6 2 -0.4
v 0.7 1.3 -0.4
v 0.7 1.4 -0.4
v 0.7 1.5 -0.4
v 0.7 1.6 -0.4
v 0.7 1.7 -0.4
v 0.8 1.4 -0.4
v 0.8 1.5 -0.4
v 0.8 1.6 -0.4
v 0.8 1.7 -0.4
v 0.3 1 -0.5
v 0.3 1.3 -0.5
v 0.3 1.5 -0.5
v 0.4 1 -0.5
v 0.4 1.3 -0.5
v 0.4 1.4 -0.5
v 0.4 1.5 -0.5
v 0.4 1.6 -0.5
v 0.4 1.7 -0.5
v 0.5 1 -0.5
v 0.5 1.3 -0.5
v 0.5 1.4 -0.5
v 0.5 1.5 -0.5
v 0.5 1.6 -0.5
v 0.5 1.7 -0.5
v 0.5 1.8 -0.5
v 0.5 1.9 -0.5
v 0.6 1.3 -0.5
v 0.6 1.4 -0.5
v 0.6 1.5 -0.5
v 0.6 1.8 -0.5
v 0.6 1.9 -0.5
v 0.6 2 -0.5
v 0.7 1.4 -0.5
v 0.7 1.5 -0.5
v 0.7 1.7 -0.5
v 0.7 1.8 -0.5
v 0.7 1.9 -0.5
v 0.7 2 -0.5
v 0.8 1.7 -0.5
v 0.8 1.8 -0.5
v 0.8 1.9 -0.5
v 0.1 1 -0.2
v 0.2 1 -0.2
v 0.3 1 -0.2
v 0.1 1 -0.3
v 0.2 1 -0.3
v 0.3 1 -0.3
v 0.4 1 -0.3
v 0.5 1 -0.3
v 0.2 1 -0.4
v 0.3 1 -0.4
v 0.3 1 -0.5
v 0.4 1 -0.5
v 0.5 1 -0.5
v 0.3 1.1 -0.2
v 0.4 1.1 -0.2
v 0.3 1.1 -0.3
v 0.4 1.1 -0.3
v 5.96046e-08 1.2 -0.2
v 0.1 1.2 -0.2
v 5.96046e-08 1.2 -0.3
v 0.1 1.2 -0.3
v 0.2 1.2 -0.3
v 0.5 1.2 -0.3
v 0.6 1.2 -0.3
v 0.1 1.2 -0.4
v 0.2 1.2 -0.4
v 0.5 1.2 -0.4
v 0.6 1.2 -0.4
v -0.2 1.3 -0.2
v 5.96046e-08 1.3 -0.2
v -0.2 1.3 -0.3
v 5.96046e-08 1.3 -0.3
v 0.1 1.3 -0.3
v 0.6 1.3 -0.3
v 0.7 1.3 -0.3
v 5.96046e-08 1.3 -0.4
v 0.1 1.3 -0.4
v 0.5 1.3 -0.4
v 0.6 1.3 -0.4
v 0.7 1.3 -0.4
v 0.5 1.3 -0.5
v 0.6 1.3 -0.5
v 0.7 1.4 -0.3
v 0.8 1.4 -0.3
v 0.6 1.4 -0.4
v 0.7 1.4 -0.4
v 0.8 1.4 -0.4
v 0.6 1.4 -0.5
v 0.7 1.4 -0.5
v -0.0999999 1.6 -0.3
v 5.96046e-08 1.6 -0.3
v 0.7 1.6 -0.3
v 0.8 1.6 -0.3
v -0.0999999 1.6 -0.4
v 5.96046e-08 1.6 -0.4
v 0.7 1.6 -0.4
v 0.8 1.6 -0.4
v 0.7 1.7 -0.4
v 0.8 1.7 -0.4
v 0.7 1.7 -0.5
v 0.8 1.7 -0.5
v -0.2 1.8 -0.2
v -0.0999999 1.8 -0.2
v -0.2 1.8 -0.3
v -0.0999999 1.8 -0.3
v 0.7 1.5 -0.3
v 0.8 1.5 -0.3
v 0.3 1.5 -0.4
v 0.4 1.5 -0.4
v 0.7 1.5 -0.4
v 0.8 1.5 -0.4
v 0.3 1.5 -0.5
v 0.4 1.5 -0.5
v 0.3 1.6 -0.2
v 0.4 1.6 -0.2
v 0.3 1.6 -0.3
v 0.4 1.6 -0.3
v -0.2 1.7 -0.2
v -0.0999999 1.7 -0.2
v 0.2 1.7 -0.2
v 0.3 1.7 -0.2
v -0.2 1.7 -0.3
v -0.0999999 1.7 -0.3
v 0.2 1.7 -0.3
v 0.3 1.7 -0.3
v 0.4 1.7 -0.4
v 0.5 1.7 -0.4
v 0.4 1.7 -0.5
v 0.5 1.7 -0.5
v 0.1 1.8 -0.2
v 0.2 1.8 -0.2
v -0.0999999 1.8 -0.3
v 5.96046e-08 1.8 -0.3
v 0.1 1.8 -0.3
v 0.2 1.8 -0.3
v 0.3 1.8 -0.3
v 0.6 1.8 -0.3
v 0.8 1.8 -0.3
v -0.0999999 1.8 -0.4
v 5.96046e-08 1.8 -0.4
v 0.2 1.8 -0.4
v 0.3 1.8 -0.4
v 0.6 1.8 -0.4
v 0.7 1.8 -0.4
v 0.8 1.8 -0.4
v -0.2 1.9 -0.2
v -0.0999999 1.9 -0.2
v 5.96046e-08 1.9 -0.2
v 0.1 1.9 -0.2
v -0.2 1.9 -0.3
v -0.0999999 1.9 -0.3
v 5.96046e-08 1.9 -0.3
v 0.1 1.9 -0.3
v 0.4 1.9 -0.3
v 0.5 1.9 -0.3
v 5.96046e-08 1.9 -0.4
v 0.1 1.9 -0.4
v 0.4 1.9 -0.4
v 0.5 1.9 -0.4
v 0.6 1.9 -0.4
v 0.7 1.9 -0.4
v 0.8 1.9 -0.4
v 0.5 1.9 -0.5
v 0.6 1.9 -0.5
v 0.7 1.9 -0.5
v 0.8 1.9 -0.5
v -0.0999999 2 -0.2
v 5.96046e-08 2 -0.2
v -0.0999999 2 -0.3
v 5.96046e-08 2 -0.3
v 0.1 2 -0.3
v 0.2 2 -0.3
v 0.3 2 -0.3
v 0.4 2 -0.3
v 0.5 2 -0.3
v 0.6 2 -0.3
v 0.1 2 -0.4
v 0.2 2 -0.4
v 0.3 2 -0.4
v 0.4 2 -0.4
v 0.5 2 -0.4
v 0.6 2 -0.4
v 0.7 2 -0.4
v 0.6 2 -0.5
v 0.7 2 -0.5

# faces
f 3/2/1 2/2/1 1/2/1
f 4/2/1 2/2/1 3/2/1
f 5/1/1 4/1/1 3/1/1
f 6/1/1 4/1/1 5/1/1
f 7/2/1 6/2/1 5/2/1
f 8/2/1 6/2/1 7/2/1
f 11/1/1 10/1/1 9/1/1
f 12/1/1 10/1/1 11/1/1
f 16/1/1 14/1/1 13/1/1
f 17/1/1 14/1/1 16/1/1
f 18/1/1 16/1/1 15/1/1
f 19/2/1 17/2/1 16/2/1
f 19/1/1 16/1/1 18/1/1
f 20/2/1 17/2/1 19/2/1
f 23/2/1 22/2/1 21/2/1
f 24/2/1 22/2/1 23/2/1
f 27/2/1 26/2/1 25/2/1
f 28/2/1 26/2/1 27/2/1
f 30/2/1 29/2/1 28/2/1
f 31/2/1 29/2/1 30/2/1
f 32/2/1 29/2/1 31/2/1
f 33/1/1 32/1/1 31/1/1
f 34/1/1 32/1/1 33/1/1
f 37/2/1 36/2/1 35/2/1
f 38/2/1 36/2/1 37/2/1
f 41/2/1 40/2/1 39/2/1
f 42/2/1 40/2/1 41/2/1
f 44/2/1 43/2/1 42/2/1
f 45/2/1 43/2/1 44/2/1
f 48/2/1 47/2/1 46/2/1
f 49/2/1 47/2/1 48/2/1
f 52/2/1 51/2/1 50/2/1
f 53/2/1 51/2/1 52/2/1
f 56/1/1 55/1/1 54/1/1
f 57/1/1 55/1/1 56/1/1
f 58/2/1 57/2/1 56/2/1
f 59/2/1 57/2/1 58/2/1
f 60/2/1 57/2/1 59/2/1
f 63/1/1 62/1/1 61/1/1
f 64/1/1 62/1/1 63/1/1
f 65/2/1 64/2/1 63/2/1
f 66/2/1 64/2/1 65/2/1
f 69/1/1 68/1/1 67/1/1
f 70/1/1 68/1/1 69/1/1
f 71/2/1 70/2/1 69/2/1
f 72/2/1 70/2/1 71/2/1
f 75/2/1 74/2/1 73/2/1
f 76/2/1 74/2/1 75/2/1
f 78/1/1 76/1/1 75/1/1
f 79/1/1 76/1/1 78/1/1
f 80/2/1 78/2/1 77/2/1
f 81/2/1 78/2/1 80/2/1
f 84/2/1 83/2/1 82/2/1
f 85/2/1 83/2/1 84/2/1
f 86/2/2 87/2/2 88/2/2
f 88/2/2 87/2/2 89/2/2
f 90/2/2 91/2/2 92/2/2
f 92/2/2 91/2/2 93/2/2
f 94/1/2 95/1/2 96/1/2
f 96/1/2 95/1/2 97/1/2
f 97/1/2 98/1/2 99/1/2
f 99/1/2 98/1/2 100/1/2
f 99/2/2 100/2/2 101/2/2
f 101/2/2 100/2/2 102/2/2
f 103/1/2 104/1/2 105/1/2
f 105/1/2 104/1/2 106/1/2
f 107/2/2 108/2/2 109/2/2
f 109/2/2 108/2/2 110/2/2
f 111/2/2 112/2/2 113/2/2
f 111/2/2 113/2/2 114/2/2
f 111/2/2 114/2/2 115/2/2
f 111/2/2 115/2/2 116/2/2
f 116/2/2 115/2/2 117/2/2
f 118/2/2 119/2/2 120/2/2
f 120/2/2 119/2/2 121/2/2
f 122/2/2 123/2/2 124/2/2
f 124/2/2 123/2/2 125/2/2
f 125/2/2 123/2/2 126/2/2
f 126/2/2 123/2/2 127/2/2
f 128/2/2 129/2/2 130/2/2
f 130/2/2 129/2/2 131/2/2
f 131/2/2 132/2/2 133/2/2
f 133/2/2 132/2/2 134/2/2
f 135/2/2 136/2/2 137/2/2
f 137/2/2 136/2/2 138/2/2
f 139/2/2 140/2/2 141/2/2
f 141/2/2 140/2/2 142/2/2
f 142/2/2 143/2/2 145/2/2
f 145/2/2 143/2/2 146/2/2
f 144/1/2 145/1/2 147/1/2
f 145/1/2 146/1/2 147/1/2
f 147/1/2 146/1/2 148/1/2
f 148/1/2 146/1/2 149/1/2
f 149/1/2 146/1/2 150/1/2
f 151/2/2 152/2/2 153/2/2
f 153/2/2 152/2/2 154/2/2
f 155/2/2 156/2/2 157/2/2
f 157/2/2 156/2/2 158/2/2
f 159/1/2 160/1/2 161/1/2
f 161/1/2 160/1/2 162/1/2
f 161/2/2 162/2/2 164/2/2
f 162/2/2 163/2/2 164/2/2
f 164/2/2 163/2/2 165/2/2
f 165/2/2 163/2/2 166/2/2
f 165/1/2 166/1/2 167/1/2
f 167/1/2 166/1/2 168/1/2
f 175/2/3 172/2/3 171/2/3
f 176/2/3 172/2/3 175/2/3
f 177/1/3 174/1/3 173/1/3
f 178/1/3 174/1/3 177/1/3
f 181/2/3 170/2/3 169/2/3
f 182/1/3 171/1/3 170/1/3
f 182/2/3 175/2/3 171/2/3
f 183/1/3 176/1/3 175/1/3
f 183/2/3 175/2/3 182/2/3
f 183/1/3 177/1/3 176/1/3
f 184/2/3 179/2/3 178/2/3
f 184/1/3 177/1/3 183/1/3
f 184/2/3 178/2/3 177/2/3
f 185/2/3 179/2/3 184/2/3
f 186/2/3 179/2/3 185/2/3
f 188/2/3 181/2/3 180/2/3
f 189/2/3 170/2/3 181/2/3
f 189/2/3 181/2/3 188/2/3
f 190/1/3 183/1/3 182/1/3
f 190/2/3 170/2/3 189/2/3
f 190/1/3 182/1/3 170/1/3
f 191/2/3 184/2/3 183/2/3
f 191/1/3 183/1/3 190/1/3
f 191/2/3 185/2/3 184/2/3
f 192/2/3 185/2/3 191/2/3
f 193/2/3 185/2/3 192/2/3
f 194/2/3 189/2/3 188/2/3
f 194/2/3 188/2/3 187/2/3
f 195/1/3 190/1/3 189/1/3
f 195/2/3 189/2/3 194/2/3
f 196/2/3 191/2/3 190/2/3
f 196/1/3 190/1/3 195/1/3
f 197/2/3 191/2/3 196/2/3
f 198/1/3 192/1/3 191/1/3
f 198/2/3 191/2/3 197/2/3
f 199/1/3 192/1/3 198/1/3
f 200/1/3 192/1/3 199/1/3
f 201/1/3 195/1/3 194/1/3
f 202/1/3 195/1/3 201/1/3
f 203/2/3 196/2/3 195/2/3
f 203/1/3 195/1/3 202/1/3
f 204/1/3 197/1/3 196/1/3
f 204/2/3 196/2/3 203/2/3
f 205/2/3 198/2/3 197/2/3
f 205/1/3 197/1/3 204/1/3
f 205/2/3 199/2/3 198/2/3
f 206/2/3 199/2/3 205/2/3
f 207/2/3 199/2/3 206/2/3
f 208/2/3 203/2/3 202/2/3
f 208/2/3 206/2/3 205/2/3
f 208/2/3 205/2/3 204/2/3
f 208/2/3 204/2/3 203/2/3
f 209/2/3 206/2/3 208/2/3
f 214/1/3 211/1/3 210/1/3
f 215/2/3 212/2/3 211/2/3
f 215/1/3 211/1/3 214/1/3
f 216/2/3 212/2/3 215/2/3
f 220/1/3 214/1/3 213/1/3
f 221/1/3 214/1/3 220/1/3
f 224/1/3 218/1/3 217/1/3
f 225/1/3 218/1/3 224/1/3
f 229/1/3 220/1/3 219/1/3
f 229/1/3 221/1/3 220/1/3
f 229/1/3 222/1/3 221/1/3
f 230/2/3 223/2/3 222/2/3
f 230/1/3 222/1/3 229/1/3
f 231/2/3 223/2/3 230/2/3
f 232/2/3 226/2/3 225/2/3
f 232/2/3 225/2/3 224/2/3
f 233/2/3 226/2/3 232/2/3
f 234/1/3 227/1/3 226/1/3
f 234/2/3 226/2/3 233/2/3
f 235/2/3 228/2/3 227/2/3
f 235/1/3 227/1/3 234/1/3
f 236/1/3 229/1/3 228/1/3
f 236/2/3 228/2/3 235/2/3
f 237/2/3 230/2/3 229/2/3
f 237/1/3 229/1/3 236/1/3
f 238/2/3 230/2/3 237/2/3
f 240/2/3 235/2/3 234/2/3
f 240/2/3 234/2/3 233/2/3
f 241/2/3 235/2/3 240/2/3
f 242/1/3 236/1/3 235/1/3
f 242/2/3 235/2/3 241/2/3
f 243/2/3 239/2/3 238/2/3
f 243/1/3 236/1/3 242/1/3
f 243/2/3 238/2/3 237/2/3
f 243/2/3 237/2/3 236/2/3
f 244/2/3 239/2/3 243/2/3
f 245/2/3 239/2/3 244/2/3
f 246/2/3 239/2/3 245/2/3
f 247/2/3 242/2/3 241/2/3
f 247/2/3 243/2/3 242/2/3
f 248/2/3 243/2/3 247/2/3
f 249/1/3 244/1/3 243/1/3
f 249/2/3 243/2/3 248/2/3
f 250/2/3 245/2/3 244/2/3
f 250/1/3 244/1/3 249/1/3
f 251/2/3 245/2/3 250/2/3
f 252/2/3 249/2/3 248/2/3
f 253/2/3 249/2/3 252/2/3
f 254/1/3 251/1/3 250/1/3
f 255/2/3 245/2/3 251/2/3
f 255/1/3 251/1/3 254/1/3
f 256/2/3 245/2/3 255/2/3
f 259/2/3 258/2/3 257/2/3
f 260/2/3 258/2/3 259/2/3
f 261/2/3 258/2/3 260/2/3
f 262/1/3 260/1/3 259/1/3
f 263/1/3 260/1/3 262/1/3
f 266/2/4 267/2/4 270/2/4
f 270/2/4 267/2/4 271/2/4
f 268/1/4 269/1/4 272/1/4
f 272/1/4 269/1/4 273/1/4
f 264/2/4 265/2/4 276/2/4
f 265/1/4 266/1/4 277/1/4
f 276/2/4 265/2/4 277/2/4
f 266/2/4 270/2/4 278/2/4
f 277/1/4 266/1/4 278/1/4
f 278/2/4 270/2/4 279/2/4
f 272/2/4 273/2/4 280/2/4
f 273/2/4 274/2/4 280/2/4
f 280/2/4 274/2/4 281/2/4
f 281/2/4 274/2/4 282/2/4
f 275/2/4 276/2/4 284/2/4
f 284/2/4 276/2/4 285/2/4
f 283/2/4 284/2/4 286/2/4
f 286/2/4 284/2/4 287/2/4
f 288/1/4 289/1/4 293/1/4
f 289/2/4 290/2/4 294/2/4
f 293/1/4 289/1/4 294/1/4
f 294/2/4 290/2/4 295/2/4
f 291/2/4 292/2/4 298/2/4
f 298/2/4 292/2/4 299/2/4
f 292/1/4 293/1/4 300/1/4
f 299/2/4 292/2/4 300/2/4
f 295/2/4 296/2/4 301/2/4
f 300/1/4 293/1/4 301/1/4
f 293/2/4 294/2/4 301/2/4
f 294/2/4 295/2/4 301/2/4
f 301/2/4 296/2/4 302/2/4
f 302/2/4 296/2/4 303/2/4
f 298/2/4 299/2/4 306/2/4
f 297/2/4 298/2/4 306/2/4
f 306/2/4 299/2/4 307/2/4
f 299/1/4 300/1/4 308/1/4
f 307/2/4 299/2/4 308/2/4
f 300/2/4 301/2/4 309/2/4
f 308/1/4 300/1/4 309/1/4
f 301/2/4 302/2/4 309/2/4
f 309/2/4 302/2/4 310/2/4
f 302/1/4 303/1/4 311/1/4
f 310/2/4 302/2/4 311/2/4
f 303/2/4 304/2/4 312/2/4
f 311/1/4 303/1/4 312/1/4
f 312/2/4 304/2/4 313/2/4
f 306/2/4 307/2/4 314/2/4
f 305/2/4 306/2/4 314/2/4
f 307/1/4 308/1/4 315/1/4
f 314/2/4 307/2/4 315/2/4
f 309/2/4 310/2/4 316/2/4
f 315/1/4 308/1/4 316/1/4
f 308/2/4 309/2/4 316/2/4
f 316/2/4 310/2/4 317/2/4
f 317/2/4 310/2/4 318/2/4
f 310/1/4 311/1/4 319/1/4
f 318/2/4 310/2/4 319/2/4
f 319/1/4 311/1/4 320/1/4
f 317/2/4 318/2/4 323/2/4
f 320/1/4 321/1/4 324/1/4
f 323/2/4 318/2/4 324/2/4
f 319/1/4 320/1/4 324/1/4
f 318/1/4 319/1/4 324/1/4
f 324/1/4 321/1/4 325/1/4
f 321/2/4 322/2/4 326/2/4
f 325/1/4 321/1/4 326/1/4
f 326/2/4 322/2/4 327/2/4
f 325/2/4 326/2/4 330/2/4
f 330/2/4 326/2/4 331/2/4
f 331/2/4 326/2/4 332/2/4
f 328/2/4 329/2/4 334/2/4
f 334/2/4 329/2/4 335/2/4
f 332/2/4 333/2/4 337/2/4
f 337/2/4 333/2/4 338/2/4
f 335/2/4 336/2/4 339/2/4
f 339/2/4 336/2/4 340/2/4
f 340/2/4 341/2/4 344/2/4
f 344/2/4 341/2/4 345/2/4
f 342/1/4 343/1/4 346/1/4
f 346/1/4 343/1/4 347/1/4
f 348/1/4 349/1/4 351/1/4
f 349/2/4 350/2/4 352/2/4
f 351/1/4 349/1/4 352/1/4
f 352/2/4 350/2/4 353/2/4
f 353/2/4 350/2/4 354/2/4
f 351/2/4 352/2/4 357/2/4
f 352/1/4 353/1/4 358/1/4
f 357/2/4 352/2/4 358/2/4
f 353/2/4 354/2/4 359/2/4
f 358/1/4 353/1/4 359/1/4
f 354/1/4 355/1/4 360/1/4
f 359/2/4 354/2/4 360/2/4
f 355/2/4 356/2/4 361/2/4
f 360/1/4 355/1/4 361/1/4
f 361/2/4 356/2/4 362/2/4
f 358/2/4 359/2/4 365/2/4
f 359/1/4 360/1/4 366/1/4
f 365/2/4 359/2/4 366/2/4
f 362/2/4 363/2/4 367/2/4
f 366/1/4 360/1/4 367/1/4
f 360/2/4 361/2/4 367/2/4
f 361/2/4 362/2/4 367/2/4
f 363/1/4 364/1/4 368/1/4
f 367/2/4 363/2/4 368/2/4
f 368/1/4 364/1/4 369/1/4
f 366/2/4 367/2/4 371/2/4
f 367/1/4 368/1/4 372/1/4
f 371/2/4 367/2/4 372/2/4
f 372/1/4 368/1/4 373/1/4
f 369/2/4 370/2/4 374/2/4
f 373/1/4 368/1/4 374/1/4
f 368/2/4 369/2/4 374/2/4
f 374/2/4 370/2/4 375/2/4
f 375/2/4 370/2/4 376/2/4
f 373/2/4 374/2/4 377/2/4
f 374/1/4 375/1/4 378/1/4
f 377/2/4 374/2/4 378/2/4
f 378/1/4 375/1/4 379/1/4
f 383/2/5 381/2/5 380/2/5
f 384/1/5 382/1/5 381/1/5
f 384/2/5 381/2/5 383/2/5
f 385/1/5 382/1/5 384/1/5
f 388/2/5 385/2/5 384/2/5
f 389/1/5 386/1/5 385/1/5
f 389/2/5 385/2/5 388/2/5
f 390/1/5 386/1/5 389/1/5
f 391/2/5 387/2/5 386/2/5
f 391/1/5 386/1/5 390/1/5
f 392/2/5 387/2/5 391/2/5
f 395/2/5 394/2/5 393/2/5
f 396/2/5 394/2/5 395/2/5
f 399/2/5 398/2/5 397/2/5
f 400/2/5 398/2/5 399/2/5
f 404/2/5 401/2/5 400/2/5
f 405/2/5 401/2/5 404/2/5
f 406/2/5 403/2/5 402/2/5
f 407/2/5 403/2/5 406/2/5
f 410/2/5 409/2/5 408/2/5
f 411/2/5 409/2/5 410/2/5
f 415/2/5 412/2/5 411/2/5
f 416/2/5 412/2/5 415/2/5
f 418/2/5 414/2/5 413/2/5
f 419/2/5 414/2/5 418/2/5
f 420/2/5 418/2/5 417/2/5
f 421/2/5 418/2/5 420/2/5
f 425/2/5 423/2/5 422/2/5
f 426/2/5 423/2/5 425/2/5
f 427/2/5 425/2/5 424/2/5
f 428/2/5 425/2/5 427/2/5
f 433/1/5 430/1/5 429/1/5
f 434/1/5 430/1/5 433/1/5
f 435/1/5 432/1/5 431/1/5
f 436/1/5 432/1/5 435/1/5
f 439/2/5 438/2/5 437/2/5
f 440/2/5 438/2/5 439/2/5
f 443/1/5 442/1/5 441/1/5
f 444/1/5 442/1/5 443/1/5
f 445/2/6 446/2/6 449/2/6
f 449/2/6 446/2/6 450/2/6
f 447/2/6 448/2/6 451/2/6
f 451/2/6 448/2/6 452/2/6
f 453/2/6 454/2/6 455/2/6
f 455/2/6 454/2/6 456/2/6
f 457/2/6 458/2/6 461/2/6
f 461/2/6 458/2/6 462/2/6
f 459/2/6 460/2/6 463/2/6
f 463/2/6 460/2/6 464/2/6
f 465/2/6 466/2/6 467/2/6
f 467/2/6 466/2/6 468/2/6
f 469/1/6 470/1/6 473/1/6
f 473/1/6 470/1/6 474/1/6
f 471/2/6 472/2/6 478/2/6
f 478/2/6 472/2/6 479/2/6
f 474/1/6 475/1/6 480/1/6
f 480/1/6 475/1/6 481/1/6
f 476/2/6 477/2/6 482/2/6
f 482/2/6 477/2/6 483/2/6
f 483/2/6 477/2/6 484/2/6
f 485/1/6 486/1/6 489/1/6
f 489/1/6 486/1/6 490/1/6
f 487/2/6 488/2/6 491/2/6
f 491/2/6 488/2/6 492/2/6
f 491/2/6 492/2/6 495/2/6
f 495/2/6 492/2/6 496/2/6
f 493/2/6 494/2/6 497/2/6
f 497/2/6 494/2/6 498/2/6
f 498/1/6 499/1/6 502/1/6
f 502/1/6 499/1/6 503/1/6
f 500/1/6 501/1/6 504/1/6
f 504/1/6 501/1/6 505/1/6
f 506/2/6 507/2/6 508/2/6
f 508/2/6 507/2/6 509/2/6
f 510/2/6 511/2/6 516/2/6
f 516/2/6 511/2/6 517/2/6
f 512/2/6 513/2/6 518/2/6
f 518/2/6 513/2/6 519/2/6
f 514/2/6 515/2/6 520/2/6
f 520/2/6 515/2/6 521/2/6
f 521/2/6 522/2/6 523/2/6
f 523/2/6 522/2/6 524/2/6
