# MagicaVoxel @ Ephtracy

# group
o 

# material
mtllib tomate_cocido.mtl
usemtl palette

# normals
vn -1 0 0
vn 1 0 0
vn 0 0 1
vn 0 0 -1
vn 0 -1 0
vn 0 1 0

# texcoords
vt 0.908203 0.5
vt 0.939453 0.5
vt 0.970703 0.5
vt 0.974609 0.5

# verts
v -0.5 0 0.4
v -0.5 0 0.3
v -0.5 0 0
v -0.5 0 -0.2
v -0.5 0 -0.3
v -0.5 0 -0.4
v -0.5 0.1 0.4
v -0.5 0.1 0.3
v -0.5 0.1 0
v -0.5 0.1 -0.2
v -0.5 0.1 -0.3
v -0.5 0.1 -0.4
v -0.4 0 0.5
v -0.4 0 0.4
v -0.4 0 -0.4
v -0.4 0 -0.5
v -0.4 0.1 0.5
v -0.4 0.1 0.4
v -0.4 0.1 -0.4
v -0.4 0.1 -0.5
v -0.3 0 0.6
v -0.3 0 0.5
v -0.3 0 -0.5
v -0.3 0 -0.6
v -0.3 0.1 0.6
v -0.3 0.1 0.5
v -0.3 0.1 -0.5
v -0.3 0.1 -0.6
v 0.5 0 0.6
v 0.5 0 0.5
v 0.5 0 -0.5
v 0.5 0 -0.6
v 0.5 0.1 0.6
v 0.5 0.1 0.5
v 0.5 0.1 -0.5
v 0.5 0.1 -0.6
v 0.6 0 0.5
v 0.6 0 0.4
v 0.6 0 -0.4
v 0.6 0 -0.5
v 0.6 0.1 0.5
v 0.6 0.1 0.4
v 0.6 0.1 -0.4
v 0.6 0.1 -0.5
v 0.7 0 0.4
v 0.7 0 0.2
v 0.7 0 0
v 0.7 0 -0.2
v 0.7 0 -0.4
v 0.7 0.1 0.4
v 0.7 0.1 0.2
v 0.7 0.1 0
v 0.7 0.1 -0.2
v 0.7 0.1 -0.4
v -0.3 0 0.6
v -0.3 0.1 0.6
v -0.2 0 0.6
v -0.2 0.1 0.6
v -0.1 0 0.6
v -0.1 0.1 0.6
v 0.3 0 0.6
v 0.3 0.1 0.6
v 0.5 0 0.6
v 0.5 0.1 0.6
v -0.4 0 0.5
v -0.4 0.1 0.5
v -0.3 0 0.5
v -0.3 0.1 0.5
v 0.5 0 0.5
v 0.5 0.1 0.5
v 0.6 0 0.5
v 0.6 0.1 0.5
v -0.5 0 0.4
v -0.5 0.1 0.4
v -0.4 0 0.4
v -0.4 0.1 0.4
v 0.6 0 0.4
v 0.6 0.1 0.4
v 0.7 0 0.4
v 0.7 0.1 0.4
v -0.5 0 -0.4
v -0.5 0.1 -0.4
v -0.4 0 -0.4
v -0.4 0.1 -0.4
v 0.6 0 -0.4
v 0.6 0.1 -0.4
v 0.7 0 -0.4
v 0.7 0.1 -0.4
v -0.4 0 -0.5
v -0.4 0.1 -0.5
v -0.3 0 -0.5
v -0.3 0.1 -0.5
v 0.5 0 -0.5
v 0.5 0.1 -0.5
v 0.6 0 -0.5
v 0.6 0.1 -0.5
v -0.3 0 -0.6
v -0.3 0.1 -0.6
v -0.1 0 -0.6
v -0.1 0.1 -0.6
v 0.1 0 -0.6
v 0.1 0.1 -0.6
v 0.3 0 -0.6
v 0.3 0.1 -0.6
v 0.5 0 -0.6
v 0.5 0.1 -0.6
v -0.3 0 0.6
v -0.2 0 0.6
v -0.1 0 0.6
v 0.3 0 0.6
v 0.5 0 0.6
v -0.4 0 0.5
v -0.3 0 0.5
v -0.2 0 0.5
v -0.1 0 0.5
v 0.3 0 0.5
v 0.5 0 0.5
v 0.6 0 0.5
v -0.5 0 0.4
v -0.4 0 0.4
v -0.3 0 0.4
v -0.2 0 0.4
v 5.96046e-08 0 0.4
v 0.2 0 0.4
v 0.4 0 0.4
v 0.5 0 0.4
v 0.6 0 0.4
v 0.7 0 0.4
v -0.5 0 0.3
v -0.4 0 0.3
v -0.3 0 0.3
v -0.2 0 0.3
v 5.96046e-08 0 0.3
v 0.2 0 0.3
v 0.4 0 0.3
v 0.5 0 0.3
v -0.3 0 0.2
v -0.2 0 0.2
v 5.96046e-08 0 0.2
v 0.2 0 0.2
v 0.4 0 0.2
v 0.5 0 0.2
v 0.6 0 0.2
v 0.7 0 0.2
v -0.2 0 0.1
v -0.1 0 0.1
v 0.3 0 0.1
v 0.4 0 0.1
v -0.5 0 0
v -0.4 0 0
v -0.3 0 0
v -0.2 0 0
v 0.4 0 0
v 0.5 0 0
v 0.6 0 0
v 0.7 0 0
v -0.3 0 -0.1
v -0.2 0 -0.1
v -0.1 0 -0.1
v 0.3 0 -0.1
v 0.4 0 -0.1
v 0.5 0 -0.1
v -0.5 0 -0.2
v -0.4 0 -0.2
v -0.2 0 -0.2
v -0.1 0 -0.2
v 5.96046e-08 0 -0.2
v 0.2 0 -0.2
v 0.3 0 -0.2
v 0.4 0 -0.2
v 0.6 0 -0.2
v 0.7 0 -0.2
v -0.5 0 -0.3
v -0.4 0 -0.3
v -0.3 0 -0.3
v -0.2 0 -0.3
v -0.1 0 -0.3
v 5.96046e-08 0 -0.3
v 0.2 0 -0.3
v 0.3 0 -0.3
v 0.4 0 -0.3
v 0.5 0 -0.3
v -0.5 0 -0.4
v -0.4 0 -0.4
v -0.3 0 -0.4
v -0.2 0 -0.4
v 5.96046e-08 0 -0.4
v 0.2 0 -0.4
v 0.4 0 -0.4
v 0.5 0 -0.4
v 0.6 0 -0.4
v 0.7 0 -0.4
v -0.4 0 -0.5
v -0.3 0 -0.5
v -0.1 0 -0.5
v 0.1 0 -0.5
v 0.3 0 -0.5
v 0.5 0 -0.5
v 0.6 0 -0.5
v -0.3 0 -0.6
v -0.1 0 -0.6
v 0.1 0 -0.6
v 0.3 0 -0.6
v 0.5 0 -0.6
v -0.3 0.1 0.6
v -0.2 0.1 0.6
v -0.1 0.1 0.6
v 0.3 0.1 0.6
v 0.5 0.1 0.6
v -0.4 0.1 0.5
v -0.3 0.1 0.5
v -0.2 0.1 0.5
v -0.1 0.1 0.5
v 0.3 0.1 0.5
v 0.5 0.1 0.5
v 0.6 0.1 0.5
v -0.5 0.1 0.4
v -0.4 0.1 0.4
v -0.3 0.1 0.4
v -0.2 0.1 0.4
v 5.96046e-08 0.1 0.4
v 0.2 0.1 0.4
v 0.4 0.1 0.4
v 0.5 0.1 0.4
v 0.6 0.1 0.4
v 0.7 0.1 0.4
v -0.5 0.1 0.3
v -0.4 0.1 0.3
v -0.3 0.1 0.3
v -0.2 0.1 0.3
v 5.96046e-08 0.1 0.3
v 0.2 0.1 0.3
v 0.4 0.1 0.3
v 0.5 0.1 0.3
v -0.3 0.1 0.2
v -0.2 0.1 0.2
v 5.96046e-08 0.1 0.2
v 0.2 0.1 0.2
v 0.4 0.1 0.2
v 0.5 0.1 0.2
v 0.6 0.1 0.2
v 0.7 0.1 0.2
v -0.2 0.1 0.1
v -0.1 0.1 0.1
v 0.3 0.1 0.1
v 0.4 0.1 0.1
v -0.5 0.1 0
v -0.4 0.1 0
v -0.3 0.1 0
v -0.2 0.1 0
v 0.4 0.1 0
v 0.5 0.1 0
v 0.6 0.1 0
v 0.7 0.1 0
v -0.3 0.1 -0.1
v -0.2 0.1 -0.1
v -0.1 0.1 -0.1
v 0.3 0.1 -0.1
v 0.4 0.1 -0.1
v 0.5 0.1 -0.1
v -0.5 0.1 -0.2
v -0.4 0.1 -0.2
v -0.2 0.1 -0.2
v -0.1 0.1 -0.2
v 5.96046e-08 0.1 -0.2
v 0.2 0.1 -0.2
v 0.3 0.1 -0.2
v 0.4 0.1 -0.2
v 0.6 0.1 -0.2
v 0.7 0.1 -0.2
v -0.5 0.1 -0.3
v -0.4 0.1 -0.3
v -0.3 0.1 -0.3
v -0.2 0.1 -0.3
v -0.1 0.1 -0.3
v 5.96046e-08 0.1 -0.3
v 0.2 0.1 -0.3
v 0.3 0.1 -0.3
v 0.4 0.1 -0.3
v 0.5 0.1 -0.3
v -0.5 0.1 -0.4
v -0.4 0.1 -0.4
v -0.3 0.1 -0.4
v -0.2 0.1 -0.4
v 5.96046e-08 0.1 -0.4
v 0.2 0.1 -0.4
v 0.4 0.1 -0.4
v 0.5 0.1 -0.4
v 0.6 0.1 -0.4
v 0.7 0.1 -0.4
v -0.4 0.1 -0.5
v -0.3 0.1 -0.5
v -0.1 0.1 -0.5
v 0.1 0.1 -0.5
v 0.3 0.1 -0.5
v 0.5 0.1 -0.5
v 0.6 0.1 -0.5
v -0.3 0.1 -0.6
v -0.1 0.1 -0.6
v 0.1 0.1 -0.6
v 0.3 0.1 -0.6
v 0.5 0.1 -0.6

# faces
f 7/3/1 2/3/1 1/3/1
f 8/4/1 3/4/1 2/4/1
f 8/3/1 2/3/1 7/3/1
f 9/3/1 4/3/1 3/3/1
f 9/4/1 3/4/1 8/4/1
f 10/4/1 5/4/1 4/4/1
f 10/3/1 4/3/1 9/3/1
f 11/3/1 6/3/1 5/3/1
f 11/4/1 5/4/1 10/4/1
f 12/3/1 6/3/1 11/3/1
f 17/3/1 14/3/1 13/3/1
f 18/3/1 14/3/1 17/3/1
f 19/3/1 16/3/1 15/3/1
f 20/3/1 16/3/1 19/3/1
f 25/3/1 22/3/1 21/3/1
f 26/3/1 22/3/1 25/3/1
f 27/3/1 24/3/1 23/3/1
f 28/3/1 24/3/1 27/3/1
f 29/4/2 30/4/2 33/4/2
f 33/4/2 30/4/2 34/4/2
f 31/4/2 32/4/2 35/4/2
f 35/4/2 32/4/2 36/4/2
f 37/3/2 38/3/2 41/3/2
f 41/3/2 38/3/2 42/3/2
f 39/3/2 40/3/2 43/3/2
f 43/3/2 40/3/2 44/3/2
f 45/4/2 46/4/2 50/4/2
f 46/3/2 47/3/2 51/3/2
f 50/4/2 46/4/2 51/4/2
f 47/4/2 48/4/2 52/4/2
f 51/3/2 47/3/2 52/3/2
f 48/3/2 49/3/2 53/3/2
f 52/4/2 48/4/2 53/4/2
f 53/3/2 49/3/2 54/3/2
f 57/3/3 56/3/3 55/3/3
f 58/3/3 56/3/3 57/3/3
f 59/4/3 58/4/3 57/4/3
f 60/4/3 58/4/3 59/4/3
f 61/3/3 60/3/3 59/3/3
f 62/3/3 60/3/3 61/3/3
f 63/4/3 62/4/3 61/4/3
f 64/4/3 62/4/3 63/4/3
f 67/3/3 66/3/3 65/3/3
f 68/3/3 66/3/3 67/3/3
f 71/3/3 70/3/3 69/3/3
f 72/3/3 70/3/3 71/3/3
f 75/3/3 74/3/3 73/3/3
f 76/3/3 74/3/3 75/3/3
f 79/4/3 78/4/3 77/4/3
f 80/4/3 78/4/3 79/4/3
f 81/3/4 82/3/4 83/3/4
f 83/3/4 82/3/4 84/3/4
f 85/3/4 86/3/4 87/3/4
f 87/3/4 86/3/4 88/3/4
f 89/3/4 90/3/4 91/3/4
f 91/3/4 90/3/4 92/3/4
f 93/3/4 94/3/4 95/3/4
f 95/3/4 94/3/4 96/3/4
f 97/3/4 98/3/4 99/3/4
f 99/3/4 98/3/4 100/3/4
f 99/4/4 100/4/4 101/4/4
f 101/4/4 100/4/4 102/4/4
f 101/3/4 102/3/4 103/3/4
f 103/3/4 102/3/4 104/3/4
f 103/4/4 104/4/4 105/4/4
f 105/4/4 104/4/4 106/4/4
f 113/3/5 108/3/5 107/3/5
f 114/4/5 109/4/5 108/4/5
f 114/3/5 108/3/5 113/3/5
f 115/3/5 110/3/5 109/3/5
f 115/4/5 109/4/5 114/4/5
f 116/4/5 111/4/5 110/4/5
f 116/3/5 110/3/5 115/3/5
f 117/4/5 111/4/5 116/4/5
f 120/3/5 113/3/5 112/3/5
f 121/2/5 115/2/5 114/2/5
f 121/2/5 114/2/5 113/2/5
f 121/3/5 113/3/5 120/3/5
f 121/2/5 116/2/5 115/2/5
f 121/2/5 117/2/5 116/2/5
f 122/2/5 117/2/5 121/2/5
f 123/2/5 117/2/5 122/2/5
f 124/2/5 117/2/5 123/2/5
f 125/2/5 117/2/5 124/2/5
f 126/3/5 118/3/5 117/3/5
f 126/2/5 117/2/5 125/2/5
f 127/3/5 118/3/5 126/3/5
f 129/3/5 120/3/5 119/3/5
f 130/2/5 121/2/5 120/2/5
f 130/3/5 120/3/5 129/3/5
f 130/2/5 122/2/5 121/2/5
f 131/2/5 122/2/5 130/2/5
f 132/3/5 123/3/5 122/3/5
f 132/2/5 122/2/5 131/2/5
f 133/2/5 124/2/5 123/2/5
f 133/3/5 123/3/5 132/3/5
f 134/3/5 125/3/5 124/3/5
f 134/2/5 124/2/5 133/2/5
f 135/2/5 127/2/5 126/2/5
f 135/3/5 125/3/5 134/3/5
f 135/2/5 126/2/5 125/2/5
f 136/2/5 127/2/5 135/2/5
f 137/2/5 131/2/5 130/2/5
f 137/1/5 132/1/5 131/1/5
f 138/2/5 133/2/5 132/2/5
f 138/1/5 132/1/5 137/1/5
f 139/3/5 134/3/5 133/3/5
f 139/2/5 133/2/5 138/2/5
f 140/2/5 135/2/5 134/2/5
f 140/3/5 134/3/5 139/3/5
f 141/1/5 136/1/5 135/1/5
f 141/2/5 135/2/5 140/2/5
f 142/2/5 127/2/5 136/2/5
f 142/1/5 136/1/5 141/1/5
f 143/4/5 128/4/5 127/4/5
f 143/2/5 127/2/5 142/2/5
f 144/4/5 128/4/5 143/4/5
f 145/3/5 138/3/5 137/3/5
f 145/2/5 141/2/5 140/2/5
f 145/2/5 140/2/5 139/2/5
f 145/2/5 139/2/5 138/2/5
f 146/2/5 141/2/5 145/2/5
f 147/2/5 141/2/5 146/2/5
f 148/3/5 142/3/5 141/3/5
f 148/2/5 141/2/5 147/2/5
f 149/4/5 130/4/5 129/4/5
f 150/2/5 137/2/5 130/2/5
f 150/4/5 130/4/5 149/4/5
f 151/3/5 145/3/5 137/3/5
f 151/2/5 137/2/5 150/2/5
f 151/3/5 146/3/5 145/3/5
f 152/3/5 146/3/5 151/3/5
f 153/3/5 142/3/5 148/3/5
f 153/3/5 148/3/5 147/3/5
f 154/2/5 143/2/5 142/2/5
f 154/3/5 142/3/5 153/3/5
f 155/3/5 144/3/5 143/3/5
f 155/2/5 143/2/5 154/2/5
f 156/3/5 144/3/5 155/3/5
f 157/1/5 152/1/5 151/1/5
f 157/2/5 151/2/5 150/2/5
f 158/3/5 146/3/5 152/3/5
f 158/1/5 152/1/5 157/1/5
f 159/2/5 147/2/5 146/2/5
f 159/3/5 146/3/5 158/3/5
f 160/3/5 153/3/5 147/3/5
f 160/2/5 147/2/5 159/2/5
f 161/1/5 154/1/5 153/1/5
f 161/3/5 153/3/5 160/3/5
f 162/2/5 155/2/5 154/2/5
f 162/1/5 154/1/5 161/1/5
f 163/3/5 150/3/5 149/3/5
f 164/2/5 157/2/5 150/2/5
f 164/3/5 150/3/5 163/3/5
f 165/3/5 158/3/5 157/3/5
f 165/2/5 160/2/5 159/2/5
f 165/2/5 159/2/5 158/2/5
f 165/2/5 161/2/5 160/2/5
f 166/2/5 161/2/5 165/2/5
f 167/2/5 161/2/5 166/2/5
f 168/2/5 161/2/5 167/2/5
f 169/2/5 161/2/5 168/2/5
f 170/3/5 162/3/5 161/3/5
f 170/2/5 161/2/5 169/2/5
f 171/2/5 155/2/5 162/2/5
f 171/4/5 156/4/5 155/4/5
f 172/4/5 156/4/5 171/4/5
f 173/4/5 164/4/5 163/4/5
f 174/2/5 157/2/5 164/2/5
f 174/4/5 164/4/5 173/4/5
f 175/3/5 165/3/5 157/3/5
f 175/2/5 157/2/5 174/2/5
f 176/1/5 166/1/5 165/1/5
f 176/3/5 165/3/5 175/3/5
f 177/2/5 167/2/5 166/2/5
f 177/1/5 166/1/5 176/1/5
f 178/3/5 168/3/5 167/3/5
f 178/2/5 167/2/5 177/2/5
f 179/2/5 169/2/5 168/2/5
f 179/3/5 168/3/5 178/3/5
f 180/1/5 170/1/5 169/1/5
f 180/2/5 169/2/5 179/2/5
f 181/3/5 162/3/5 170/3/5
f 181/1/5 170/1/5 180/1/5
f 182/2/5 171/2/5 162/2/5
f 182/3/5 162/3/5 181/3/5
f 183/3/5 174/3/5 173/3/5
f 184/2/5 175/2/5 174/2/5
f 184/3/5 174/3/5 183/3/5
f 184/2/5 176/2/5 175/2/5
f 185/2/5 176/2/5 184/2/5
f 186/3/5 178/3/5 177/3/5
f 186/2/5 176/2/5 185/2/5
f 186/3/5 177/3/5 176/3/5
f 187/2/5 179/2/5 178/2/5
f 187/3/5 178/3/5 186/3/5
f 188/3/5 180/3/5 179/3/5
f 188/2/5 179/2/5 187/2/5
f 188/3/5 181/3/5 180/3/5
f 189/2/5 182/2/5 181/2/5
f 189/3/5 181/3/5 188/3/5
f 190/2/5 171/2/5 182/2/5
f 190/2/5 182/2/5 189/2/5
f 191/3/5 172/3/5 171/3/5
f 191/2/5 171/2/5 190/2/5
f 192/3/5 172/3/5 191/3/5
f 193/3/5 185/3/5 184/3/5
f 194/2/5 187/2/5 186/2/5
f 194/3/5 185/3/5 193/3/5
f 194/2/5 186/2/5 185/2/5
f 194/2/5 190/2/5 189/2/5
f 194/2/5 189/2/5 188/2/5
f 194/2/5 188/2/5 187/2/5
f 195/2/5 190/2/5 194/2/5
f 196/2/5 190/2/5 195/2/5
f 197/2/5 190/2/5 196/2/5
f 198/3/5 191/3/5 190/3/5
f 198/2/5 190/2/5 197/2/5
f 199/3/5 191/3/5 198/3/5
f 200/3/5 195/3/5 194/3/5
f 201/4/5 196/4/5 195/4/5
f 201/3/5 195/3/5 200/3/5
f 202/3/5 197/3/5 196/3/5
f 202/4/5 196/4/5 201/4/5
f 203/4/5 198/4/5 197/4/5
f 203/3/5 197/3/5 202/3/5
f 204/4/5 198/4/5 203/4/5
f 205/3/6 206/3/6 211/3/6
f 206/4/6 207/4/6 212/4/6
f 211/3/6 206/3/6 212/3/6
f 207/3/6 208/3/6 213/3/6
f 212/4/6 207/4/6 213/4/6
f 208/4/6 209/4/6 214/4/6
f 213/3/6 208/3/6 214/3/6
f 214/4/6 209/4/6 215/4/6
f 210/3/6 211/3/6 218/3/6
f 212/2/6 213/2/6 219/2/6
f 211/2/6 212/2/6 219/2/6
f 218/3/6 211/3/6 219/3/6
f 213/2/6 214/2/6 219/2/6
f 214/2/6 215/2/6 219/2/6
f 219/2/6 215/2/6 220/2/6
f 220/2/6 215/2/6 221/2/6
f 221/2/6 215/2/6 222/2/6
f 222/2/6 215/2/6 223/2/6
f 215/3/6 216/3/6 224/3/6
f 223/2/6 215/2/6 224/2/6
f 224/3/6 216/3/6 225/3/6
f 217/3/6 218/3/6 227/3/6
f 218/2/6 219/2/6 228/2/6
f 227/3/6 218/3/6 228/3/6
f 219/2/6 220/2/6 228/2/6
f 228/2/6 220/2/6 229/2/6
f 220/3/6 221/3/6 230/3/6
f 229/2/6 220/2/6 230/2/6
f 221/2/6 222/2/6 231/2/6
f 230/3/6 221/3/6 231/3/6
f 222/3/6 223/3/6 232/3/6
f 231/2/6 222/2/6 232/2/6
f 224/2/6 225/2/6 233/2/6
f 232/3/6 223/3/6 233/3/6
f 223/2/6 224/2/6 233/2/6
f 233/2/6 225/2/6 234/2/6
f 228/2/6 229/2/6 235/2/6
f 229/1/6 230/1/6 235/1/6
f 230/2/6 231/2/6 236/2/6
f 235/1/6 230/1/6 236/1/6
f 231/3/6 232/3/6 237/3/6
f 236/2/6 231/2/6 237/2/6
f 232/2/6 233/2/6 238/2/6
f 237/3/6 232/3/6 238/3/6
f 233/1/6 234/1/6 239/1/6
f 238/2/6 233/2/6 239/2/6
f 234/2/6 225/2/6 240/2/6
f 239/1/6 234/1/6 240/1/6
f 225/4/6 226/4/6 241/4/6
f 240/2/6 225/2/6 241/2/6
f 241/4/6 226/4/6 242/4/6
f 235/3/6 236/3/6 243/3/6
f 238/2/6 239/2/6 243/2/6
f 237/2/6 238/2/6 243/2/6
f 236/2/6 237/2/6 243/2/6
f 243/2/6 239/2/6 244/2/6
f 244/2/6 239/2/6 245/2/6
f 239/3/6 240/3/6 246/3/6
f 245/2/6 239/2/6 246/2/6
f 227/4/6 228/4/6 247/4/6
f 228/2/6 235/2/6 248/2/6
f 247/4/6 228/4/6 248/4/6
f 235/3/6 243/3/6 249/3/6
f 248/2/6 235/2/6 249/2/6
f 243/3/6 244/3/6 249/3/6
f 249/3/6 244/3/6 250/3/6
f 246/3/6 240/3/6 251/3/6
f 245/3/6 246/3/6 251/3/6
f 240/2/6 241/2/6 252/2/6
f 251/3/6 240/3/6 252/3/6
f 241/3/6 242/3/6 253/3/6
f 252/2/6 241/2/6 253/2/6
f 253/3/6 242/3/6 254/3/6
f 249/1/6 250/1/6 255/1/6
f 248/2/6 249/2/6 255/2/6
f 250/3/6 244/3/6 256/3/6
f 255/1/6 250/1/6 256/1/6
f 244/2/6 245/2/6 257/2/6
f 256/3/6 244/3/6 257/3/6
f 245/3/6 251/3/6 258/3/6
f 257/2/6 245/2/6 258/2/6
f 251/1/6 252/1/6 259/1/6
f 258/3/6 251/3/6 259/3/6
f 252/2/6 253/2/6 260/2/6
f 259/1/6 252/1/6 260/1/6
f 247/3/6 248/3/6 261/3/6
f 248/2/6 255/2/6 262/2/6
f 261/3/6 248/3/6 262/3/6
f 255/3/6 256/3/6 263/3/6
f 257/2/6 258/2/6 263/2/6
f 256/2/6 257/2/6 263/2/6
f 258/2/6 259/2/6 263/2/6
f 263/2/6 259/2/6 264/2/6
f 264/2/6 259/2/6 265/2/6
f 265/2/6 259/2/6 266/2/6
f 266/2/6 259/2/6 267/2/6
f 259/3/6 260/3/6 268/3/6
f 267/2/6 259/2/6 268/2/6
f 260/2/6 253/2/6 269/2/6
f 253/4/6 254/4/6 269/4/6
f 269/4/6 254/4/6 270/4/6
f 261/4/6 262/4/6 271/4/6
f 262/2/6 255/2/6 272/2/6
f 271/4/6 262/4/6 272/4/6
f 255/3/6 263/3/6 273/3/6
f 272/2/6 255/2/6 273/2/6
f 263/1/6 264/1/6 274/1/6
f 273/3/6 263/3/6 274/3/6
f 264/2/6 265/2/6 275/2/6
f 274/1/6 264/1/6 275/1/6
f 265/3/6 266/3/6 276/3/6
f 275/2/6 265/2/6 276/2/6
f 266/2/6 267/2/6 277/2/6
f 276/3/6 266/3/6 277/3/6
f 267/1/6 268/1/6 278/1/6
f 277/2/6 267/2/6 278/2/6
f 268/3/6 260/3/6 279/3/6
f 278/1/6 268/1/6 279/1/6
f 260/2/6 269/2/6 280/2/6
f 279/3/6 260/3/6 280/3/6
f 271/3/6 272/3/6 281/3/6
f 272/2/6 273/2/6 282/2/6
f 281/3/6 272/3/6 282/3/6
f 273/2/6 274/2/6 282/2/6
f 282/2/6 274/2/6 283/2/6
f 275/3/6 276/3/6 284/3/6
f 283/2/6 274/2/6 284/2/6
f 274/3/6 275/3/6 284/3/6
f 276/2/6 277/2/6 285/2/6
f 284/3/6 276/3/6 285/3/6
f 277/3/6 278/3/6 286/3/6
f 285/2/6 277/2/6 286/2/6
f 278/3/6 279/3/6 286/3/6
f 279/2/6 280/2/6 287/2/6
f 286/3/6 279/3/6 287/3/6
f 280/2/6 269/2/6 288/2/6
f 287/2/6 280/2/6 288/2/6
f 269/3/6 270/3/6 289/3/6
f 288/2/6 269/2/6 289/2/6
f 289/3/6 270/3/6 290/3/6
f 282/3/6 283/3/6 291/3/6
f 284/2/6 285/2/6 292/2/6
f 291/3/6 283/3/6 292/3/6
f 283/2/6 284/2/6 292/2/6
f 287/2/6 288/2/6 292/2/6
f 286/2/6 287/2/6 292/2/6
f 285/2/6 286/2/6 292/2/6
f 292/2/6 288/2/6 293/2/6
f 293/2/6 288/2/6 294/2/6
f 294/2/6 288/2/6 295/2/6
f 288/3/6 289/3/6 296/3/6
f 295/2/6 288/2/6 296/2/6
f 296/3/6 289/3/6 297/3/6
f 292/3/6 293/3/6 298/3/6
f 293/4/6 294/4/6 299/4/6
f 298/3/6 293/3/6 299/3/6
f 294/3/6 295/3/6 300/3/6
f 299/4/6 294/4/6 300/4/6
f 295/4/6 296/4/6 301/4/6
f 300/3/6 295/3/6 301/3/6
f 301/4/6 296/4/6 302/4/6
