# MagicaVoxel @ Ephtracy

# group
o 

# material
mtllib TopBread.mtl
usemtl palette

# normals
vn -1 0 0
vn 1 0 0
vn 0 0 1
vn 0 0 -1
vn 0 -1 0
vn 0 1 0

# texcoords
vt 0.00195312 0.5
vt 0.00585938 0.5
vt 0.00976562 0.5
vt 0.0332031 0.5

# verts
v -0.7 0 0.3
v -0.7 0 -0.3
v -0.7 0.1 0.3
v -0.7 0.1 -0.3
v -0.7 0.2 0.3
v -0.7 0.2 -0.3
v -0.6 0 0.4
v -0.6 0 0.3
v -0.6 0 -0.3
v -0.6 0 -0.4
v -0.6 0.1 0.4
v -0.6 0.1 0.3
v -0.6 0.1 -0.3
v -0.6 0.2 0.4
v -0.6 0.2 0.3
v -0.6 0.2 -0.3
v -0.6 0.2 -0.4
v -0.5 0 0.5
v -0.5 0 0.4
v -0.5 0 -0.4
v -0.5 0 -0.5
v -0.5 0.1 0.5
v -0.5 0.1 0.4
v -0.5 0.1 -0.4
v -0.5 0.1 -0.5
v -0.5 0.2 0.5
v -0.5 0.2 0.4
v -0.5 0.2 -0.4
v -0.5 0.2 -0.5
v -0.3 0 0.6
v -0.3 0 0.5
v -0.3 0 -0.5
v -0.3 0 -0.6
v -0.3 0.1 0.6
v -0.3 0.1 0.5
v -0.3 0.1 -0.5
v -0.3 0.1 -0.6
v -0.3 0.2 0.6
v -0.3 0.2 0.5
v -0.3 0.2 -0.5
v -0.3 0.2 -0.6
v 0.3 0 0.6
v 0.3 0 0.5
v 0.3 0 -0.5
v 0.3 0 -0.6
v 0.3 0.1 0.6
v 0.3 0.1 0.5
v 0.3 0.1 -0.5
v 0.3 0.1 -0.6
v 0.3 0.2 0.6
v 0.3 0.2 0.5
v 0.3 0.2 -0.5
v 0.3 0.2 -0.6
v 0.5 0 0.5
v 0.5 0 0.4
v 0.5 0 -0.4
v 0.5 0 -0.5
v 0.5 0.1 0.5
v 0.5 0.1 0.4
v 0.5 0.1 -0.4
v 0.5 0.1 -0.5
v 0.5 0.2 0.5
v 0.5 0.2 0.4
v 0.5 0.2 -0.4
v 0.5 0.2 -0.5
v 0.6 0 0.4
v 0.6 0 0.3
v 0.6 0 -0.3
v 0.6 0 -0.4
v 0.6 0.1 0.4
v 0.6 0.1 0.3
v 0.6 0.1 -0.3
v 0.6 0.1 -0.4
v 0.6 0.2 0.4
v 0.6 0.2 0.3
v 0.6 0.2 -0.3
v 0.6 0.2 -0.4
v 0.7 0 0.3
v 0.7 0 -0.3
v 0.7 0.1 0.3
v 0.7 0.1 0.2
v 0.7 0.1 0.1
v 0.7 0.1 -0.3
v 0.7 0.2 0.3
v 0.7 0.2 0.2
v 0.7 0.2 0.1
v 0.7 0.2 -0.3
v -0.3 0 0.6
v -0.3 0.1 0.6
v -0.3 0.2 0.6
v -0.2 0.1 0.6
v -0.2 0.2 0.6
v -0.1 0.1 0.6
v -0.1 0.2 0.6
v 0.3 0 0.6
v 0.3 0.1 0.6
v 0.3 0.2 0.6
v -0.5 0 0.5
v -0.5 0.1 0.5
v -0.5 0.2 0.5
v -0.4 0.1 0.5
v -0.4 0.2 0.5
v -0.3 0 0.5
v -0.3 0.1 0.5
v -0.3 0.2 0.5
v 0.3 0 0.5
v 0.3 0.1 0.5
v 0.3 0.2 0.5
v 0.5 0 0.5
v 0.5 0.1 0.5
v 0.5 0.2 0.5
v -0.6 0 0.4
v -0.6 0.1 0.4
v -0.6 0.2 0.4
v -0.5 0 0.4
v -0.5 0.1 0.4
v -0.5 0.2 0.4
v 0.5 0 0.4
v 0.5 0.1 0.4
v 0.5 0.2 0.4
v 0.6 0 0.4
v 0.6 0.1 0.4
v 0.6 0.2 0.4
v -0.7 0 0.3
v -0.7 0.1 0.3
v -0.7 0.2 0.3
v -0.6 0 0.3
v -0.6 0.1 0.3
v -0.6 0.2 0.3
v 0.6 0 0.3
v 0.6 0.1 0.3
v 0.6 0.2 0.3
v 0.7 0 0.3
v 0.7 0.1 0.3
v 0.7 0.2 0.3
v -0.7 0 -0.3
v -0.7 0.1 -0.3
v -0.7 0.2 -0.3
v -0.6 0 -0.3
v -0.6 0.1 -0.3
v -0.6 0.2 -0.3
v 0.6 0 -0.3
v 0.6 0.1 -0.3
v 0.6 0.2 -0.3
v 0.7 0 -0.3
v 0.7 0.1 -0.3
v 0.7 0.2 -0.3
v -0.6 0 -0.4
v -0.6 0.2 -0.4
v -0.5 0 -0.4
v -0.5 0.1 -0.4
v -0.5 0.2 -0.4
v 0.5 0 -0.4
v 0.5 0.1 -0.4
v 0.5 0.2 -0.4
v 0.6 0 -0.4
v 0.6 0.1 -0.4
v 0.6 0.2 -0.4
v -0.5 0 -0.5
v -0.5 0.1 -0.5
v -0.5 0.2 -0.5
v -0.3 0 -0.5
v -0.3 0.1 -0.5
v -0.3 0.2 -0.5
v 0.3 0 -0.5
v 0.3 0.1 -0.5
v 0.3 0.2 -0.5
v 0.5 0 -0.5
v 0.5 0.1 -0.5
v 0.5 0.2 -0.5
v -0.3 0 -0.6
v -0.3 0.1 -0.6
v -0.3 0.2 -0.6
v 0.3 0 -0.6
v 0.3 0.1 -0.6
v 0.3 0.2 -0.6
v -0.3 0 0.6
v 0.3 0 0.6
v -0.5 0 0.5
v -0.3 0 0.5
v 0.3 0 0.5
v 0.5 0 0.5
v -0.6 0 0.4
v -0.5 0 0.4
v -0.3 0 0.4
v 0.3 0 0.4
v 0.5 0 0.4
v 0.6 0 0.4
v -0.7 0 0.3
v -0.6 0 0.3
v -0.5 0 0.3
v 0.5 0 0.3
v 0.6 0 0.3
v 0.7 0 0.3
v -0.7 0 -0.3
v -0.6 0 -0.3
v -0.5 0 -0.3
v 0.5 0 -0.3
v 0.6 0 -0.3
v 0.7 0 -0.3
v -0.6 0 -0.4
v -0.5 0 -0.4
v -0.3 0 -0.4
v 0.3 0 -0.4
v 0.5 0 -0.4
v 0.6 0 -0.4
v -0.5 0 -0.5
v -0.3 0 -0.5
v 0.3 0 -0.5
v 0.5 0 -0.5
v -0.3 0 -0.6
v 0.3 0 -0.6
v -0.3 0.2 0.6
v -0.2 0.2 0.6
v -0.1 0.2 0.6
v 0.3 0.2 0.6
v -0.5 0.2 0.5
v -0.4 0.2 0.5
v -0.3 0.2 0.5
v -0.2 0.2 0.5
v -0.1 0.2 0.5
v 0 0.2 0.5
v 0.1 0.2 0.5
v 0.3 0.2 0.5
v 0.5 0.2 0.5
v -0.6 0.2 0.4
v -0.5 0.2 0.4
v -0.4 0.2 0.4
v -0.3 0.2 0.4
v -0.2 0.2 0.4
v -0.1 0.2 0.4
v 0 0.2 0.4
v 0.1 0.2 0.4
v 0.2 0.2 0.4
v 0.3 0.2 0.4
v 0.5 0.2 0.4
v 0.6 0.2 0.4
v -0.7 0.2 0.3
v -0.6 0.2 0.3
v -0.5 0.2 0.3
v -0.4 0.2 0.3
v -0.2 0.2 0.3
v -0.1 0.2 0.3
v 0 0.2 0.3
v 0.1 0.2 0.3
v 0.2 0.2 0.3
v 0.3 0.2 0.3
v 0.4 0.2 0.3
v 0.5 0.2 0.3
v 0.6 0.2 0.3
v 0.7 0.2 0.3
v -0.5 0.2 0.2
v -0.4 0.2 0.2
v -0.3 0.2 0.2
v -0.2 0.2 0.2
v 0 0.2 0.2
v 0.1 0.2 0.2
v 0.2 0.2 0.2
v 0.3 0.2 0.2
v 0.4 0.2 0.2
v 0.5 0.2 0.2
v 0.6 0.2 0.2
v 0.7 0.2 0.2
v -0.6 0.2 0.1
v -0.5 0.2 0.1
v -0.3 0.2 0.1
v -0.2 0.2 0.1
v -0.1 0.2 0.1
v 0 0.2 0.1
v 0.2 0.2 0.1
v 0.3 0.2 0.1
v 0.4 0.2 0.1
v 0.5 0.2 0.1
v 0.6 0.2 0.1
v 0.7 0.2 0.1
v -0.6 0.2 5.96046e-08
v -0.5 0.2 5.96046e-08
v -0.4 0.2 5.96046e-08
v -0.3 0.2 5.96046e-08
v -0.1 0.2 5.96046e-08
v 0 0.2 5.96046e-08
v 0.1 0.2 5.96046e-08
v 0.2 0.2 5.96046e-08
v 0.4 0.2 5.96046e-08
v 0.5 0.2 5.96046e-08
v -0.6 0.2 -0.1
v -0.5 0.2 -0.1
v -0.4 0.2 -0.1
v -0.3 0.2 -0.1
v -0.2 0.2 -0.1
v -0.1 0.2 -0.1
v 0.1 0.2 -0.1
v 0.2 0.2 -0.1
v 0.3 0.2 -0.1
v 0.4 0.2 -0.1
v -0.6 0.2 -0.2
v -0.5 0.2 -0.2
v -0.4 0.2 -0.2
v -0.3 0.2 -0.2
v -0.2 0.2 -0.2
v -0.1 0.2 -0.2
v 0 0.2 -0.2
v 0.1 0.2 -0.2
v 0.3 0.2 -0.2
v 0.4 0.2 -0.2
v 0.5 0.2 -0.2
v 0.6 0.2 -0.2
v -0.7 0.2 -0.3
v -0.6 0.2 -0.3
v -0.4 0.2 -0.3
v -0.3 0.2 -0.3
v -0.2 0.2 -0.3
v -0.1 0.2 -0.3
v 0 0.2 -0.3
v 0.1 0.2 -0.3
v 0.2 0.2 -0.3
v 0.3 0.2 -0.3
v 0.5 0.2 -0.3
v 0.6 0.2 -0.3
v 0.7 0.2 -0.3
v -0.6 0.2 -0.4
v -0.5 0.2 -0.4
v -0.2 0.2 -0.4
v -0.1 0.2 -0.4
v 0 0.2 -0.4
v 0.1 0.2 -0.4
v 0.2 0.2 -0.4
v 0.3 0.2 -0.4
v 0.5 0.2 -0.4
v 0.6 0.2 -0.4
v -0.5 0.2 -0.5
v -0.3 0.2 -0.5
v 0 0.2 -0.5
v 0.1 0.2 -0.5
v 0.3 0.2 -0.5
v 0.5 0.2 -0.5
v -0.3 0.2 -0.6
v 0.3 0.2 -0.6

# faces
f 3/2/1 2/2/1 1/2/1
f 4/2/1 2/2/1 3/2/1
f 5/1/1 4/1/1 3/1/1
f 6/1/1 4/1/1 5/1/1
f 11/2/1 8/2/1 7/2/1
f 12/2/1 8/2/1 11/2/1
f 13/1/1 10/1/1 9/1/1
f 14/1/1 12/1/1 11/1/1
f 15/1/1 12/1/1 14/1/1
f 16/1/1 10/1/1 13/1/1
f 17/1/1 10/1/1 16/1/1
f 22/2/1 19/2/1 18/2/1
f 23/2/1 19/2/1 22/2/1
f 24/2/1 21/2/1 20/2/1
f 25/2/1 21/2/1 24/2/1
f 26/1/1 23/1/1 22/1/1
f 27/1/1 23/1/1 26/1/1
f 28/1/1 25/1/1 24/1/1
f 29/1/1 25/1/1 28/1/1
f 34/2/1 31/2/1 30/2/1
f 35/2/1 31/2/1 34/2/1
f 36/2/1 33/2/1 32/2/1
f 37/2/1 33/2/1 36/2/1
f 38/1/1 35/1/1 34/1/1
f 39/1/1 35/1/1 38/1/1
f 40/1/1 37/1/1 36/1/1
f 41/1/1 37/1/1 40/1/1
f 42/2/2 43/2/2 46/2/2
f 46/2/2 43/2/2 47/2/2
f 44/2/2 45/2/2 48/2/2
f 48/2/2 45/2/2 49/2/2
f 46/1/2 47/1/2 50/1/2
f 50/1/2 47/1/2 51/1/2
f 48/1/2 49/1/2 52/1/2
f 52/1/2 49/1/2 53/1/2
f 54/2/2 55/2/2 58/2/2
f 58/2/2 55/2/2 59/2/2
f 56/2/2 57/2/2 60/2/2
f 60/2/2 57/2/2 61/2/2
f 58/1/2 59/1/2 62/1/2
f 62/1/2 59/1/2 63/1/2
f 60/1/2 61/1/2 64/1/2
f 64/1/2 61/1/2 65/1/2
f 66/2/2 67/2/2 70/2/2
f 70/2/2 67/2/2 71/2/2
f 68/2/2 69/2/2 72/2/2
f 72/2/2 69/2/2 73/2/2
f 70/1/2 71/1/2 74/1/2
f 74/1/2 71/1/2 75/1/2
f 72/1/2 73/1/2 76/1/2
f 76/1/2 73/1/2 77/1/2
f 78/2/2 79/2/2 80/2/2
f 80/2/2 79/2/2 81/2/2
f 81/2/2 79/2/2 82/2/2
f 82/2/2 79/2/2 83/2/2
f 80/1/2 81/1/2 84/1/2
f 81/4/2 82/4/2 85/4/2
f 84/1/2 81/1/2 85/1/2
f 82/1/2 83/1/2 86/1/2
f 85/4/2 82/4/2 86/4/2
f 86/1/2 83/1/2 87/1/2
f 91/2/3 89/2/3 88/2/3
f 91/1/3 90/1/3 89/1/3
f 92/1/3 90/1/3 91/1/3
f 93/2/3 91/2/3 88/2/3
f 93/4/3 92/4/3 91/4/3
f 94/4/3 92/4/3 93/4/3
f 95/2/3 93/2/3 88/2/3
f 96/1/3 94/1/3 93/1/3
f 96/2/3 93/2/3 95/2/3
f 97/1/3 94/1/3 96/1/3
f 101/2/3 99/2/3 98/2/3
f 101/1/3 100/1/3 99/1/3
f 102/1/3 100/1/3 101/1/3
f 103/2/3 101/2/3 98/2/3
f 104/4/3 102/4/3 101/4/3
f 104/2/3 101/2/3 103/2/3
f 105/4/3 102/4/3 104/4/3
f 109/2/3 107/2/3 106/2/3
f 110/1/3 108/1/3 107/1/3
f 110/2/3 107/2/3 109/2/3
f 111/1/3 108/1/3 110/1/3
f 115/2/3 113/2/3 112/2/3
f 116/1/3 114/1/3 113/1/3
f 116/2/3 113/2/3 115/2/3
f 117/1/3 114/1/3 116/1/3
f 121/2/3 119/2/3 118/2/3
f 122/1/3 120/1/3 119/1/3
f 122/2/3 119/2/3 121/2/3
f 123/1/3 120/1/3 122/1/3
f 127/2/3 125/2/3 124/2/3
f 128/1/3 126/1/3 125/1/3
f 128/2/3 125/2/3 127/2/3
f 129/1/3 126/1/3 128/1/3
f 133/2/3 131/2/3 130/2/3
f 134/1/3 132/1/3 131/1/3
f 134/2/3 131/2/3 133/2/3
f 135/1/3 132/1/3 134/1/3
f 136/2/4 137/2/4 139/2/4
f 137/1/4 138/1/4 140/1/4
f 139/2/4 137/2/4 140/2/4
f 140/1/4 138/1/4 141/1/4
f 142/2/4 143/2/4 145/2/4
f 143/1/4 144/1/4 146/1/4
f 145/2/4 143/2/4 146/2/4
f 146/1/4 144/1/4 147/1/4
f 148/1/4 149/1/4 150/1/4
f 150/1/4 149/1/4 151/1/4
f 151/1/4 149/1/4 152/1/4
f 153/2/4 154/2/4 156/2/4
f 154/1/4 155/1/4 157/1/4
f 156/2/4 154/2/4 157/2/4
f 157/1/4 155/1/4 158/1/4
f 159/2/4 160/2/4 162/2/4
f 160/1/4 161/1/4 163/1/4
f 162/2/4 160/2/4 163/2/4
f 163/1/4 161/1/4 164/1/4
f 165/2/4 166/2/4 168/2/4
f 166/1/4 167/1/4 169/1/4
f 168/2/4 166/2/4 169/2/4
f 169/1/4 167/1/4 170/1/4
f 171/2/4 172/2/4 174/2/4
f 172/1/4 173/1/4 175/1/4
f 174/2/4 172/2/4 175/2/4
f 175/1/4 173/1/4 176/1/4
f 180/2/5 178/2/5 177/2/5
f 181/2/5 178/2/5 180/2/5
f 184/2/5 180/2/5 179/2/5
f 185/3/5 181/3/5 180/3/5
f 185/2/5 180/2/5 184/2/5
f 186/2/5 182/2/5 181/2/5
f 186/3/5 181/3/5 185/3/5
f 187/2/5 182/2/5 186/2/5
f 190/2/5 184/2/5 183/2/5
f 191/3/5 185/3/5 184/3/5
f 191/3/5 186/3/5 185/3/5
f 191/2/5 184/2/5 190/2/5
f 191/3/5 187/3/5 186/3/5
f 192/2/5 188/2/5 187/2/5
f 192/3/5 187/3/5 191/3/5
f 193/2/5 188/2/5 192/2/5
f 195/2/5 190/2/5 189/2/5
f 196/3/5 191/3/5 190/3/5
f 196/2/5 190/2/5 195/2/5
f 196/3/5 192/3/5 191/3/5
f 196/3/5 193/3/5 192/3/5
f 197/3/5 193/3/5 196/3/5
f 198/3/5 193/3/5 197/3/5
f 199/2/5 194/2/5 193/2/5
f 199/3/5 193/3/5 198/3/5
f 200/2/5 194/2/5 199/2/5
f 201/1/5 197/1/5 196/1/5
f 202/3/5 198/3/5 197/3/5
f 202/1/5 197/1/5 201/1/5
f 203/3/5 198/3/5 202/3/5
f 204/3/5 198/3/5 203/3/5
f 205/2/5 199/2/5 198/2/5
f 205/3/5 198/3/5 204/3/5
f 206/2/5 199/2/5 205/2/5
f 207/2/5 203/2/5 202/2/5
f 208/3/5 204/3/5 203/3/5
f 208/2/5 203/2/5 207/2/5
f 209/2/5 205/2/5 204/2/5
f 209/3/5 204/3/5 208/3/5
f 210/2/5 205/2/5 209/2/5
f 211/2/5 209/2/5 208/2/5
f 212/2/5 209/2/5 211/2/5
f 213/1/6 214/1/6 219/1/6
f 214/4/6 215/4/6 220/4/6
f 219/1/6 214/1/6 220/1/6
f 215/1/6 216/1/6 221/1/6
f 220/4/6 215/4/6 221/4/6
f 221/1/6 216/1/6 222/1/6
f 222/1/6 216/1/6 223/1/6
f 223/1/6 216/1/6 224/1/6
f 217/1/6 218/1/6 227/1/6
f 218/4/6 219/4/6 228/4/6
f 227/1/6 218/1/6 228/1/6
f 219/1/6 220/1/6 229/1/6
f 228/4/6 219/4/6 229/4/6
f 220/1/6 221/1/6 229/1/6
f 221/1/6 222/1/6 229/1/6
f 229/1/6 222/1/6 230/1/6
f 230/1/6 222/1/6 231/1/6
f 222/4/6 223/4/6 232/4/6
f 231/1/6 222/1/6 232/1/6
f 224/1/6 225/1/6 233/1/6
f 232/4/6 223/4/6 233/4/6
f 223/1/6 224/1/6 233/1/6
f 233/1/6 225/1/6 234/1/6
f 234/1/6 225/1/6 235/1/6
f 235/1/6 225/1/6 236/1/6
f 226/1/6 227/1/6 239/1/6
f 227/1/6 228/1/6 239/1/6
f 229/1/6 230/1/6 239/1/6
f 228/1/6 229/1/6 239/1/6
f 239/1/6 230/1/6 240/1/6
f 240/1/6 230/1/6 241/1/6
f 230/4/6 231/4/6 242/4/6
f 241/1/6 230/1/6 242/1/6
f 231/1/6 232/1/6 243/1/6
f 242/4/6 231/4/6 243/4/6
f 233/1/6 234/1/6 243/1/6
f 232/1/6 233/1/6 243/1/6
f 243/1/6 234/1/6 244/1/6
f 244/1/6 234/1/6 245/1/6
f 234/4/6 235/4/6 246/4/6
f 245/1/6 234/1/6 246/1/6
f 236/1/6 237/1/6 247/1/6
f 246/4/6 235/4/6 247/4/6
f 235/1/6 236/1/6 247/1/6
f 247/1/6 237/1/6 248/1/6
f 248/1/6 237/1/6 249/1/6
f 249/1/6 237/1/6 250/1/6
f 240/4/6 241/4/6 252/4/6
f 239/1/6 240/1/6 252/1/6
f 238/1/6 239/1/6 252/1/6
f 241/1/6 242/1/6 253/1/6
f 252/4/6 241/4/6 253/4/6
f 243/1/6 244/1/6 253/1/6
f 242/1/6 243/1/6 253/1/6
f 253/1/6 244/1/6 254/1/6
f 254/1/6 244/1/6 255/1/6
f 244/4/6 245/4/6 256/4/6
f 255/1/6 244/1/6 256/1/6
f 245/1/6 246/1/6 257/1/6
f 256/4/6 245/4/6 257/4/6
f 247/1/6 248/1/6 257/1/6
f 246/1/6 247/1/6 257/1/6
f 257/1/6 248/1/6 258/1/6
f 258/1/6 248/1/6 259/1/6
f 248/4/6 249/4/6 260/4/6
f 259/1/6 248/1/6 260/1/6
f 250/1/6 251/1/6 261/1/6
f 260/4/6 249/4/6 261/4/6
f 249/1/6 250/1/6 261/1/6
f 261/1/6 251/1/6 262/1/6
f 262/1/6 251/1/6 263/1/6
f 238/1/6 252/1/6 264/1/6
f 253/1/6 254/1/6 264/1/6
f 252/1/6 253/1/6 264/1/6
f 264/1/6 254/1/6 265/1/6
f 254/4/6 255/4/6 266/4/6
f 265/1/6 254/1/6 266/1/6
f 255/1/6 256/1/6 267/1/6
f 266/4/6 255/4/6 267/4/6
f 257/1/6 258/1/6 267/1/6
f 256/1/6 257/1/6 267/1/6
f 267/1/6 258/1/6 268/1/6
f 268/1/6 258/1/6 269/1/6
f 258/4/6 259/4/6 270/4/6
f 269/1/6 258/1/6 270/1/6
f 259/1/6 260/1/6 271/1/6
f 270/4/6 259/4/6 271/4/6
f 261/1/6 262/1/6 271/1/6
f 260/1/6 261/1/6 271/1/6
f 271/1/6 262/1/6 272/1/6
f 272/1/6 262/1/6 273/1/6
f 262/4/6 263/4/6 274/4/6
f 273/1/6 262/1/6 274/1/6
f 274/4/6 263/4/6 275/4/6
f 264/4/6 265/4/6 276/4/6
f 238/1/6 264/1/6 276/1/6
f 265/1/6 266/1/6 277/1/6
f 276/4/6 265/4/6 277/4/6
f 267/1/6 268/1/6 277/1/6
f 266/1/6 267/1/6 277/1/6
f 277/1/6 268/1/6 278/1/6
f 278/1/6 268/1/6 279/1/6
f 268/4/6 269/4/6 280/4/6
f 279/1/6 268/1/6 280/1/6
f 269/1/6 270/1/6 281/1/6
f 280/4/6 269/4/6 281/4/6
f 271/1/6 272/1/6 281/1/6
f 270/1/6 271/1/6 281/1/6
f 281/1/6 272/1/6 282/1/6
f 282/1/6 272/1/6 283/1/6
f 272/4/6 273/4/6 284/4/6
f 283/1/6 272/1/6 284/1/6
f 274/1/6 275/1/6 285/1/6
f 284/4/6 273/4/6 285/4/6
f 273/1/6 274/1/6 285/1/6
f 238/1/6 276/1/6 286/1/6
f 277/1/6 278/1/6 286/1/6
f 276/1/6 277/1/6 286/1/6
f 286/1/6 278/1/6 287/1/6
f 278/4/6 279/4/6 288/4/6
f 287/1/6 278/1/6 288/1/6
f 279/1/6 280/1/6 289/1/6
f 288/4/6 279/4/6 289/4/6
f 281/1/6 282/1/6 289/1/6
f 280/1/6 281/1/6 289/1/6
f 289/1/6 282/1/6 290/1/6
f 290/1/6 282/1/6 291/1/6
f 282/4/6 283/4/6 292/4/6
f 291/1/6 282/1/6 292/1/6
f 283/1/6 284/1/6 293/1/6
f 292/4/6 283/4/6 293/4/6
f 284/1/6 285/1/6 293/1/6
f 293/1/6 285/1/6 294/1/6
f 294/1/6 285/1/6 295/1/6
f 286/4/6 287/4/6 296/4/6
f 238/1/6 286/1/6 296/1/6
f 287/1/6 288/1/6 297/1/6
f 296/4/6 287/4/6 297/4/6
f 289/1/6 290/1/6 297/1/6
f 288/1/6 289/1/6 297/1/6
f 297/1/6 290/1/6 298/1/6
f 298/1/6 290/1/6 299/1/6
f 290/4/6 291/4/6 300/4/6
f 299/1/6 290/1/6 300/1/6
f 291/1/6 292/1/6 301/1/6
f 300/4/6 291/4/6 301/4/6
f 293/1/6 294/1/6 301/1/6
f 292/1/6 293/1/6 301/1/6
f 301/1/6 294/1/6 302/1/6
f 302/1/6 294/1/6 303/1/6
f 294/4/6 295/4/6 304/4/6
f 303/1/6 294/1/6 304/1/6
f 295/1/6 285/1/6 305/1/6
f 304/4/6 295/4/6 305/4/6
f 285/1/6 275/1/6 306/1/6
f 305/1/6 285/1/6 306/1/6
f 306/1/6 275/1/6 307/1/6
f 238/1/6 296/1/6 308/1/6
f 297/1/6 298/1/6 308/1/6
f 296/1/6 297/1/6 308/1/6
f 308/1/6 298/1/6 309/1/6
f 298/4/6 299/4/6 310/4/6
f 309/1/6 298/1/6 310/1/6
f 299/1/6 300/1/6 311/1/6
f 310/4/6 299/4/6 311/4/6
f 300/1/6 301/1/6 311/1/6
f 301/1/6 302/1/6 311/1/6
f 311/1/6 302/1/6 312/1/6
f 312/1/6 302/1/6 313/1/6
f 302/4/6 303/4/6 314/4/6
f 313/1/6 302/1/6 314/1/6
f 304/1/6 305/1/6 315/1/6
f 314/4/6 303/4/6 315/4/6
f 303/1/6 304/1/6 315/1/6
f 305/1/6 306/1/6 315/1/6
f 315/1/6 306/1/6 316/1/6
f 316/1/6 306/1/6 317/1/6
f 306/4/6 307/4/6 318/4/6
f 317/1/6 306/1/6 318/1/6
f 307/1/6 275/1/6 319/1/6
f 318/4/6 307/4/6 319/4/6
f 319/1/6 275/1/6 320/1/6
f 309/1/6 310/1/6 321/1/6
f 311/1/6 312/1/6 321/1/6
f 310/1/6 311/1/6 321/1/6
f 321/1/6 312/1/6 322/1/6
f 312/4/6 313/4/6 323/4/6
f 322/1/6 312/1/6 323/1/6
f 313/1/6 314/1/6 324/1/6
f 323/4/6 313/4/6 324/4/6
f 315/1/6 316/1/6 324/1/6
f 314/1/6 315/1/6 324/1/6
f 324/1/6 316/1/6 325/1/6
f 325/1/6 316/1/6 326/1/6
f 316/4/6 317/4/6 327/4/6
f 326/1/6 316/1/6 327/1/6
f 317/1/6 318/1/6 328/1/6
f 327/4/6 317/4/6 328/4/6
f 318/1/6 319/1/6 328/1/6
f 328/1/6 319/1/6 329/1/6
f 329/1/6 319/1/6 330/1/6
f 322/1/6 323/1/6 331/1/6
f 324/1/6 325/1/6 331/1/6
f 323/1/6 324/1/6 331/1/6
f 331/1/6 325/1/6 332/1/6
f 325/4/6 326/4/6 333/4/6
f 332/1/6 325/1/6 333/1/6
f 326/1/6 327/1/6 334/1/6
f 333/4/6 326/4/6 334/4/6
f 328/1/6 329/1/6 334/1/6
f 327/1/6 328/1/6 334/1/6
f 334/1/6 329/1/6 335/1/6
f 335/1/6 329/1/6 336/1/6
f 332/1/6 333/1/6 337/1/6
f 334/1/6 335/1/6 337/1/6
f 333/1/6 334/1/6 337/1/6
f 337/1/6 335/1/6 338/1/6
