# MagicaVoxel @ Ephtracy

# group
o 

# material
mtllib cebolla_cruda.mtl
usemtl palette

# normals
vn -1 0 0
vn 1 0 0
vn 0 0 1
vn 0 0 -1
vn 0 -1 0
vn 0 1 0

# texcoords
vt 0.00195312 0.5
vt 0.00585938 0.5
vt 0.0136719 0.5
vt 0.0292969 0.5

# verts
v -0.5 0 0.2
v -0.5 0 0.1
v -0.5 0 -0.2
v -0.5 0 -0.3
v -0.5 0.1 0.2
v -0.5 0.1 0.1
v -0.5 0.1 -0.2
v -0.5 0.1 -0.3
v -0.5 0.2 0.2
v -0.5 0.2 -0.3
v -0.4 0 0.3
v -0.4 0 0.2
v -0.4 0 -0.3
v -0.4 0 -0.4
v -0.4 0.1 0.3
v -0.4 0.1 0.2
v -0.4 0.1 -0.3
v -0.4 0.1 -0.4
v -0.4 0.2 0.3
v -0.4 0.2 0.2
v -0.4 0.2 -0.3
v -0.4 0.2 -0.4
v -0.3 0 0.4
v -0.3 0 0.3
v -0.3 0 -0.4
v -0.3 0 -0.5
v -0.3 0.1 0.4
v -0.3 0.1 0.3
v -0.3 0.1 -0.4
v -0.3 0.1 -0.5
v -0.3 0.2 0.4
v -0.3 0.2 0.3
v -0.3 0.2 -0.4
v -0.3 0.2 -0.5
v -0.2 0 0.5
v -0.2 0 0.4
v -0.2 0 -0.5
v -0.2 0 -0.6
v -0.2 0.1 0.5
v -0.2 0.1 0.4
v -0.2 0.1 -0.5
v -0.2 0.1 -0.6
v -0.2 0.2 0.5
v -0.2 0.2 0.4
v -0.2 0.2 -0.5
v -0.2 0.2 -0.6
v 0.2 0 0.2
v 0.2 0 0.1
v 0.2 0 -0.2
v 0.2 0 -0.3
v 0.2 0.1 0.2
v 0.2 0.1 0.1
v 0.2 0.1 -0.2
v 0.2 0.1 -0.3
v 0.2 0.2 0.2
v 0.2 0.2 0.1
v 0.2 0.2 -0.2
v 0.2 0.2 -0.3
v 0.3 0 0.1
v 0.3 0 -0.1
v 0.3 0 -0.2
v 0.3 0.1 0.1
v 0.3 0.1 -0.1
v 0.3 0.1 -0.2
v 0.3 0.2 0.1
v 0.3 0.2 -0.2
v -0.2 0 0.1
v -0.2 0 -0.2
v -0.2 0.1 -0.2
v -0.2 0.2 0.1
v -0.2 0.2 -0.2
v -0.1 0 0.2
v -0.1 0 0.1
v -0.1 0 -0.2
v -0.1 0 -0.3
v -0.1 0.1 0.2
v -0.1 0.1 -0.2
v -0.1 0.1 -0.3
v -0.1 0.2 0.2
v -0.1 0.2 0.1
v -0.1 0.2 -0.2
v -0.1 0.2 -0.3
v 0.3 0 0.5
v 0.3 0 0.4
v 0.3 0 -0.5
v 0.3 0 -0.6
v 0.3 0.1 0.5
v 0.3 0.1 0.4
v 0.3 0.1 -0.5
v 0.3 0.1 -0.6
v 0.3 0.2 0.5
v 0.3 0.2 0.4
v 0.3 0.2 -0.5
v 0.3 0.2 -0.6
v 0.4 0 0.4
v 0.4 0 0.3
v 0.4 0 -0.4
v 0.4 0 -0.5
v 0.4 0.1 0.4
v 0.4 0.1 0.3
v 0.4 0.1 -0.4
v 0.4 0.1 -0.5
v 0.4 0.2 0.4
v 0.4 0.2 0.3
v 0.4 0.2 -0.4
v 0.4 0.2 -0.5
v 0.5 0 0.3
v 0.5 0 0.2
v 0.5 0 -0.3
v 0.5 0 -0.4
v 0.5 0.1 0.3
v 0.5 0.1 0.2
v 0.5 0.1 -0.3
v 0.5 0.1 -0.4
v 0.5 0.2 0.3
v 0.5 0.2 0.2
v 0.5 0.2 -0.3
v 0.5 0.2 -0.4
v 0.6 0 0.2
v 0.6 0 0.1
v 0.6 0 -0.2
v 0.6 0 -0.3
v 0.6 0.1 0.1
v 0.6 0.1 -0.2
v 0.6 0.1 -0.3
v 0.6 0.2 0.2
v 0.6 0.2 -0.3
v -0.2 0 0.5
v -0.2 0.1 0.5
v -0.2 0.2 0.5
v 0.3 0 0.5
v 0.3 0.1 0.5
v 0.3 0.2 0.5
v -0.3 0 0.4
v -0.3 0.1 0.4
v -0.3 0.2 0.4
v -0.2 0 0.4
v -0.2 0.1 0.4
v -0.2 0.2 0.4
v 0.3 0 0.4
v 0.3 0.1 0.4
v 0.3 0.2 0.4
v 0.4 0 0.4
v 0.4 0.1 0.4
v 0.4 0.2 0.4
v -0.4 0 0.3
v -0.4 0.1 0.3
v -0.4 0.2 0.3
v -0.3 0 0.3
v -0.3 0.1 0.3
v -0.3 0.2 0.3
v 0.4 0 0.3
v 0.4 0.1 0.3
v 0.4 0.2 0.3
v 0.5 0 0.3
v 0.5 0.1 0.3
v 0.5 0.2 0.3
v -0.5 0 0.2
v -0.5 0.1 0.2
v -0.5 0.2 0.2
v -0.4 0 0.2
v -0.4 0.1 0.2
v -0.4 0.2 0.2
v 0.5 0 0.2
v 0.5 0.1 0.2
v 0.5 0.2 0.2
v 0.6 0 0.2
v 0.6 0.2 0.2
v -0.2 0 -0.2
v -0.2 0.1 -0.2
v -0.2 0.2 -0.2
v -0.1 0 -0.2
v -0.1 0.1 -0.2
v -0.1 0.2 -0.2
v 0.2 0 -0.2
v 0.2 0.1 -0.2
v 0.2 0.2 -0.2
v 0.3 0 -0.2
v 0.3 0.1 -0.2
v 0.3 0.2 -0.2
v -0.1 0 -0.3
v -0.1 0.1 -0.3
v -0.1 0.2 -0.3
v 0 0 -0.3
v 0 0.1 -0.3
v 0.1 0 -0.3
v 0.1 0.1 -0.3
v 0.2 0 -0.3
v 0.2 0.1 -0.3
v 0.2 0.2 -0.3
v -0.1 0 0.2
v -0.1 0.1 0.2
v -0.1 0.2 0.2
v 0 0 0.2
v 0 0.1 0.2
v 0.1 0 0.2
v 0.1 0.1 0.2
v 0.2 0 0.2
v 0.2 0.1 0.2
v 0.2 0.2 0.2
v -0.2 0 0.1
v -0.2 0.2 0.1
v -0.1 0 0.1
v -0.1 0.2 0.1
v 0.2 0 0.1
v 0.2 0.1 0.1
v 0.2 0.2 0.1
v 0.3 0 0.1
v 0.3 0.1 0.1
v 0.3 0.2 0.1
v -0.5 0 -0.3
v -0.5 0.1 -0.3
v -0.5 0.2 -0.3
v -0.4 0 -0.3
v -0.4 0.1 -0.3
v -0.4 0.2 -0.3
v 0.5 0 -0.3
v 0.5 0.1 -0.3
v 0.5 0.2 -0.3
v 0.6 0 -0.3
v 0.6 0.1 -0.3
v 0.6 0.2 -0.3
v -0.4 0 -0.4
v -0.4 0.1 -0.4
v -0.4 0.2 -0.4
v -0.3 0 -0.4
v -0.3 0.1 -0.4
v -0.3 0.2 -0.4
v 0.4 0 -0.4
v 0.4 0.1 -0.4
v 0.4 0.2 -0.4
v 0.5 0 -0.4
v 0.5 0.1 -0.4
v 0.5 0.2 -0.4
v -0.3 0 -0.5
v -0.3 0.1 -0.5
v -0.3 0.2 -0.5
v -0.2 0 -0.5
v -0.2 0.1 -0.5
v -0.2 0.2 -0.5
v 0.3 0 -0.5
v 0.3 0.1 -0.5
v 0.3 0.2 -0.5
v 0.4 0 -0.5
v 0.4 0.1 -0.5
v 0.4 0.2 -0.5
v -0.2 0 -0.6
v -0.2 0.1 -0.6
v -0.2 0.2 -0.6
v -0.1 0 -0.6
v -0.1 0.1 -0.6
v 0.3 0 -0.6
v 0.3 0.1 -0.6
v 0.3 0.2 -0.6
v -0.2 0 0.5
v 0.3 0 0.5
v -0.3 0 0.4
v -0.2 0 0.4
v 0.3 0 0.4
v 0.4 0 0.4
v -0.4 0 0.3
v -0.3 0 0.3
v -0.2 0 0.3
v -0.1 0 0.3
v 0 0 0.3
v 0.1 0 0.3
v 0.2 0 0.3
v 0.4 0 0.3
v 0.5 0 0.3
v -0.5 0 0.2
v -0.4 0 0.2
v -0.3 0 0.2
v -0.1 0 0.2
v 0 0 0.2
v 0.1 0 0.2
v 0.2 0 0.2
v 0.4 0 0.2
v 0.5 0 0.2
v 0.6 0 0.2
v -0.5 0 0.1
v -0.4 0 0.1
v -0.2 0 0.1
v -0.1 0 0.1
v 0.2 0 0.1
v 0.3 0 0.1
v 0.4 0 0.1
v 0.5 0 0.1
v 0.6 0 0.1
v 0.4 0 0
v 0.5 0 0
v 0.3 0 -0.1
v 0.4 0 -0.1
v -0.5 0 -0.2
v -0.4 0 -0.2
v -0.3 0 -0.2
v -0.2 0 -0.2
v -0.1 0 -0.2
v 0.2 0 -0.2
v 0.3 0 -0.2
v 0.5 0 -0.2
v 0.6 0 -0.2
v -0.5 0 -0.3
v -0.4 0 -0.3
v -0.3 0 -0.3
v -0.2 0 -0.3
v -0.1 0 -0.3
v 0 0 -0.3
v 0.1 0 -0.3
v 0.2 0 -0.3
v 0.3 0 -0.3
v 0.4 0 -0.3
v 0.5 0 -0.3
v 0.6 0 -0.3
v -0.4 0 -0.4
v -0.3 0 -0.4
v -0.1 0 -0.4
v 0 0 -0.4
v 0.1 0 -0.4
v 0.2 0 -0.4
v 0.3 0 -0.4
v 0.4 0 -0.4
v 0.5 0 -0.4
v -0.3 0 -0.5
v -0.2 0 -0.5
v -0.1 0 -0.5
v 0.3 0 -0.5
v 0.4 0 -0.5
v -0.2 0 -0.6
v -0.1 0 -0.6
v 0.3 0 -0.6
v -0.2 0.2 0.5
v 0.3 0.2 0.5
v -0.3 0.2 0.4
v -0.2 0.2 0.4
v 0.3 0.2 0.4
v 0.4 0.2 0.4
v -0.4 0.2 0.3
v -0.3 0.2 0.3
v -0.2 0.2 0.3
v 0.3 0.2 0.3
v 0.4 0.2 0.3
v 0.5 0.2 0.3
v -0.5 0.2 0.2
v -0.4 0.2 0.2
v -0.3 0.2 0.2
v -0.1 0.2 0.2
v 0.2 0.2 0.2
v 0.4 0.2 0.2
v 0.5 0.2 0.2
v 0.6 0.2 0.2
v -0.2 0.2 0.1
v -0.1 0.2 0.1
v 0.2 0.2 0.1
v 0.3 0.2 0.1
v -0.2 0.2 -0.2
v -0.1 0.2 -0.2
v 0.2 0.2 -0.2
v 0.3 0.2 -0.2
v -0.5 0.2 -0.3
v -0.4 0.2 -0.3
v -0.3 0.2 -0.3
v -0.1 0.2 -0.3
v 0.2 0.2 -0.3
v 0.4 0.2 -0.3
v 0.5 0.2 -0.3
v 0.6 0.2 -0.3
v -0.4 0.2 -0.4
v -0.3 0.2 -0.4
v -0.2 0.2 -0.4
v 0.3 0.2 -0.4
v 0.4 0.2 -0.4
v 0.5 0.2 -0.4
v -0.3 0.2 -0.5
v -0.2 0.2 -0.5
v 0.3 0.2 -0.5
v 0.4 0.2 -0.5
v -0.2 0.2 -0.6
v 0.3 0.2 -0.6

# faces
f 5/2/1 2/2/1 1/2/1
f 6/3/1 3/3/1 2/3/1
f 6/2/1 2/2/1 5/2/1
f 7/2/1 4/2/1 3/2/1
f 7/3/1 3/3/1 6/3/1
f 8/2/1 4/2/1 7/2/1
f 9/1/1 6/1/1 5/1/1
f 9/1/1 7/1/1 6/1/1
f 9/1/1 8/1/1 7/1/1
f 10/1/1 8/1/1 9/1/1
f 15/2/1 12/2/1 11/2/1
f 16/2/1 12/2/1 15/2/1
f 17/4/1 14/4/1 13/4/1
f 18/4/1 14/4/1 17/4/1
f 19/1/1 16/1/1 15/1/1
f 20/1/1 16/1/1 19/1/1
f 21/1/1 18/1/1 17/1/1
f 22/1/1 18/1/1 21/1/1
f 27/2/1 24/2/1 23/2/1
f 28/2/1 24/2/1 27/2/1
f 29/4/1 26/4/1 25/4/1
f 30/4/1 26/4/1 29/4/1
f 31/1/1 28/1/1 27/1/1
f 32/1/1 28/1/1 31/1/1
f 33/1/1 30/1/1 29/1/1
f 34/1/1 30/1/1 33/1/1
f 39/3/1 36/3/1 35/3/1
f 40/3/1 36/3/1 39/3/1
f 41/4/1 38/4/1 37/4/1
f 42/4/1 38/4/1 41/4/1
f 43/1/1 40/1/1 39/1/1
f 44/1/1 40/1/1 43/1/1
f 45/1/1 42/1/1 41/1/1
f 46/1/1 42/1/1 45/1/1
f 51/2/1 48/2/1 47/2/1
f 52/2/1 48/2/1 51/2/1
f 53/2/1 50/2/1 49/2/1
f 54/2/1 50/2/1 53/2/1
f 55/3/1 52/3/1 51/3/1
f 56/3/1 52/3/1 55/3/1
f 57/3/1 54/3/1 53/3/1
f 58/3/1 54/3/1 57/3/1
f 62/2/1 60/2/1 59/2/1
f 63/3/1 61/3/1 60/3/1
f 63/2/1 60/2/1 62/2/1
f 64/3/1 61/3/1 63/3/1
f 65/3/1 63/3/1 62/3/1
f 65/3/1 64/3/1 63/3/1
f 66/3/1 64/3/1 65/3/1
f 67/3/2 68/3/2 69/3/2
f 67/3/2 69/3/2 70/3/2
f 70/3/2 69/3/2 71/3/2
f 72/3/2 73/3/2 76/3/2
f 74/2/2 75/2/2 77/2/2
f 77/2/2 75/2/2 78/2/2
f 76/3/2 73/3/2 79/3/2
f 79/3/2 73/3/2 80/3/2
f 77/3/2 78/3/2 81/3/2
f 81/3/2 78/3/2 82/3/2
f 83/3/2 84/3/2 87/3/2
f 87/3/2 84/3/2 88/3/2
f 85/3/2 86/3/2 89/3/2
f 89/3/2 86/3/2 90/3/2
f 87/1/2 88/1/2 91/1/2
f 91/1/2 88/1/2 92/1/2
f 89/1/2 90/1/2 93/1/2
f 93/1/2 90/1/2 94/1/2
f 95/3/2 96/3/2 99/3/2
f 99/3/2 96/3/2 100/3/2
f 97/4/2 98/4/2 101/4/2
f 101/4/2 98/4/2 102/4/2
f 99/1/2 100/1/2 103/1/2
f 103/1/2 100/1/2 104/1/2
f 101/1/2 102/1/2 105/1/2
f 105/1/2 102/1/2 106/1/2
f 107/2/2 108/2/2 111/2/2
f 111/2/2 108/2/2 112/2/2
f 109/2/2 110/2/2 113/2/2
f 113/2/2 110/2/2 114/2/2
f 111/1/2 112/1/2 115/1/2
f 115/1/2 112/1/2 116/1/2
f 113/1/2 114/1/2 117/1/2
f 117/1/2 114/1/2 118/1/2
f 119/1/2 120/1/2 123/1/2
f 120/3/2 121/3/2 123/3/2
f 121/4/2 122/4/2 124/4/2
f 123/3/2 121/3/2 124/3/2
f 124/4/2 122/4/2 125/4/2
f 119/1/2 123/1/2 126/1/2
f 123/1/2 124/1/2 126/1/2
f 124/1/2 125/1/2 126/1/2
f 126/1/2 125/1/2 127/1/2
f 131/3/3 129/3/3 128/3/3
f 132/1/3 130/1/3 129/1/3
f 132/3/3 129/3/3 131/3/3
f 133/1/3 130/1/3 132/1/3
f 137/2/3 135/2/3 134/2/3
f 138/1/3 136/1/3 135/1/3
f 138/2/3 135/2/3 137/2/3
f 139/1/3 136/1/3 138/1/3
f 143/3/3 141/3/3 140/3/3
f 144/1/3 142/1/3 141/1/3
f 144/3/3 141/3/3 143/3/3
f 145/1/3 142/1/3 144/1/3
f 149/2/3 147/2/3 146/2/3
f 150/1/3 148/1/3 147/1/3
f 150/2/3 147/2/3 149/2/3
f 151/1/3 148/1/3 150/1/3
f 155/2/3 153/2/3 152/2/3
f 156/1/3 154/1/3 153/1/3
f 156/2/3 153/2/3 155/2/3
f 157/1/3 154/1/3 156/1/3
f 161/2/3 159/2/3 158/2/3
f 162/1/3 160/1/3 159/1/3
f 162/2/3 159/2/3 161/2/3
f 163/1/3 160/1/3 162/1/3
f 167/1/3 165/1/3 164/1/3
f 167/1/3 166/1/3 165/1/3
f 168/1/3 166/1/3 167/1/3
f 172/2/3 170/2/3 169/2/3
f 173/3/3 171/3/3 170/3/3
f 173/2/3 170/2/3 172/2/3
f 174/3/3 171/3/3 173/3/3
f 178/2/3 176/2/3 175/2/3
f 179/3/3 177/3/3 176/3/3
f 179/2/3 176/2/3 178/2/3
f 180/3/3 177/3/3 179/3/3
f 184/2/3 182/2/3 181/2/3
f 185/3/3 183/3/3 182/3/3
f 185/2/3 182/2/3 184/2/3
f 186/3/3 185/3/3 184/3/3
f 187/3/3 183/3/3 185/3/3
f 187/3/3 185/3/3 186/3/3
f 188/2/3 187/2/3 186/2/3
f 189/3/3 183/3/3 187/3/3
f 189/2/3 187/2/3 188/2/3
f 190/3/3 183/3/3 189/3/3
f 191/2/4 192/2/4 194/2/4
f 192/3/4 193/3/4 195/3/4
f 194/2/4 192/2/4 195/2/4
f 194/3/4 195/3/4 196/3/4
f 195/3/4 193/3/4 197/3/4
f 196/3/4 195/3/4 197/3/4
f 196/2/4 197/2/4 198/2/4
f 197/3/4 193/3/4 199/3/4
f 198/2/4 197/2/4 199/2/4
f 199/3/4 193/3/4 200/3/4
f 201/3/4 202/3/4 203/3/4
f 203/3/4 202/3/4 204/3/4
f 205/2/4 206/2/4 208/2/4
f 206/3/4 207/3/4 209/3/4
f 208/2/4 206/2/4 209/2/4
f 209/3/4 207/3/4 210/3/4
f 211/2/4 212/2/4 214/2/4
f 212/1/4 213/1/4 215/1/4
f 214/2/4 212/2/4 215/2/4
f 215/1/4 213/1/4 216/1/4
f 217/4/4 218/4/4 220/4/4
f 218/1/4 219/1/4 221/1/4
f 220/4/4 218/4/4 221/4/4
f 221/1/4 219/1/4 222/1/4
f 223/4/4 224/4/4 226/4/4
f 224/1/4 225/1/4 227/1/4
f 226/4/4 224/4/4 227/4/4
f 227/1/4 225/1/4 228/1/4
f 229/2/4 230/2/4 232/2/4
f 230/1/4 231/1/4 233/1/4
f 232/2/4 230/2/4 233/2/4
f 233/1/4 231/1/4 234/1/4
f 235/4/4 236/4/4 238/4/4
f 236/1/4 237/1/4 239/1/4
f 238/4/4 236/4/4 239/4/4
f 239/1/4 237/1/4 240/1/4
f 241/4/4 242/4/4 244/4/4
f 242/1/4 243/1/4 245/1/4
f 244/4/4 242/4/4 245/4/4
f 245/1/4 243/1/4 246/1/4
f 247/4/4 248/4/4 250/4/4
f 248/1/4 249/1/4 251/1/4
f 250/4/4 248/4/4 251/4/4
f 250/3/4 251/3/4 252/3/4
f 251/1/4 249/1/4 253/1/4
f 252/3/4 251/3/4 253/3/4
f 253/1/4 249/1/4 254/1/4
f 258/3/5 256/3/5 255/3/5
f 259/3/5 256/3/5 258/3/5
f 262/2/5 258/2/5 257/2/5
f 263/3/5 260/3/5 259/3/5
f 263/3/5 259/3/5 258/3/5
f 263/2/5 258/2/5 262/2/5
f 264/3/5 260/3/5 263/3/5
f 265/3/5 260/3/5 264/3/5
f 266/3/5 260/3/5 265/3/5
f 267/3/5 260/3/5 266/3/5
f 268/3/5 260/3/5 267/3/5
f 271/2/5 262/2/5 261/2/5
f 272/3/5 263/3/5 262/3/5
f 272/3/5 264/3/5 263/3/5
f 272/2/5 262/2/5 271/2/5
f 273/2/5 265/2/5 264/2/5
f 273/3/5 264/3/5 272/3/5
f 274/3/5 266/3/5 265/3/5
f 274/2/5 265/2/5 273/2/5
f 275/2/5 267/2/5 266/2/5
f 275/3/5 266/3/5 274/3/5
f 276/3/5 268/3/5 267/3/5
f 276/2/5 267/2/5 275/2/5
f 277/2/5 269/2/5 268/2/5
f 277/3/5 268/3/5 276/3/5
f 278/2/5 269/2/5 277/2/5
f 280/2/5 271/2/5 270/2/5
f 281/3/5 272/3/5 271/3/5
f 281/2/5 271/2/5 280/2/5
f 281/3/5 273/3/5 272/3/5
f 282/3/5 273/3/5 281/3/5
f 283/3/5 273/3/5 282/3/5
f 284/2/5 277/2/5 276/2/5
f 285/2/5 277/2/5 284/2/5
f 286/3/5 278/3/5 277/3/5
f 286/2/5 277/2/5 285/2/5
f 287/1/5 279/1/5 278/1/5
f 287/3/5 278/3/5 286/3/5
f 288/1/5 279/1/5 287/1/5
f 289/2/5 286/2/5 285/2/5
f 289/2/5 287/2/5 286/2/5
f 290/3/5 288/3/5 287/3/5
f 290/2/5 287/2/5 289/2/5
f 291/2/5 289/2/5 285/2/5
f 292/3/5 290/3/5 289/3/5
f 292/2/5 289/2/5 291/2/5
f 293/3/5 281/3/5 280/3/5
f 293/3/5 282/3/5 281/3/5
f 294/3/5 282/3/5 293/3/5
f 295/3/5 282/3/5 294/3/5
f 296/3/5 282/3/5 295/3/5
f 299/3/5 292/3/5 291/3/5
f 300/3/5 288/3/5 290/3/5
f 300/3/5 290/3/5 292/3/5
f 300/3/5 292/3/5 299/3/5
f 301/3/5 288/3/5 300/3/5
f 302/2/5 294/2/5 293/2/5
f 303/4/5 295/4/5 294/4/5
f 303/2/5 294/2/5 302/2/5
f 304/3/5 296/3/5 295/3/5
f 304/4/5 295/4/5 303/4/5
f 305/2/5 297/2/5 296/2/5
f 305/3/5 296/3/5 304/3/5
f 306/2/5 297/2/5 305/2/5
f 309/2/5 299/2/5 298/2/5
f 310/3/5 300/3/5 299/3/5
f 310/2/5 299/2/5 309/2/5
f 311/3/5 300/3/5 310/3/5
f 312/4/5 301/4/5 300/4/5
f 312/3/5 300/3/5 311/3/5
f 313/4/5 301/4/5 312/4/5
f 314/4/5 304/4/5 303/4/5
f 314/4/5 305/4/5 304/4/5
f 315/4/5 305/4/5 314/4/5
f 316/3/5 306/3/5 305/3/5
f 316/2/5 307/2/5 306/2/5
f 317/3/5 308/3/5 307/3/5
f 317/2/5 307/2/5 316/2/5
f 318/2/5 309/2/5 308/2/5
f 318/3/5 308/3/5 317/3/5
f 319/3/5 311/3/5 310/3/5
f 319/2/5 309/2/5 318/2/5
f 319/3/5 310/3/5 309/3/5
f 320/3/5 311/3/5 319/3/5
f 321/2/5 312/2/5 311/2/5
f 321/3/5 311/3/5 320/3/5
f 322/2/5 312/2/5 321/2/5
f 323/4/5 305/4/5 315/4/5
f 324/3/5 316/3/5 305/3/5
f 324/4/5 305/4/5 323/4/5
f 324/3/5 320/3/5 319/3/5
f 324/3/5 319/3/5 318/3/5
f 324/3/5 317/3/5 316/3/5
f 324/3/5 318/3/5 317/3/5
f 325/3/5 320/3/5 324/3/5
f 326/4/5 321/4/5 320/4/5
f 326/3/5 320/3/5 325/3/5
f 327/4/5 321/4/5 326/4/5
f 328/4/5 325/4/5 324/4/5
f 329/3/5 326/3/5 325/3/5
f 329/4/5 325/4/5 328/4/5
f 330/3/5 326/3/5 329/3/5
f 331/1/6 332/1/6 334/1/6
f 334/1/6 332/1/6 335/1/6
f 333/1/6 334/1/6 338/1/6
f 334/3/6 335/3/6 339/3/6
f 338/1/6 334/1/6 339/1/6
f 335/1/6 336/1/6 340/1/6
f 339/3/6 335/3/6 340/3/6
f 340/1/6 336/1/6 341/1/6
f 337/1/6 338/1/6 344/1/6
f 338/3/6 339/3/6 345/3/6
f 339/3/6 340/3/6 345/3/6
f 344/1/6 338/1/6 345/1/6
f 340/3/6 341/3/6 345/3/6
f 345/3/6 341/3/6 346/3/6
f 346/3/6 341/3/6 347/3/6
f 341/1/6 342/1/6 348/1/6
f 347/3/6 341/3/6 348/3/6
f 348/1/6 342/1/6 349/1/6
f 344/3/6 345/3/6 351/3/6
f 345/3/6 346/3/6 351/3/6
f 351/3/6 346/3/6 352/3/6
f 348/3/6 349/3/6 353/3/6
f 347/3/6 348/3/6 353/3/6
f 353/3/6 349/3/6 354/3/6
f 344/3/6 351/3/6 355/3/6
f 354/3/6 349/3/6 358/3/6
f 343/1/6 344/1/6 359/1/6
f 355/3/6 356/3/6 360/3/6
f 359/1/6 344/1/6 360/1/6
f 344/3/6 355/3/6 360/3/6
f 360/3/6 356/3/6 361/3/6
f 361/3/6 356/3/6 362/3/6
f 357/3/6 358/3/6 363/3/6
f 358/3/6 349/3/6 364/3/6
f 363/3/6 358/3/6 364/3/6
f 349/1/6 350/1/6 365/1/6
f 364/3/6 349/3/6 365/3/6
f 365/1/6 350/1/6 366/1/6
f 360/1/6 361/1/6 367/1/6
f 361/3/6 362/3/6 368/3/6
f 367/1/6 361/1/6 368/1/6
f 363/3/6 364/3/6 368/3/6
f 362/3/6 363/3/6 368/3/6
f 368/3/6 364/3/6 369/3/6
f 369/3/6 364/3/6 370/3/6
f 364/1/6 365/1/6 371/1/6
f 370/3/6 364/3/6 371/3/6
f 371/1/6 365/1/6 372/1/6
f 368/1/6 369/1/6 373/1/6
f 369/3/6 370/3/6 374/3/6
f 373/1/6 369/1/6 374/1/6
f 370/1/6 371/1/6 375/1/6
f 374/3/6 370/3/6 375/3/6
f 375/1/6 371/1/6 376/1/6
f 374/1/6 375/1/6 377/1/6
f 377/1/6 375/1/6 378/1/6
