# MagicaVoxel @ Ephtracy

# group
o 

# material
mtllib queso_quemado.mtl
usemtl palette

# normals
vn -1 0 0
vn 1 0 0
vn 0 0 1
vn 0 0 -1
vn 0 -1 0
vn 0 1 0

# texcoords
vt 0.908203 0.5
vt 0.939453 0.5
vt 0.970703 0.5

# verts
v -0.5 0 0.5
v -0.5 0 -0.6
v -0.5 0.1 0.5
v -0.5 0.1 -0.6
v -0.2 0 0.3
v -0.2 0 0.2
v -0.2 0.1 0.3
v -0.2 0.1 0.2
v -0.1 0 -0.1
v -0.1 0 -0.2
v -0.1 0 -0.3
v -0.1 0.1 -0.1
v -0.1 0.1 -0.2
v -0.1 0.1 -0.3
v 0.1 0 -5.96046e-08
v 0.1 0 -0.1
v 0.1 0 -0.3
v 0.1 0 -0.4
v 0.1 0.1 -5.96046e-08
v 0.1 0.1 -0.1
v 0.1 0.1 -0.3
v 0.1 0.1 -0.4
v 0.2 0 0.3
v 0.2 0 0.1
v 0.2 0.1 0.3
v 0.2 0.1 0.1
v 0.4 0 0.1
v 0.4 0 -5.96046e-08
v 0.4 0 -0.2
v 0.4 0 -0.4
v 0.4 0.1 0.1
v 0.4 0.1 -5.96046e-08
v 0.4 0.1 -0.2
v 0.4 0.1 -0.4
v -0.3 0 0.3
v -0.3 0 0.2
v -0.3 0 -0.1
v -0.3 0 -0.3
v -0.3 0.1 0.3
v -0.3 0.1 0.2
v -0.3 0.1 -0.1
v -0.3 0.1 -0.3
v 5.96046e-08 0 0.3
v 5.96046e-08 0 0.2
v 5.96046e-08 0 0.1
v 5.96046e-08 0 -5.96046e-08
v 5.96046e-08 0 -0.1
v 5.96046e-08 0 -0.3
v 5.96046e-08 0 -0.4
v 5.96046e-08 0.1 0.3
v 5.96046e-08 0.1 0.2
v 5.96046e-08 0.1 0.1
v 5.96046e-08 0.1 -5.96046e-08
v 5.96046e-08 0.1 -0.1
v 5.96046e-08 0.1 -0.3
v 5.96046e-08 0.1 -0.4
v 0.2 0 -0.2
v 0.2 0 -0.4
v 0.2 0.1 -0.2
v 0.2 0.1 -0.4
v 0.3 0 0.1
v 0.3 0 -5.96046e-08
v 0.3 0.1 0.1
v 0.3 0.1 -5.96046e-08
v 0.6 0 0.5
v 0.6 0 -0.6
v 0.6 0.1 0.5
v 0.6 0.1 -0.6
v -0.5 0 0.5
v -0.5 0.1 0.5
v 0.6 0 0.5
v 0.6 0.1 0.5
v -0.3 0 0.2
v -0.3 0.1 0.2
v -0.2 0 0.2
v -0.2 0.1 0.2
v 5.96046e-08 0 0.1
v 5.96046e-08 0.1 0.1
v 0.2 0 0.1
v 0.2 0.1 0.1
v 0.3 0 -5.96046e-08
v 0.3 0.1 -5.96046e-08
v 0.4 0 -5.96046e-08
v 0.4 0.1 -5.96046e-08
v 5.96046e-08 0 -0.1
v 5.96046e-08 0.1 -0.1
v 0.1 0 -0.1
v 0.1 0.1 -0.1
v -0.3 0 -0.3
v -0.3 0.1 -0.3
v -0.2 0 -0.3
v -0.2 0.1 -0.3
v -0.1 0 -0.3
v -0.1 0.1 -0.3
v 5.96046e-08 0 -0.4
v 5.96046e-08 0.1 -0.4
v 0.1 0 -0.4
v 0.1 0.1 -0.4
v 0.2 0 -0.4
v 0.2 0.1 -0.4
v 0.4 0 -0.4
v 0.4 0.1 -0.4
v -0.3 0 0.3
v -0.3 0.1 0.3
v -0.2 0 0.3
v -0.2 0.1 0.3
v 5.96046e-08 0 0.3
v 5.96046e-08 0.1 0.3
v 0.2 0 0.3
v 0.2 0.1 0.3
v 0.3 0 0.1
v 0.3 0.1 0.1
v 0.4 0 0.1
v 0.4 0.1 0.1
v 5.96046e-08 0 -5.96046e-08
v 5.96046e-08 0.1 -5.96046e-08
v 0.1 0 -5.96046e-08
v 0.1 0.1 -5.96046e-08
v -0.3 0 -0.1
v -0.3 0.1 -0.1
v -0.2 0 -0.1
v -0.2 0.1 -0.1
v -0.1 0 -0.1
v -0.1 0.1 -0.1
v 0.2 0 -0.2
v 0.2 0.1 -0.2
v 0.3 0 -0.2
v 0.3 0.1 -0.2
v 0.4 0 -0.2
v 0.4 0.1 -0.2
v 5.96046e-08 0 -0.3
v 5.96046e-08 0.1 -0.3
v 0.1 0 -0.3
v 0.1 0.1 -0.3
v -0.5 0 -0.6
v -0.5 0.1 -0.6
v 0.6 0 -0.6
v 0.6 0.1 -0.6
v -0.5 0 0.5
v 0.6 0 0.5
v -0.4 0 0.4
v 0.5 0 0.4
v -0.3 0 0.3
v -0.2 0 0.3
v -0.1 0 0.3
v 5.96046e-08 0 0.3
v 0.2 0 0.3
v 0.3 0 0.3
v -0.3 0 0.2
v -0.2 0 0.2
v -0.1 0 0.2
v 5.96046e-08 0 0.2
v -0.3 0 0.1
v -0.2 0 0.1
v 5.96046e-08 0 0.1
v 0.2 0 0.1
v 0.3 0 0.1
v 0.4 0 0.1
v -0.3 0 -5.96046e-08
v -0.2 0 -5.96046e-08
v -0.1 0 -5.96046e-08
v 5.96046e-08 0 -5.96046e-08
v 0.1 0 -5.96046e-08
v 0.3 0 -5.96046e-08
v 0.4 0 -5.96046e-08
v -0.3 0 -0.1
v -0.2 0 -0.1
v -0.1 0 -0.1
v 5.96046e-08 0 -0.1
v 0.1 0 -0.1
v 0.2 0 -0.1
v 0.3 0 -0.1
v 0.4 0 -0.1
v -0.1 0 -0.2
v 5.96046e-08 0 -0.2
v 0.2 0 -0.2
v 0.3 0 -0.2
v 0.4 0 -0.2
v -0.3 0 -0.3
v -0.2 0 -0.3
v -0.1 0 -0.3
v 5.96046e-08 0 -0.3
v 0.1 0 -0.3
v 5.96046e-08 0 -0.4
v 0.1 0 -0.4
v 0.2 0 -0.4
v 0.4 0 -0.4
v -0.4 0 -0.5
v -0.3 0 -0.5
v -0.2 0 -0.5
v 0.1 0 -0.5
v 0.2 0 -0.5
v 0.5 0 -0.5
v -0.5 0 -0.6
v 0.6 0 -0.6
v -0.5 0.1 0.5
v 0.6 0.1 0.5
v -0.4 0.1 0.4
v 0.5 0.1 0.4
v -0.3 0.1 0.3
v -0.2 0.1 0.3
v -0.1 0.1 0.3
v 5.96046e-08 0.1 0.3
v 0.2 0.1 0.3
v 0.3 0.1 0.3
v -0.3 0.1 0.2
v -0.2 0.1 0.2
v -0.1 0.1 0.2
v 5.96046e-08 0.1 0.2
v -0.3 0.1 0.1
v -0.2 0.1 0.1
v 5.96046e-08 0.1 0.1
v 0.2 0.1 0.1
v 0.3 0.1 0.1
v 0.4 0.1 0.1
v -0.3 0.1 -5.96046e-08
v -0.2 0.1 -5.96046e-08
v -0.1 0.1 -5.96046e-08
v 5.96046e-08 0.1 -5.96046e-08
v 0.1 0.1 -5.96046e-08
v 0.3 0.1 -5.96046e-08
v 0.4 0.1 -5.96046e-08
v -0.3 0.1 -0.1
v -0.2 0.1 -0.1
v -0.1 0.1 -0.1
v 5.96046e-08 0.1 -0.1
v 0.1 0.1 -0.1
v 0.2 0.1 -0.1
v 0.3 0.1 -0.1
v 0.4 0.1 -0.1
v -0.1 0.1 -0.2
v 5.96046e-08 0.1 -0.2
v 0.2 0.1 -0.2
v 0.3 0.1 -0.2
v 0.4 0.1 -0.2
v -0.3 0.1 -0.3
v -0.2 0.1 -0.3
v -0.1 0.1 -0.3
v 5.96046e-08 0.1 -0.3
v 0.1 0.1 -0.3
v 5.96046e-08 0.1 -0.4
v 0.1 0.1 -0.4
v 0.2 0.1 -0.4
v 0.4 0.1 -0.4
v -0.4 0.1 -0.5
v -0.3 0.1 -0.5
v -0.2 0.1 -0.5
v 0.1 0.1 -0.5
v 0.2 0.1 -0.5
v 0.5 0.1 -0.5
v -0.5 0.1 -0.6
v 0.6 0.1 -0.6

# faces
f 3/3/1 2/3/1 1/3/1
f 4/3/1 2/3/1 3/3/1
f 7/2/1 6/2/1 5/2/1
f 8/2/1 6/2/1 7/2/1
f 12/1/1 10/1/1 9/1/1
f 13/2/1 11/2/1 10/2/1
f 13/1/1 10/1/1 12/1/1
f 14/2/1 11/2/1 13/2/1
f 19/2/1 16/2/1 15/2/1
f 20/2/1 16/2/1 19/2/1
f 21/2/1 18/2/1 17/2/1
f 22/2/1 18/2/1 21/2/1
f 25/1/1 24/1/1 23/1/1
f 26/1/1 24/1/1 25/1/1
f 31/2/1 28/2/1 27/2/1
f 32/2/1 28/2/1 31/2/1
f 33/2/1 30/2/1 29/2/1
f 34/2/1 30/2/1 33/2/1
f 35/2/2 36/2/2 39/2/2
f 39/2/2 36/2/2 40/2/2
f 37/2/2 38/2/2 41/2/2
f 41/2/2 38/2/2 42/2/2
f 43/1/2 44/1/2 50/1/2
f 44/2/2 45/2/2 51/2/2
f 50/1/2 44/1/2 51/1/2
f 51/2/2 45/2/2 52/2/2
f 46/1/2 47/1/2 53/1/2
f 53/1/2 47/1/2 54/1/2
f 48/2/2 49/2/2 55/2/2
f 55/2/2 49/2/2 56/2/2
f 57/2/2 58/2/2 59/2/2
f 59/2/2 58/2/2 60/2/2
f 61/2/2 62/2/2 63/2/2
f 63/2/2 62/2/2 64/2/2
f 65/3/2 66/3/2 67/3/2
f 67/3/2 66/3/2 68/3/2
f 71/3/3 70/3/3 69/3/3
f 72/3/3 70/3/3 71/3/3
f 75/1/3 74/1/3 73/1/3
f 76/1/3 74/1/3 75/1/3
f 79/2/3 78/2/3 77/2/3
f 80/2/3 78/2/3 79/2/3
f 83/1/3 82/1/3 81/1/3
f 84/1/3 82/1/3 83/1/3
f 87/2/3 86/2/3 85/2/3
f 88/2/3 86/2/3 87/2/3
f 91/1/3 90/1/3 89/1/3
f 92/1/3 90/1/3 91/1/3
f 93/2/3 92/2/3 91/2/3
f 94/2/3 92/2/3 93/2/3
f 97/2/3 96/2/3 95/2/3
f 98/2/3 96/2/3 97/2/3
f 101/2/3 100/2/3 99/2/3
f 102/2/3 100/2/3 101/2/3
f 103/2/4 104/2/4 105/2/4
f 105/2/4 104/2/4 106/2/4
f 107/2/4 108/2/4 109/2/4
f 109/2/4 108/2/4 110/2/4
f 111/2/4 112/2/4 113/2/4
f 113/2/4 112/2/4 114/2/4
f 115/2/4 116/2/4 117/2/4
f 117/2/4 116/2/4 118/2/4
f 119/1/4 120/1/4 121/1/4
f 121/1/4 120/1/4 122/1/4
f 121/2/4 122/2/4 123/2/4
f 123/2/4 122/2/4 124/2/4
f 125/1/4 126/1/4 127/1/4
f 127/1/4 126/1/4 128/1/4
f 127/2/4 128/2/4 129/2/4
f 129/2/4 128/2/4 130/2/4
f 131/2/4 132/2/4 133/2/4
f 133/2/4 132/2/4 134/2/4
f 135/3/4 136/3/4 137/3/4
f 137/3/4 136/3/4 138/3/4
f 141/3/5 140/3/5 139/3/5
f 142/3/5 140/3/5 141/3/5
f 143/2/5 142/2/5 141/2/5
f 144/2/5 142/2/5 143/2/5
f 145/2/5 142/2/5 144/2/5
f 146/2/5 142/2/5 145/2/5
f 147/2/5 142/2/5 146/2/5
f 148/2/5 142/2/5 147/2/5
f 149/2/5 143/2/5 141/2/5
f 150/2/5 145/2/5 144/2/5
f 151/1/5 146/1/5 145/1/5
f 151/2/5 145/2/5 150/2/5
f 152/1/5 146/1/5 151/1/5
f 153/2/5 149/2/5 141/2/5
f 153/1/5 150/1/5 149/1/5
f 154/2/5 152/2/5 151/2/5
f 154/1/5 150/1/5 153/1/5
f 154/2/5 151/2/5 150/2/5
f 155/2/5 152/2/5 154/2/5
f 156/1/5 148/1/5 147/1/5
f 157/2/5 142/2/5 148/2/5
f 157/1/5 148/1/5 156/1/5
f 158/2/5 142/2/5 157/2/5
f 159/2/5 156/2/5 155/2/5
f 159/2/5 155/2/5 154/2/5
f 159/2/5 157/2/5 156/2/5
f 159/2/5 154/2/5 153/2/5
f 159/2/5 153/2/5 141/2/5
f 160/2/5 157/2/5 159/2/5
f 161/2/5 157/2/5 160/2/5
f 162/2/5 157/2/5 161/2/5
f 163/2/5 157/2/5 162/2/5
f 164/2/5 157/2/5 163/2/5
f 165/2/5 142/2/5 158/2/5
f 166/2/5 159/2/5 141/2/5
f 166/1/5 160/1/5 159/1/5
f 167/2/5 161/2/5 160/2/5
f 167/1/5 160/1/5 166/1/5
f 168/1/5 162/1/5 161/1/5
f 168/2/5 161/2/5 167/2/5
f 169/1/5 162/1/5 168/1/5
f 170/2/5 164/2/5 163/2/5
f 171/2/5 164/2/5 170/2/5
f 172/1/5 165/1/5 164/1/5
f 172/2/5 164/2/5 171/2/5
f 173/2/5 142/2/5 165/2/5
f 173/1/5 165/1/5 172/1/5
f 174/1/5 169/1/5 168/1/5
f 175/2/5 171/2/5 170/2/5
f 175/1/5 169/1/5 174/1/5
f 175/2/5 170/2/5 169/2/5
f 176/1/5 172/1/5 171/1/5
f 176/2/5 171/2/5 175/2/5
f 177/2/5 173/2/5 172/2/5
f 177/1/5 172/1/5 176/1/5
f 178/2/5 142/2/5 173/2/5
f 178/2/5 173/2/5 177/2/5
f 179/2/5 166/2/5 141/2/5
f 181/2/5 175/2/5 174/2/5
f 181/2/5 176/2/5 175/2/5
f 182/2/5 176/2/5 181/2/5
f 183/2/5 176/2/5 182/2/5
f 184/2/5 181/2/5 180/2/5
f 184/2/5 182/2/5 181/2/5
f 185/2/5 176/2/5 183/2/5
f 186/2/5 176/2/5 185/2/5
f 187/2/5 142/2/5 178/2/5
f 188/3/5 141/3/5 139/3/5
f 188/2/5 179/2/5 141/2/5
f 189/1/5 180/1/5 179/1/5
f 189/2/5 179/2/5 188/2/5
f 190/2/5 184/2/5 180/2/5
f 190/1/5 180/1/5 189/1/5
f 190/2/5 185/2/5 184/2/5
f 191/1/5 186/1/5 185/1/5
f 191/2/5 185/2/5 190/2/5
f 192/2/5 187/2/5 186/2/5
f 192/1/5 186/1/5 191/1/5
f 193/3/5 140/3/5 142/3/5
f 193/2/5 187/2/5 192/2/5
f 193/2/5 142/2/5 187/2/5
f 194/3/5 191/3/5 190/3/5
f 194/3/5 192/3/5 191/3/5
f 194/3/5 193/3/5 192/3/5
f 194/3/5 190/3/5 189/3/5
f 194/3/5 189/3/5 188/3/5
f 194/3/5 188/3/5 139/3/5
f 195/3/5 140/3/5 193/3/5
f 195/3/5 193/3/5 194/3/5
f 196/3/6 197/3/6 198/3/6
f 198/3/6 197/3/6 199/3/6
f 198/2/6 199/2/6 200/2/6
f 200/2/6 199/2/6 201/2/6
f 201/2/6 199/2/6 202/2/6
f 202/2/6 199/2/6 203/2/6
f 203/2/6 199/2/6 204/2/6
f 204/2/6 199/2/6 205/2/6
f 198/2/6 200/2/6 206/2/6
f 201/2/6 202/2/6 207/2/6
f 202/1/6 203/1/6 208/1/6
f 207/2/6 202/2/6 208/2/6
f 208/1/6 203/1/6 209/1/6
f 198/2/6 206/2/6 210/2/6
f 206/1/6 207/1/6 210/1/6
f 208/2/6 209/2/6 211/2/6
f 210/1/6 207/1/6 211/1/6
f 207/2/6 208/2/6 211/2/6
f 211/2/6 209/2/6 212/2/6
f 204/1/6 205/1/6 213/1/6
f 205/2/6 199/2/6 214/2/6
f 213/1/6 205/1/6 214/1/6
f 214/2/6 199/2/6 215/2/6
f 212/2/6 213/2/6 216/2/6
f 211/2/6 212/2/6 216/2/6
f 213/2/6 214/2/6 216/2/6
f 210/2/6 211/2/6 216/2/6
f 198/2/6 210/2/6 216/2/6
f 216/2/6 214/2/6 217/2/6
f 217/2/6 214/2/6 218/2/6
f 218/2/6 214/2/6 219/2/6
f 219/2/6 214/2/6 220/2/6
f 220/2/6 214/2/6 221/2/6
f 215/2/6 199/2/6 222/2/6
f 198/2/6 216/2/6 223/2/6
f 216/1/6 217/1/6 223/1/6
f 217/2/6 218/2/6 224/2/6
f 223/1/6 217/1/6 224/1/6
f 218/1/6 219/1/6 225/1/6
f 224/2/6 218/2/6 225/2/6
f 225/1/6 219/1/6 226/1/6
f 220/2/6 221/2/6 227/2/6
f 227/2/6 221/2/6 228/2/6
f 221/1/6 222/1/6 229/1/6
f 228/2/6 221/2/6 229/2/6
f 222/2/6 199/2/6 230/2/6
f 229/1/6 222/1/6 230/1/6
f 225/1/6 226/1/6 231/1/6
f 227/2/6 228/2/6 232/2/6
f 231/1/6 226/1/6 232/1/6
f 226/2/6 227/2/6 232/2/6
f 228/1/6 229/1/6 233/1/6
f 232/2/6 228/2/6 233/2/6
f 229/2/6 230/2/6 234/2/6
f 233/1/6 229/1/6 234/1/6
f 230/2/6 199/2/6 235/2/6
f 234/2/6 230/2/6 235/2/6
f 198/2/6 223/2/6 236/2/6
f 231/2/6 232/2/6 238/2/6
f 232/2/6 233/2/6 238/2/6
f 238/2/6 233/2/6 239/2/6
f 239/2/6 233/2/6 240/2/6
f 237/2/6 238/2/6 241/2/6
f 238/2/6 239/2/6 241/2/6
f 240/2/6 233/2/6 242/2/6
f 242/2/6 233/2/6 243/2/6
f 235/2/6 199/2/6 244/2/6
f 196/3/6 198/3/6 245/3/6
f 198/2/6 236/2/6 245/2/6
f 236/1/6 237/1/6 246/1/6
f 245/2/6 236/2/6 246/2/6
f 237/2/6 241/2/6 247/2/6
f 246/1/6 237/1/6 247/1/6
f 241/2/6 242/2/6 247/2/6
f 242/1/6 243/1/6 248/1/6
f 247/2/6 242/2/6 248/2/6
f 243/2/6 244/2/6 249/2/6
f 248/1/6 243/1/6 249/1/6
f 199/3/6 197/3/6 250/3/6
f 249/2/6 244/2/6 250/2/6
f 244/2/6 199/2/6 250/2/6
f 247/3/6 248/3/6 251/3/6
f 248/3/6 249/3/6 251/3/6
f 249/3/6 250/3/6 251/3/6
f 246/3/6 247/3/6 251/3/6
f 245/3/6 246/3/6 251/3/6
f 196/3/6 245/3/6 251/3/6
f 250/3/6 197/3/6 252/3/6
f 251/3/6 250/3/6 252/3/6
