# MagicaVoxel @ Ephtracy

# group
o 

# material
mtllib recibidor.mtl
usemtl palette

# normals
vn -1 0 0
vn 1 0 0
vn 0 0 1
vn 0 0 -1
vn 0 -1 0
vn 0 1 0

# texcoords
vt 0.908203 0.5
vt 0.939453 0.5
vt 0.974609 0.5

# verts
v -7.5 0 2.1
v -7.5 0 -2.5
v -7.5 1.1 2.3
v -7.5 1.1 2.1
v -7.5 6.5 2.3
v -7.5 6.5 2.2
v -7.5 6.6 2.3
v -7.5 6.6 2.2
v -7.5 7.7 2.5
v -7.5 7.7 2.3
v -7.5 7.7 -2.5
v -7.5 8 2.5
v -7.5 8 -2.5
v -6 7.1 2.5
v -6 7.1 2.3
v -6 7.2 2.5
v -6 7.2 2.3
v -4.1 7.1 2.4
v -4.1 7.1 2.3
v -4.1 7.2 2.4
v -4.1 7.2 2.3
v -2.9 1.5 2.5
v -2.9 1.5 2.3
v -2.9 1.6 2.4
v -2.9 1.6 2.3
v -2.9 5.8 2.4
v -2.9 5.8 2.3
v -2.9 6 2.5
v -2.9 6 2.3
v -2.4 1.1 2.3
v -2.4 1.1 2.2
v -2.4 6.5 2.3
v -2.4 6.5 2.2
v -2.4 6.6 2.3
v -2.4 6.6 2.2
v -2.4 7.7 2.3
v -2.4 7.7 2.2
v -1 7.2 2.5
v -1 7.2 2.3
v -1 7.3 2.5
v -1 7.3 2.3
v 0.9 7.2 2.4
v 0.9 7.2 2.3
v 0.9 7.3 2.4
v 0.9 7.3 2.3
v 2.5 1.1 2.3
v 2.5 1.1 2.2
v 2.5 6.5 2.3
v 2.5 6.5 2.2
v 2.5 6.6 2.3
v 2.5 6.6 2.2
v 2.5 7.7 2.3
v 2.5 7.7 2.2
v 2.8 1.5 2.5
v 2.8 1.5 2.3
v 2.8 1.6 2.4
v 2.8 1.6 2.3
v 2.8 5.8 2.4
v 2.8 5.8 2.3
v 2.8 6 2.5
v 2.8 6 2.3
v 4 7.1 2.5
v 4 7.1 2.3
v 4 7.2 2.5
v 4 7.2 2.3
v 5.9 7.1 2.4
v 5.9 7.1 2.3
v 5.9 7.2 2.4
v 5.9 7.2 2.3
v -5.9 7.1 2.4
v -5.9 7.1 2.3
v -5.9 7.2 2.4
v -5.9 7.2 2.3
v -4 7.1 2.5
v -4 7.1 2.3
v -4 7.2 2.5
v -4 7.2 2.3
v -2.8 1.5 2.5
v -2.8 1.5 2.3
v -2.8 1.6 2.4
v -2.8 1.6 2.3
v -2.8 5.8 2.4
v -2.8 5.8 2.3
v -2.8 6 2.5
v -2.8 6 2.3
v -2.5 1.1 2.3
v -2.5 1.1 2.2
v -2.5 6.5 2.3
v -2.5 6.5 2.2
v -2.5 6.6 2.3
v -2.5 6.6 2.2
v -2.5 7.7 2.3
v -2.5 7.7 2.2
v -0.9 7.2 2.4
v -0.9 7.2 2.3
v -0.9 7.3 2.4
v -0.9 7.3 2.3
v 1 7.2 2.5
v 1 7.2 2.3
v 1 7.3 2.5
v 1 7.3 2.3
v 2.4 1.1 2.3
v 2.4 1.1 2.2
v 2.4 6.5 2.3
v 2.4 6.5 2.2
v 2.4 6.6 2.3
v 2.4 6.6 2.2
v 2.4 7.7 2.3
v 2.4 7.7 2.2
v 2.9 1.5 2.5
v 2.9 1.5 2.3
v 2.9 1.6 2.4
v 2.9 1.6 2.3
v 2.9 5.8 2.4
v 2.9 5.8 2.3
v 2.9 6 2.5
v 2.9 6 2.3
v 4.1 7.1 2.4
v 4.1 7.1 2.3
v 4.1 7.2 2.4
v 4.1 7.2 2.3
v 6 7.1 2.5
v 6 7.1 2.3
v 6 7.2 2.5
v 6 7.2 2.3
v 7.5 0 2.1
v 7.5 0 -2.5
v 7.5 1.1 2.3
v 7.5 1.1 2.1
v 7.5 6.5 2.3
v 7.5 6.5 2.2
v 7.5 6.6 2.3
v 7.5 6.6 2.2
v 7.5 7.7 2.5
v 7.5 7.7 2.3
v 7.5 7.7 -2.5
v 7.5 8 2.5
v 7.5 8 -2.5
v -7.5 7.7 2.5
v -7.5 8 2.5
v -6 7.1 2.5
v -6 7.2 2.5
v -4 7.1 2.5
v -4 7.2 2.5
v -2.9 1.5 2.5
v -2.9 6 2.5
v -2.8 1.5 2.5
v -2.8 6 2.5
v -1 7.2 2.5
v -1 7.3 2.5
v 1 7.2 2.5
v 1 7.3 2.5
v 2.8 1.5 2.5
v 2.8 6 2.5
v 2.9 1.5 2.5
v 2.9 6 2.5
v 4 7.1 2.5
v 4 7.2 2.5
v 6 7.1 2.5
v 6 7.2 2.5
v 7.5 7.7 2.5
v 7.5 8 2.5
v -7.5 1.1 2.3
v -7.5 6.5 2.3
v -7.5 6.6 2.3
v -7.5 7.7 2.3
v -6 7.1 2.3
v -6 7.2 2.3
v -5.9 7.1 2.3
v -5.9 7.2 2.3
v -4.1 7.1 2.3
v -4.1 7.2 2.3
v -4 7.1 2.3
v -4 7.2 2.3
v -2.9 1.5 2.3
v -2.9 1.6 2.3
v -2.9 5.8 2.3
v -2.9 6 2.3
v -2.8 1.5 2.3
v -2.8 1.6 2.3
v -2.8 5.8 2.3
v -2.8 6 2.3
v -2.5 1.1 2.3
v -2.5 6.5 2.3
v -2.5 6.6 2.3
v -2.5 7.7 2.3
v -2.4 1.1 2.3
v -2.4 6.5 2.3
v -2.4 6.6 2.3
v -2.4 7.7 2.3
v -1 7.2 2.3
v -1 7.3 2.3
v -0.9 7.2 2.3
v -0.9 7.3 2.3
v 0.9 7.2 2.3
v 0.9 7.3 2.3
v 1 7.2 2.3
v 1 7.3 2.3
v 2.4 1.1 2.3
v 2.4 6.5 2.3
v 2.4 6.6 2.3
v 2.4 7.7 2.3
v 2.5 1.1 2.3
v 2.5 6.5 2.3
v 2.5 6.6 2.3
v 2.5 7.7 2.3
v 2.8 1.5 2.3
v 2.8 1.6 2.3
v 2.8 5.8 2.3
v 2.8 6 2.3
v 2.9 1.5 2.3
v 2.9 1.6 2.3
v 2.9 5.8 2.3
v 2.9 6 2.3
v 4 7.1 2.3
v 4 7.2 2.3
v 4.1 7.1 2.3
v 4.1 7.2 2.3
v 5.9 7.1 2.3
v 5.9 7.2 2.3
v 6 7.1 2.3
v 6 7.2 2.3
v 7.5 1.1 2.3
v 7.5 6.5 2.3
v 7.5 6.6 2.3
v 7.5 7.7 2.3
v -7.5 6.5 2.2
v -7.5 6.6 2.2
v -2.5 1.1 2.2
v -2.5 6.5 2.2
v -2.5 6.6 2.2
v -2.5 7.7 2.2
v -2.4 1.1 2.2
v -2.4 6.5 2.2
v -2.4 6.6 2.2
v -2.4 7.7 2.2
v 2.4 1.1 2.2
v 2.4 6.5 2.2
v 2.4 6.6 2.2
v 2.4 7.7 2.2
v 2.5 1.1 2.2
v 2.5 6.5 2.2
v 2.5 6.6 2.2
v 2.5 7.7 2.2
v 7.5 6.5 2.2
v 7.5 6.6 2.2
v -7.5 0 2.1
v -7.5 1.1 2.1
v 7.5 0 2.1
v 7.5 1.1 2.1
v -5.9 7.1 2.4
v -5.9 7.2 2.4
v -4.1 7.1 2.4
v -4.1 7.2 2.4
v -2.9 1.6 2.4
v -2.9 5.8 2.4
v -2.8 1.6 2.4
v -2.8 5.8 2.4
v -0.9 7.2 2.4
v -0.9 7.3 2.4
v 0.9 7.2 2.4
v 0.9 7.3 2.4
v 2.8 1.6 2.4
v 2.8 5.8 2.4
v 2.9 1.6 2.4
v 2.9 5.8 2.4
v 4.1 7.1 2.4
v 4.1 7.2 2.4
v 5.9 7.1 2.4
v 5.9 7.2 2.4
v -7.5 0 -2.5
v -7.5 7.7 -2.5
v -7.5 8 -2.5
v 7.5 0 -2.5
v 7.5 7.7 -2.5
v 7.5 8 -2.5
v -7.5 0 2.1
v 7.5 0 2.1
v -7.5 0 -2.5
v 7.5 0 -2.5
v -7.5 1.1 2.3
v -2.5 1.1 2.3
v -2.4 1.1 2.3
v 2.4 1.1 2.3
v 2.5 1.1 2.3
v 7.5 1.1 2.3
v -2.5 1.1 2.2
v -2.4 1.1 2.2
v 2.4 1.1 2.2
v 2.5 1.1 2.2
v -7.5 1.1 2.1
v 7.5 1.1 2.1
v -2.9 1.5 2.5
v -2.8 1.5 2.5
v 2.8 1.5 2.5
v 2.9 1.5 2.5
v -2.9 1.5 2.3
v -2.8 1.5 2.3
v 2.8 1.5 2.3
v 2.9 1.5 2.3
v -2.9 5.8 2.4
v -2.8 5.8 2.4
v 2.8 5.8 2.4
v 2.9 5.8 2.4
v -2.9 5.8 2.3
v -2.8 5.8 2.3
v 2.8 5.8 2.3
v 2.9 5.8 2.3
v -7.5 6.6 2.3
v -2.5 6.6 2.3
v -2.4 6.6 2.3
v 2.4 6.6 2.3
v 2.5 6.6 2.3
v 7.5 6.6 2.3
v -7.5 6.6 2.2
v -2.5 6.6 2.2
v -2.4 6.6 2.2
v 2.4 6.6 2.2
v 2.5 6.6 2.2
v 7.5 6.6 2.2
v -6 7.1 2.5
v -4 7.1 2.5
v 4 7.1 2.5
v 6 7.1 2.5
v -5.9 7.1 2.4
v -4.1 7.1 2.4
v 4.1 7.1 2.4
v 5.9 7.1 2.4
v -6 7.1 2.3
v -5.9 7.1 2.3
v -4.1 7.1 2.3
v -4 7.1 2.3
v 4 7.1 2.3
v 4.1 7.1 2.3
v 5.9 7.1 2.3
v 6 7.1 2.3
v -1 7.2 2.5
v 1 7.2 2.5
v -0.9 7.2 2.4
v 0.9 7.2 2.4
v -1 7.2 2.3
v -0.9 7.2 2.3
v 0.9 7.2 2.3
v 1 7.2 2.3
v -7.5 7.7 2.5
v 7.5 7.7 2.5
v -7.5 7.7 2.3
v -2.5 7.7 2.3
v -2.4 7.7 2.3
v 2.4 7.7 2.3
v 2.5 7.7 2.3
v 7.5 7.7 2.3
v -2.5 7.7 2.2
v -2.4 7.7 2.2
v 2.4 7.7 2.2
v 2.5 7.7 2.2
v -2.9 1.6 2.4
v -2.8 1.6 2.4
v 2.8 1.6 2.4
v 2.9 1.6 2.4
v -2.9 1.6 2.3
v -2.8 1.6 2.3
v 2.8 1.6 2.3
v 2.9 1.6 2.3
v -2.9 6 2.5
v -2.8 6 2.5
v 2.8 6 2.5
v 2.9 6 2.5
v -2.9 6 2.3
v -2.8 6 2.3
v 2.8 6 2.3
v 2.9 6 2.3
v -7.5 6.5 2.3
v -2.5 6.5 2.3
v -2.4 6.5 2.3
v 2.4 6.5 2.3
v 2.5 6.5 2.3
v 7.5 6.5 2.3
v -7.5 6.5 2.2
v -2.5 6.5 2.2
v -2.4 6.5 2.2
v 2.4 6.5 2.2
v 2.5 6.5 2.2
v 7.5 6.5 2.2
v -6 7.2 2.5
v -4 7.2 2.5
v 4 7.2 2.5
v 6 7.2 2.5
v -5.9 7.2 2.4
v -4.1 7.2 2.4
v 4.1 7.2 2.4
v 5.9 7.2 2.4
v -6 7.2 2.3
v -5.9 7.2 2.3
v -4.1 7.2 2.3
v -4 7.2 2.3
v 4 7.2 2.3
v 4.1 7.2 2.3
v 5.9 7.2 2.3
v 6 7.2 2.3
v -1 7.3 2.5
v 1 7.3 2.5
v -0.9 7.3 2.4
v 0.9 7.3 2.4
v -1 7.3 2.3
v -0.9 7.3 2.3
v 0.9 7.3 2.3
v 1 7.3 2.3
v -7.5 8 2.5
v 7.5 8 2.5
v -7.5 8 -2.5
v 7.5 8 -2.5

# faces
f 4/3/1 2/3/1 1/3/1
f 5/3/1 4/3/1 3/3/1
f 6/3/1 4/3/1 5/3/1
f 8/3/1 4/3/1 6/3/1
f 10/3/1 8/3/1 7/3/1
f 11/3/1 2/3/1 4/3/1
f 11/3/1 4/3/1 8/3/1
f 11/3/1 8/3/1 10/3/1
f 12/1/1 10/1/1 9/1/1
f 12/1/1 11/1/1 10/1/1
f 13/1/1 11/1/1 12/1/1
f 16/2/1 15/2/1 14/2/1
f 17/2/1 15/2/1 16/2/1
f 20/2/1 19/2/1 18/2/1
f 21/2/1 19/2/1 20/2/1
f 24/2/1 23/2/1 22/2/1
f 25/2/1 23/2/1 24/2/1
f 26/2/1 24/2/1 22/2/1
f 28/2/1 26/2/1 22/2/1
f 28/2/1 27/2/1 26/2/1
f 29/2/1 27/2/1 28/2/1
f 32/3/1 31/3/1 30/3/1
f 33/3/1 31/3/1 32/3/1
f 36/3/1 35/3/1 34/3/1
f 37/3/1 35/3/1 36/3/1
f 40/2/1 39/2/1 38/2/1
f 41/2/1 39/2/1 40/2/1
f 44/2/1 43/2/1 42/2/1
f 45/2/1 43/2/1 44/2/1
f 48/3/1 47/3/1 46/3/1
f 49/3/1 47/3/1 48/3/1
f 52/3/1 51/3/1 50/3/1
f 53/3/1 51/3/1 52/3/1
f 56/2/1 55/2/1 54/2/1
f 57/2/1 55/2/1 56/2/1
f 58/2/1 56/2/1 54/2/1
f 60/2/1 58/2/1 54/2/1
f 60/2/1 59/2/1 58/2/1
f 61/2/1 59/2/1 60/2/1
f 64/2/1 63/2/1 62/2/1
f 65/2/1 63/2/1 64/2/1
f 68/2/1 67/2/1 66/2/1
f 69/2/1 67/2/1 68/2/1
f 70/2/2 71/2/2 72/2/2
f 72/2/2 71/2/2 73/2/2
f 74/2/2 75/2/2 76/2/2
f 76/2/2 75/2/2 77/2/2
f 78/2/2 79/2/2 80/2/2
f 80/2/2 79/2/2 81/2/2
f 78/2/2 80/2/2 82/2/2
f 78/2/2 82/2/2 84/2/2
f 82/2/2 83/2/2 84/2/2
f 84/2/2 83/2/2 85/2/2
f 86/3/2 87/3/2 88/3/2
f 88/3/2 87/3/2 89/3/2
f 90/3/2 91/3/2 92/3/2
f 92/3/2 91/3/2 93/3/2
f 94/2/2 95/2/2 96/2/2
f 96/2/2 95/2/2 97/2/2
f 98/2/2 99/2/2 100/2/2
f 100/2/2 99/2/2 101/2/2
f 102/3/2 103/3/2 104/3/2
f 104/3/2 103/3/2 105/3/2
f 106/3/2 107/3/2 108/3/2
f 108/3/2 107/3/2 109/3/2
f 110/2/2 111/2/2 112/2/2
f 112/2/2 111/2/2 113/2/2
f 110/2/2 112/2/2 114/2/2
f 110/2/2 114/2/2 116/2/2
f 114/2/2 115/2/2 116/2/2
f 116/2/2 115/2/2 117/2/2
f 118/2/2 119/2/2 120/2/2
f 120/2/2 119/2/2 121/2/2
f 122/2/2 123/2/2 124/2/2
f 124/2/2 123/2/2 125/2/2
f 126/3/2 127/3/2 129/3/2
f 128/3/2 129/3/2 130/3/2
f 130/3/2 129/3/2 131/3/2
f 131/3/2 129/3/2 133/3/2
f 132/3/2 133/3/2 135/3/2
f 129/3/2 127/3/2 136/3/2
f 133/3/2 129/3/2 136/3/2
f 135/3/2 133/3/2 136/3/2
f 134/1/2 135/1/2 137/1/2
f 135/1/2 136/1/2 137/1/2
f 137/1/2 136/1/2 138/1/2
f 143/2/3 142/2/3 141/2/3
f 144/2/3 142/2/3 143/2/3
f 147/2/3 146/2/3 145/2/3
f 148/2/3 146/2/3 147/2/3
f 151/2/3 150/2/3 149/2/3
f 152/2/3 150/2/3 151/2/3
f 155/2/3 154/2/3 153/2/3
f 156/2/3 154/2/3 155/2/3
f 159/2/3 158/2/3 157/2/3
f 160/2/3 158/2/3 159/2/3
f 161/1/3 140/1/3 139/1/3
f 162/1/3 140/1/3 161/1/3
f 167/3/3 166/3/3 165/3/3
f 168/3/3 166/3/3 167/3/3
f 169/3/3 167/3/3 165/3/3
f 170/3/3 166/3/3 168/3/3
f 171/3/3 169/3/3 165/3/3
f 171/3/3 170/3/3 169/3/3
f 172/3/3 166/3/3 170/3/3
f 172/3/3 170/3/3 171/3/3
f 173/3/3 171/3/3 165/3/3
f 174/3/3 166/3/3 172/3/3
f 175/3/3 164/3/3 163/3/3
f 176/3/3 164/3/3 175/3/3
f 177/3/3 164/3/3 176/3/3
f 178/3/3 164/3/3 177/3/3
f 179/3/3 175/3/3 163/3/3
f 180/3/3 177/3/3 176/3/3
f 181/3/3 177/3/3 180/3/3
f 182/3/3 164/3/3 178/3/3
f 183/3/3 181/3/3 180/3/3
f 183/3/3 182/3/3 181/3/3
f 183/3/3 179/3/3 163/3/3
f 183/3/3 180/3/3 179/3/3
f 184/3/3 164/3/3 182/3/3
f 184/3/3 182/3/3 183/3/3
f 185/3/3 174/3/3 173/3/3
f 185/3/3 173/3/3 165/3/3
f 186/3/3 166/3/3 174/3/3
f 186/3/3 174/3/3 185/3/3
f 191/3/3 190/3/3 189/3/3
f 192/3/3 190/3/3 191/3/3
f 193/3/3 191/3/3 189/3/3
f 194/3/3 190/3/3 192/3/3
f 195/3/3 193/3/3 189/3/3
f 195/3/3 194/3/3 193/3/3
f 196/3/3 190/3/3 194/3/3
f 196/3/3 194/3/3 195/3/3
f 197/3/3 195/3/3 189/3/3
f 198/3/3 190/3/3 196/3/3
f 199/3/3 188/3/3 187/3/3
f 200/3/3 188/3/3 199/3/3
f 201/3/3 198/3/3 197/3/3
f 201/3/3 197/3/3 189/3/3
f 202/3/3 190/3/3 198/3/3
f 202/3/3 198/3/3 201/3/3
f 207/3/3 204/3/3 203/3/3
f 208/3/3 204/3/3 207/3/3
f 209/3/3 204/3/3 208/3/3
f 210/3/3 204/3/3 209/3/3
f 211/3/3 207/3/3 203/3/3
f 212/3/3 209/3/3 208/3/3
f 213/3/3 209/3/3 212/3/3
f 214/3/3 204/3/3 210/3/3
f 215/3/3 206/3/3 205/3/3
f 216/3/3 206/3/3 215/3/3
f 217/3/3 215/3/3 205/3/3
f 218/3/3 206/3/3 216/3/3
f 219/3/3 217/3/3 205/3/3
f 219/3/3 218/3/3 217/3/3
f 220/3/3 206/3/3 218/3/3
f 220/3/3 218/3/3 219/3/3
f 221/3/3 219/3/3 205/3/3
f 222/3/3 206/3/3 220/3/3
f 223/3/3 214/3/3 213/3/3
f 223/3/3 213/3/3 212/3/3
f 223/3/3 211/3/3 203/3/3
f 223/3/3 212/3/3 211/3/3
f 224/3/3 204/3/3 214/3/3
f 224/3/3 214/3/3 223/3/3
f 225/3/3 222/3/3 221/3/3
f 225/3/3 221/3/3 205/3/3
f 226/3/3 206/3/3 222/3/3
f 226/3/3 222/3/3 225/3/3
f 230/3/3 228/3/3 227/3/3
f 231/3/3 228/3/3 230/3/3
f 233/3/3 230/3/3 229/3/3
f 233/3/3 232/3/3 231/3/3
f 233/3/3 231/3/3 230/3/3
f 234/3/3 232/3/3 233/3/3
f 235/3/3 232/3/3 234/3/3
f 236/3/3 232/3/3 235/3/3
f 238/3/3 235/3/3 234/3/3
f 239/3/3 235/3/3 238/3/3
f 241/3/3 238/3/3 237/3/3
f 241/3/3 240/3/3 239/3/3
f 241/3/3 239/3/3 238/3/3
f 242/3/3 240/3/3 241/3/3
f 243/3/3 240/3/3 242/3/3
f 244/3/3 240/3/3 243/3/3
f 245/3/3 243/3/3 242/3/3
f 246/3/3 243/3/3 245/3/3
f 249/3/3 248/3/3 247/3/3
f 250/3/3 248/3/3 249/3/3
f 251/2/4 252/2/4 253/2/4
f 253/2/4 252/2/4 254/2/4
f 255/2/4 256/2/4 257/2/4
f 257/2/4 256/2/4 258/2/4
f 259/2/4 260/2/4 261/2/4
f 261/2/4 260/2/4 262/2/4
f 263/2/4 264/2/4 265/2/4
f 265/2/4 264/2/4 266/2/4
f 267/2/4 268/2/4 269/2/4
f 269/2/4 268/2/4 270/2/4
f 271/3/4 272/3/4 274/3/4
f 272/1/4 273/1/4 275/1/4
f 274/3/4 272/3/4 275/3/4
f 275/1/4 273/1/4 276/1/4
f 279/3/5 278/3/5 277/3/5
f 280/3/5 278/3/5 279/3/5
f 287/3/5 282/3/5 281/3/5
f 288/3/5 284/3/5 283/3/5
f 289/3/5 284/3/5 288/3/5
f 290/3/5 286/3/5 285/3/5
f 291/3/5 289/3/5 288/3/5
f 291/3/5 290/3/5 289/3/5
f 291/3/5 287/3/5 281/3/5
f 291/3/5 288/3/5 287/3/5
f 292/3/5 286/3/5 290/3/5
f 292/3/5 290/3/5 291/3/5
f 297/2/5 294/2/5 293/2/5
f 298/2/5 294/2/5 297/2/5
f 299/2/5 296/2/5 295/2/5
f 300/2/5 296/2/5 299/2/5
f 305/2/5 302/2/5 301/2/5
f 306/2/5 302/2/5 305/2/5
f 307/2/5 304/2/5 303/2/5
f 308/2/5 304/2/5 307/2/5
f 315/3/5 310/3/5 309/3/5
f 316/3/5 310/3/5 315/3/5
f 317/3/5 312/3/5 311/3/5
f 318/3/5 312/3/5 317/3/5
f 319/3/5 314/3/5 313/3/5
f 320/3/5 314/3/5 319/3/5
f 325/2/5 322/2/5 321/2/5
f 326/2/5 322/2/5 325/2/5
f 327/2/5 324/2/5 323/2/5
f 328/2/5 324/2/5 327/2/5
f 329/2/5 325/2/5 321/2/5
f 330/2/5 325/2/5 329/2/5
f 331/2/5 322/2/5 326/2/5
f 332/2/5 322/2/5 331/2/5
f 333/2/5 327/2/5 323/2/5
f 334/2/5 327/2/5 333/2/5
f 335/2/5 324/2/5 328/2/5
f 336/2/5 324/2/5 335/2/5
f 339/2/5 338/2/5 337/2/5
f 340/2/5 338/2/5 339/2/5
f 341/2/5 339/2/5 337/2/5
f 342/2/5 339/2/5 341/2/5
f 343/2/5 338/2/5 340/2/5
f 344/2/5 338/2/5 343/2/5
f 347/1/5 346/1/5 345/1/5
f 348/1/5 346/1/5 347/1/5
f 349/1/5 346/1/5 348/1/5
f 350/1/5 346/1/5 349/1/5
f 351/1/5 346/1/5 350/1/5
f 352/1/5 346/1/5 351/1/5
f 353/1/5 349/1/5 348/1/5
f 354/1/5 349/1/5 353/1/5
f 355/1/5 351/1/5 350/1/5
f 356/1/5 351/1/5 355/1/5
f 357/2/6 358/2/6 361/2/6
f 361/2/6 358/2/6 362/2/6
f 359/2/6 360/2/6 363/2/6
f 363/2/6 360/2/6 364/2/6
f 365/2/6 366/2/6 369/2/6
f 369/2/6 366/2/6 370/2/6
f 367/2/6 368/2/6 371/2/6
f 371/2/6 368/2/6 372/2/6
f 373/3/6 374/3/6 379/3/6
f 379/3/6 374/3/6 380/3/6
f 375/3/6 376/3/6 381/3/6
f 381/3/6 376/3/6 382/3/6
f 377/3/6 378/3/6 383/3/6
f 383/3/6 378/3/6 384/3/6
f 385/2/6 386/2/6 389/2/6
f 389/2/6 386/2/6 390/2/6
f 387/2/6 388/2/6 391/2/6
f 391/2/6 388/2/6 392/2/6
f 385/2/6 389/2/6 393/2/6
f 393/2/6 389/2/6 394/2/6
f 390/2/6 386/2/6 395/2/6
f 395/2/6 386/2/6 396/2/6
f 387/2/6 391/2/6 397/2/6
f 397/2/6 391/2/6 398/2/6
f 392/2/6 388/2/6 399/2/6
f 399/2/6 388/2/6 400/2/6
f 401/2/6 402/2/6 403/2/6
f 403/2/6 402/2/6 404/2/6
f 401/2/6 403/2/6 405/2/6
f 405/2/6 403/2/6 406/2/6
f 404/2/6 402/2/6 407/2/6
f 407/2/6 402/2/6 408/2/6
f 409/1/6 410/1/6 411/1/6
f 411/1/6 410/1/6 412/1/6
