# MagicaVoxel @ Ephtracy

# group
o 

# material
mtllib tomate_quemado.mtl
usemtl palette

# normals
vn -1 0 0
vn 1 0 0
vn 0 0 1
vn 0 0 -1
vn 0 -1 0
vn 0 1 0

# texcoords
vt 0.845703 0.5
vt 0.876953 0.5
vt 0.939453 0.5
vt 0.970703 0.5

# verts
v -0.5 0 0.4
v -0.5 0 0.1
v -0.5 0 -0.2
v -0.5 0 -0.4
v -0.5 0.1 0.4
v -0.5 0.1 0.1
v -0.5 0.1 -0.2
v -0.5 0.1 -0.4
v -0.4 0 0.5
v -0.4 0 0.4
v -0.4 0 -0.4
v -0.4 0 -0.5
v -0.4 0.1 0.5
v -0.4 0.1 0.4
v -0.4 0.1 -0.4
v -0.4 0.1 -0.5
v -0.3 0 0.6
v -0.3 0 0.5
v -0.3 0 -0.5
v -0.3 0 -0.6
v -0.3 0.1 0.6
v -0.3 0.1 0.5
v -0.3 0.1 -0.5
v -0.3 0.1 -0.6
v 0.5 0 0.6
v 0.5 0 0.5
v 0.5 0 -0.5
v 0.5 0 -0.6
v 0.5 0.1 0.6
v 0.5 0.1 0.5
v 0.5 0.1 -0.5
v 0.5 0.1 -0.6
v 0.6 0 0.5
v 0.6 0 0.4
v 0.6 0 -0.4
v 0.6 0 -0.5
v 0.6 0.1 0.5
v 0.6 0.1 0.4
v 0.6 0.1 -0.4
v 0.6 0.1 -0.5
v 0.7 0 0.4
v 0.7 0 0.1
v 0.7 0 -0.1
v 0.7 0 -0.4
v 0.7 0.1 0.4
v 0.7 0.1 0.1
v 0.7 0.1 -0.1
v 0.7 0.1 -0.4
v -0.3 0 0.6
v -0.3 0.1 0.6
v 0.1 0 0.6
v 0.1 0.1 0.6
v 0.3 0 0.6
v 0.3 0.1 0.6
v 0.5 0 0.6
v 0.5 0.1 0.6
v -0.4 0 0.5
v -0.4 0.1 0.5
v -0.3 0 0.5
v -0.3 0.1 0.5
v 0.5 0 0.5
v 0.5 0.1 0.5
v 0.6 0 0.5
v 0.6 0.1 0.5
v -0.5 0 0.4
v -0.5 0.1 0.4
v -0.4 0 0.4
v -0.4 0.1 0.4
v 0.6 0 0.4
v 0.6 0.1 0.4
v 0.7 0 0.4
v 0.7 0.1 0.4
v -0.5 0 -0.4
v -0.5 0.1 -0.4
v -0.4 0 -0.4
v -0.4 0.1 -0.4
v 0.6 0 -0.4
v 0.6 0.1 -0.4
v 0.7 0 -0.4
v 0.7 0.1 -0.4
v -0.4 0 -0.5
v -0.4 0.1 -0.5
v -0.3 0 -0.5
v -0.3 0.1 -0.5
v 0.5 0 -0.5
v 0.5 0.1 -0.5
v 0.6 0 -0.5
v 0.6 0.1 -0.5
v -0.3 0 -0.6
v -0.3 0.1 -0.6
v -0.2 0 -0.6
v -0.2 0.1 -0.6
v -0.1 0 -0.6
v -0.1 0.1 -0.6
v 0.2 0 -0.6
v 0.2 0.1 -0.6
v 0.4 0 -0.6
v 0.4 0.1 -0.6
v 0.5 0 -0.6
v 0.5 0.1 -0.6
v -0.3 0 0.6
v 0.1 0 0.6
v 0.3 0 0.6
v 0.5 0 0.6
v -0.4 0 0.5
v -0.3 0 0.5
v 0.1 0 0.5
v 0.3 0 0.5
v 0.5 0 0.5
v 0.6 0 0.5
v -0.5 0 0.4
v -0.4 0 0.4
v -0.3 0 0.4
v -0.2 0 0.4
v 5.96046e-08 0 0.4
v 0.2 0 0.4
v 0.4 0 0.4
v 0.5 0 0.4
v 0.6 0 0.4
v 0.7 0 0.4
v -0.3 0 0.3
v -0.2 0 0.3
v 5.96046e-08 0 0.3
v 0.2 0 0.3
v 0.4 0 0.3
v 0.5 0 0.3
v -0.3 0 0.2
v -0.2 0 0.2
v 5.96046e-08 0 0.2
v 0.2 0 0.2
v 0.4 0 0.2
v 0.5 0 0.2
v -0.5 0 0.1
v -0.4 0 0.1
v -0.2 0 0.1
v -0.1 0 0.1
v 0.3 0 0.1
v 0.4 0 0.1
v 0.6 0 0.1
v 0.7 0 0.1
v -0.3 0 0
v -0.2 0 0
v 0.4 0 0
v 0.5 0 0
v -0.3 0 -0.1
v -0.2 0 -0.1
v -0.1 0 -0.1
v 0.3 0 -0.1
v 0.4 0 -0.1
v 0.5 0 -0.1
v 0.6 0 -0.1
v 0.7 0 -0.1
v -0.5 0 -0.2
v -0.4 0 -0.2
v -0.2 0 -0.2
v -0.1 0 -0.2
v 5.96046e-08 0 -0.2
v 0.1 0 -0.2
v 0.2 0 -0.2
v 0.3 0 -0.2
v 0.4 0 -0.2
v -0.3 0 -0.3
v -0.2 0 -0.3
v -0.1 0 -0.3
v 5.96046e-08 0 -0.3
v 0.1 0 -0.3
v 0.2 0 -0.3
v 0.3 0 -0.3
v 0.4 0 -0.3
v 0.5 0 -0.3
v -0.5 0 -0.4
v -0.4 0 -0.4
v -0.3 0 -0.4
v -0.2 0 -0.4
v 5.96046e-08 0 -0.4
v 0.2 0 -0.4
v 0.4 0 -0.4
v 0.5 0 -0.4
v 0.6 0 -0.4
v 0.7 0 -0.4
v -0.4 0 -0.5
v -0.3 0 -0.5
v -0.2 0 -0.5
v -0.1 0 -0.5
v 0.2 0 -0.5
v 0.4 0 -0.5
v 0.5 0 -0.5
v 0.6 0 -0.5
v -0.3 0 -0.6
v -0.2 0 -0.6
v -0.1 0 -0.6
v 0.2 0 -0.6
v 0.4 0 -0.6
v 0.5 0 -0.6
v -0.3 0.1 0.6
v 0.1 0.1 0.6
v 0.3 0.1 0.6
v 0.5 0.1 0.6
v -0.4 0.1 0.5
v -0.3 0.1 0.5
v 0.1 0.1 0.5
v 0.3 0.1 0.5
v 0.5 0.1 0.5
v 0.6 0.1 0.5
v -0.5 0.1 0.4
v -0.4 0.1 0.4
v -0.3 0.1 0.4
v -0.2 0.1 0.4
v 5.96046e-08 0.1 0.4
v 0.2 0.1 0.4
v 0.4 0.1 0.4
v 0.5 0.1 0.4
v 0.6 0.1 0.4
v 0.7 0.1 0.4
v -0.3 0.1 0.3
v -0.2 0.1 0.3
v 5.96046e-08 0.1 0.3
v 0.2 0.1 0.3
v 0.4 0.1 0.3
v 0.5 0.1 0.3
v -0.3 0.1 0.2
v -0.2 0.1 0.2
v 5.96046e-08 0.1 0.2
v 0.2 0.1 0.2
v 0.4 0.1 0.2
v 0.5 0.1 0.2
v -0.5 0.1 0.1
v -0.4 0.1 0.1
v -0.2 0.1 0.1
v -0.1 0.1 0.1
v 0.3 0.1 0.1
v 0.4 0.1 0.1
v 0.6 0.1 0.1
v 0.7 0.1 0.1
v -0.3 0.1 0
v -0.2 0.1 0
v 0.4 0.1 0
v 0.5 0.1 0
v -0.3 0.1 -0.1
v -0.2 0.1 -0.1
v -0.1 0.1 -0.1
v 0.3 0.1 -0.1
v 0.4 0.1 -0.1
v 0.5 0.1 -0.1
v 0.6 0.1 -0.1
v 0.7 0.1 -0.1
v -0.5 0.1 -0.2
v -0.4 0.1 -0.2
v -0.2 0.1 -0.2
v -0.1 0.1 -0.2
v 5.96046e-08 0.1 -0.2
v 0.1 0.1 -0.2
v 0.2 0.1 -0.2
v 0.3 0.1 -0.2
v 0.4 0.1 -0.2
v -0.3 0.1 -0.3
v -0.2 0.1 -0.3
v -0.1 0.1 -0.3
v 5.96046e-08 0.1 -0.3
v 0.1 0.1 -0.3
v 0.2 0.1 -0.3
v 0.3 0.1 -0.3
v 0.4 0.1 -0.3
v 0.5 0.1 -0.3
v -0.5 0.1 -0.4
v -0.4 0.1 -0.4
v -0.3 0.1 -0.4
v -0.2 0.1 -0.4
v 5.96046e-08 0.1 -0.4
v 0.2 0.1 -0.4
v 0.4 0.1 -0.4
v 0.5 0.1 -0.4
v 0.6 0.1 -0.4
v 0.7 0.1 -0.4
v -0.4 0.1 -0.5
v -0.3 0.1 -0.5
v -0.2 0.1 -0.5
v -0.1 0.1 -0.5
v 0.2 0.1 -0.5
v 0.4 0.1 -0.5
v 0.5 0.1 -0.5
v 0.6 0.1 -0.5
v -0.3 0.1 -0.6
v -0.2 0.1 -0.6
v -0.1 0.1 -0.6
v 0.2 0.1 -0.6
v 0.4 0.1 -0.6
v 0.5 0.1 -0.6

# faces
f 5/4/1 2/4/1 1/4/1
f 6/2/1 3/2/1 2/2/1
f 6/4/1 2/4/1 5/4/1
f 7/4/1 4/4/1 3/4/1
f 7/2/1 3/2/1 6/2/1
f 8/4/1 4/4/1 7/4/1
f 13/4/1 10/4/1 9/4/1
f 14/4/1 10/4/1 13/4/1
f 15/4/1 12/4/1 11/4/1
f 16/4/1 12/4/1 15/4/1
f 21/4/1 18/4/1 17/4/1
f 22/4/1 18/4/1 21/4/1
f 23/4/1 20/4/1 19/4/1
f 24/4/1 20/4/1 23/4/1
f 25/4/2 26/4/2 29/4/2
f 29/4/2 26/4/2 30/4/2
f 27/4/2 28/4/2 31/4/2
f 31/4/2 28/4/2 32/4/2
f 33/4/2 34/4/2 37/4/2
f 37/4/2 34/4/2 38/4/2
f 35/4/2 36/4/2 39/4/2
f 39/4/2 36/4/2 40/4/2
f 41/4/2 42/4/2 45/4/2
f 42/2/2 43/2/2 46/2/2
f 45/4/2 42/4/2 46/4/2
f 43/4/2 44/4/2 47/4/2
f 46/2/2 43/2/2 47/2/2
f 47/4/2 44/4/2 48/4/2
f 51/4/3 50/4/3 49/4/3
f 52/4/3 50/4/3 51/4/3
f 53/2/3 52/2/3 51/2/3
f 54/2/3 52/2/3 53/2/3
f 55/4/3 54/4/3 53/4/3
f 56/4/3 54/4/3 55/4/3
f 59/4/3 58/4/3 57/4/3
f 60/4/3 58/4/3 59/4/3
f 63/4/3 62/4/3 61/4/3
f 64/4/3 62/4/3 63/4/3
f 67/4/3 66/4/3 65/4/3
f 68/4/3 66/4/3 67/4/3
f 71/4/3 70/4/3 69/4/3
f 72/4/3 70/4/3 71/4/3
f 73/4/4 74/4/4 75/4/4
f 75/4/4 74/4/4 76/4/4
f 77/4/4 78/4/4 79/4/4
f 79/4/4 78/4/4 80/4/4
f 81/4/4 82/4/4 83/4/4
f 83/4/4 82/4/4 84/4/4
f 85/4/4 86/4/4 87/4/4
f 87/4/4 86/4/4 88/4/4
f 89/4/4 90/4/4 91/4/4
f 91/4/4 90/4/4 92/4/4
f 91/2/4 92/2/4 93/2/4
f 93/2/4 92/2/4 94/2/4
f 93/4/4 94/4/4 95/4/4
f 95/4/4 94/4/4 96/4/4
f 95/2/4 96/2/4 97/2/4
f 97/2/4 96/2/4 98/2/4
f 97/4/4 98/4/4 99/4/4
f 99/4/4 98/4/4 100/4/4
f 106/4/5 102/4/5 101/4/5
f 107/2/5 103/2/5 102/2/5
f 107/4/5 102/4/5 106/4/5
f 108/4/5 104/4/5 103/4/5
f 108/2/5 103/2/5 107/2/5
f 109/4/5 104/4/5 108/4/5
f 112/4/5 106/4/5 105/4/5
f 113/3/5 107/3/5 106/3/5
f 113/3/5 108/3/5 107/3/5
f 113/4/5 106/4/5 112/4/5
f 113/3/5 109/3/5 108/3/5
f 114/3/5 109/3/5 113/3/5
f 115/3/5 109/3/5 114/3/5
f 116/3/5 109/3/5 115/3/5
f 117/3/5 109/3/5 116/3/5
f 118/4/5 110/4/5 109/4/5
f 118/3/5 109/3/5 117/3/5
f 119/4/5 110/4/5 118/4/5
f 121/3/5 113/3/5 112/3/5
f 121/3/5 114/3/5 113/3/5
f 122/2/5 115/2/5 114/2/5
f 122/3/5 114/3/5 121/3/5
f 123/3/5 116/3/5 115/3/5
f 123/2/5 115/2/5 122/2/5
f 124/4/5 117/4/5 116/4/5
f 124/3/5 116/3/5 123/3/5
f 125/3/5 119/3/5 118/3/5
f 125/4/5 117/4/5 124/4/5
f 125/3/5 118/3/5 117/3/5
f 126/3/5 119/3/5 125/3/5
f 127/3/5 121/3/5 112/3/5
f 127/1/5 122/1/5 121/1/5
f 128/3/5 123/3/5 122/3/5
f 128/1/5 122/1/5 127/1/5
f 129/4/5 124/4/5 123/4/5
f 129/3/5 123/3/5 128/3/5
f 130/3/5 125/3/5 124/3/5
f 130/4/5 124/4/5 129/4/5
f 131/1/5 126/1/5 125/1/5
f 131/3/5 125/3/5 130/3/5
f 132/3/5 119/3/5 126/3/5
f 132/1/5 126/1/5 131/1/5
f 133/4/5 112/4/5 111/4/5
f 134/3/5 127/3/5 112/3/5
f 134/4/5 112/4/5 133/4/5
f 135/4/5 128/4/5 127/4/5
f 135/3/5 131/3/5 130/3/5
f 135/3/5 130/3/5 129/3/5
f 135/3/5 129/3/5 128/3/5
f 136/3/5 131/3/5 135/3/5
f 137/3/5 131/3/5 136/3/5
f 138/2/5 132/2/5 131/2/5
f 138/3/5 131/3/5 137/3/5
f 139/3/5 119/3/5 132/3/5
f 139/4/5 120/4/5 119/4/5
f 140/4/5 120/4/5 139/4/5
f 141/3/5 127/3/5 134/3/5
f 141/4/5 135/4/5 127/4/5
f 141/4/5 136/4/5 135/4/5
f 142/4/5 136/4/5 141/4/5
f 143/2/5 132/2/5 138/2/5
f 143/4/5 138/4/5 137/4/5
f 144/3/5 139/3/5 132/3/5
f 144/2/5 132/2/5 143/2/5
f 145/1/5 142/1/5 141/1/5
f 145/3/5 141/3/5 134/3/5
f 146/4/5 136/4/5 142/4/5
f 146/1/5 142/1/5 145/1/5
f 147/3/5 137/3/5 136/3/5
f 147/4/5 136/4/5 146/4/5
f 148/4/5 143/4/5 137/4/5
f 148/3/5 137/3/5 147/3/5
f 149/1/5 144/1/5 143/1/5
f 149/4/5 143/4/5 148/4/5
f 150/3/5 139/3/5 144/3/5
f 150/1/5 144/1/5 149/1/5
f 151/2/5 140/2/5 139/2/5
f 151/3/5 139/3/5 150/3/5
f 152/2/5 140/2/5 151/2/5
f 153/2/5 134/2/5 133/2/5
f 154/3/5 145/3/5 134/3/5
f 154/2/5 134/2/5 153/2/5
f 155/3/5 149/3/5 148/3/5
f 155/2/5 146/2/5 145/2/5
f 155/3/5 147/3/5 146/3/5
f 155/3/5 148/3/5 147/3/5
f 156/3/5 149/3/5 155/3/5
f 157/3/5 149/3/5 156/3/5
f 158/3/5 149/3/5 157/3/5
f 159/3/5 149/3/5 158/3/5
f 160/3/5 149/3/5 159/3/5
f 161/4/5 150/4/5 149/4/5
f 161/3/5 149/3/5 160/3/5
f 162/3/5 145/3/5 154/3/5
f 162/2/5 155/2/5 145/2/5
f 163/1/5 156/1/5 155/1/5
f 163/2/5 155/2/5 162/2/5
f 164/3/5 157/3/5 156/3/5
f 164/1/5 156/1/5 163/1/5
f 165/4/5 158/4/5 157/4/5
f 165/3/5 157/3/5 164/3/5
f 166/2/5 159/2/5 158/2/5
f 166/4/5 158/4/5 165/4/5
f 167/3/5 160/3/5 159/3/5
f 167/2/5 159/2/5 166/2/5
f 168/1/5 161/1/5 160/1/5
f 168/3/5 160/3/5 167/3/5
f 169/4/5 150/4/5 161/4/5
f 169/1/5 161/1/5 168/1/5
f 170/3/5 151/3/5 150/3/5
f 170/4/5 150/4/5 169/4/5
f 171/4/5 154/4/5 153/4/5
f 172/3/5 162/3/5 154/3/5
f 172/4/5 154/4/5 171/4/5
f 172/3/5 163/3/5 162/3/5
f 173/3/5 163/3/5 172/3/5
f 174/2/5 164/2/5 163/2/5
f 174/3/5 163/3/5 173/3/5
f 174/2/5 165/2/5 164/2/5
f 175/3/5 166/3/5 165/3/5
f 175/2/5 165/2/5 174/2/5
f 175/3/5 167/3/5 166/3/5
f 176/4/5 168/4/5 167/4/5
f 176/3/5 167/3/5 175/3/5
f 176/4/5 169/4/5 168/4/5
f 177/3/5 170/3/5 169/3/5
f 177/4/5 169/4/5 176/4/5
f 178/3/5 151/3/5 170/3/5
f 178/3/5 170/3/5 177/3/5
f 179/4/5 152/4/5 151/4/5
f 179/3/5 151/3/5 178/3/5
f 180/4/5 152/4/5 179/4/5
f 181/4/5 173/4/5 172/4/5
f 182/3/5 175/3/5 174/3/5
f 182/4/5 173/4/5 181/4/5
f 182/3/5 177/3/5 176/3/5
f 182/3/5 176/3/5 175/3/5
f 182/3/5 174/3/5 173/3/5
f 182/3/5 178/3/5 177/3/5
f 183/3/5 178/3/5 182/3/5
f 184/3/5 178/3/5 183/3/5
f 185/3/5 178/3/5 184/3/5
f 186/3/5 178/3/5 185/3/5
f 187/4/5 179/4/5 178/4/5
f 187/3/5 178/3/5 186/3/5
f 188/4/5 179/4/5 187/4/5
f 189/4/5 183/4/5 182/4/5
f 190/2/5 184/2/5 183/2/5
f 190/4/5 183/4/5 189/4/5
f 191/4/5 185/4/5 184/4/5
f 191/2/5 184/2/5 190/2/5
f 192/2/5 186/2/5 185/2/5
f 192/4/5 185/4/5 191/4/5
f 193/4/5 187/4/5 186/4/5
f 193/2/5 186/2/5 192/2/5
f 194/4/5 187/4/5 193/4/5
f 195/4/6 196/4/6 200/4/6
f 196/2/6 197/2/6 201/2/6
f 200/4/6 196/4/6 201/4/6
f 197/4/6 198/4/6 202/4/6
f 201/2/6 197/2/6 202/2/6
f 202/4/6 198/4/6 203/4/6
f 199/4/6 200/4/6 206/4/6
f 200/3/6 201/3/6 207/3/6
f 201/3/6 202/3/6 207/3/6
f 206/4/6 200/4/6 207/4/6
f 202/3/6 203/3/6 207/3/6
f 207/3/6 203/3/6 208/3/6
f 208/3/6 203/3/6 209/3/6
f 209/3/6 203/3/6 210/3/6
f 210/3/6 203/3/6 211/3/6
f 203/4/6 204/4/6 212/4/6
f 211/3/6 203/3/6 212/3/6
f 212/4/6 204/4/6 213/4/6
f 206/3/6 207/3/6 215/3/6
f 207/3/6 208/3/6 215/3/6
f 208/2/6 209/2/6 216/2/6
f 215/3/6 208/3/6 216/3/6
f 209/3/6 210/3/6 217/3/6
f 216/2/6 209/2/6 217/2/6
f 210/4/6 211/4/6 218/4/6
f 217/3/6 210/3/6 218/3/6
f 212/3/6 213/3/6 219/3/6
f 218/4/6 211/4/6 219/4/6
f 211/3/6 212/3/6 219/3/6
f 219/3/6 213/3/6 220/3/6
f 206/3/6 215/3/6 221/3/6
f 215/1/6 216/1/6 221/1/6
f 216/3/6 217/3/6 222/3/6
f 221/1/6 216/1/6 222/1/6
f 217/4/6 218/4/6 223/4/6
f 222/3/6 217/3/6 223/3/6
f 218/3/6 219/3/6 224/3/6
f 223/4/6 218/4/6 224/4/6
f 219/1/6 220/1/6 225/1/6
f 224/3/6 219/3/6 225/3/6
f 220/3/6 213/3/6 226/3/6
f 225/1/6 220/1/6 226/1/6
f 205/4/6 206/4/6 227/4/6
f 206/3/6 221/3/6 228/3/6
f 227/4/6 206/4/6 228/4/6
f 221/4/6 222/4/6 229/4/6
f 224/3/6 225/3/6 229/3/6
f 223/3/6 224/3/6 229/3/6
f 222/3/6 223/3/6 229/3/6
f 229/3/6 225/3/6 230/3/6
f 230/3/6 225/3/6 231/3/6
f 225/2/6 226/2/6 232/2/6
f 231/3/6 225/3/6 232/3/6
f 226/3/6 213/3/6 233/3/6
f 213/4/6 214/4/6 233/4/6
f 233/4/6 214/4/6 234/4/6
f 228/3/6 221/3/6 235/3/6
f 221/4/6 229/4/6 235/4/6
f 229/4/6 230/4/6 235/4/6
f 235/4/6 230/4/6 236/4/6
f 232/2/6 226/2/6 237/2/6
f 231/4/6 232/4/6 237/4/6
f 226/3/6 233/3/6 238/3/6
f 237/2/6 226/2/6 238/2/6
f 235/1/6 236/1/6 239/1/6
f 228/3/6 235/3/6 239/3/6
f 236/4/6 230/4/6 240/4/6
f 239/1/6 236/1/6 240/1/6
f 230/3/6 231/3/6 241/3/6
f 240/4/6 230/4/6 241/4/6
f 231/4/6 237/4/6 242/4/6
f 241/3/6 231/3/6 242/3/6
f 237/1/6 238/1/6 243/1/6
f 242/4/6 237/4/6 243/4/6
f 238/3/6 233/3/6 244/3/6
f 243/1/6 238/1/6 244/1/6
f 233/2/6 234/2/6 245/2/6
f 244/3/6 233/3/6 245/3/6
f 245/2/6 234/2/6 246/2/6
f 227/2/6 228/2/6 247/2/6
f 228/3/6 239/3/6 248/3/6
f 247/2/6 228/2/6 248/2/6
f 242/3/6 243/3/6 249/3/6
f 239/2/6 240/2/6 249/2/6
f 240/3/6 241/3/6 249/3/6
f 241/3/6 242/3/6 249/3/6
f 249/3/6 243/3/6 250/3/6
f 250/3/6 243/3/6 251/3/6
f 251/3/6 243/3/6 252/3/6
f 252/3/6 243/3/6 253/3/6
f 253/3/6 243/3/6 254/3/6
f 243/4/6 244/4/6 255/4/6
f 254/3/6 243/3/6 255/3/6
f 248/3/6 239/3/6 256/3/6
f 239/2/6 249/2/6 256/2/6
f 249/1/6 250/1/6 257/1/6
f 256/2/6 249/2/6 257/2/6
f 250/3/6 251/3/6 258/3/6
f 257/1/6 250/1/6 258/1/6
f 251/4/6 252/4/6 259/4/6
f 258/3/6 251/3/6 259/3/6
f 252/2/6 253/2/6 260/2/6
f 259/4/6 252/4/6 260/4/6
f 253/3/6 254/3/6 261/3/6
f 260/2/6 253/2/6 261/2/6
f 254/1/6 255/1/6 262/1/6
f 261/3/6 254/3/6 262/3/6
f 255/4/6 244/4/6 263/4/6
f 262/1/6 255/1/6 263/1/6
f 244/3/6 245/3/6 264/3/6
f 263/4/6 244/4/6 264/4/6
f 247/4/6 248/4/6 265/4/6
f 248/3/6 256/3/6 266/3/6
f 265/4/6 248/4/6 266/4/6
f 256/3/6 257/3/6 266/3/6
f 266/3/6 257/3/6 267/3/6
f 257/2/6 258/2/6 268/2/6
f 267/3/6 257/3/6 268/3/6
f 258/2/6 259/2/6 268/2/6
f 259/3/6 260/3/6 269/3/6
f 268/2/6 259/2/6 269/2/6
f 260/3/6 261/3/6 269/3/6
f 261/4/6 262/4/6 270/4/6
f 269/3/6 261/3/6 270/3/6
f 262/4/6 263/4/6 270/4/6
f 263/3/6 264/3/6 271/3/6
f 270/4/6 263/4/6 271/4/6
f 264/3/6 245/3/6 272/3/6
f 271/3/6 264/3/6 272/3/6
f 245/4/6 246/4/6 273/4/6
f 272/3/6 245/3/6 273/3/6
f 273/4/6 246/4/6 274/4/6
f 266/4/6 267/4/6 275/4/6
f 268/3/6 269/3/6 276/3/6
f 275/4/6 267/4/6 276/4/6
f 270/3/6 271/3/6 276/3/6
f 269/3/6 270/3/6 276/3/6
f 267/3/6 268/3/6 276/3/6
f 271/3/6 272/3/6 276/3/6
f 276/3/6 272/3/6 277/3/6
f 277/3/6 272/3/6 278/3/6
f 278/3/6 272/3/6 279/3/6
f 279/3/6 272/3/6 280/3/6
f 272/4/6 273/4/6 281/4/6
f 280/3/6 272/3/6 281/3/6
f 281/4/6 273/4/6 282/4/6
f 276/4/6 277/4/6 283/4/6
f 277/2/6 278/2/6 284/2/6
f 283/4/6 277/4/6 284/4/6
f 278/4/6 279/4/6 285/4/6
f 284/2/6 278/2/6 285/2/6
f 279/2/6 280/2/6 286/2/6
f 285/4/6 279/4/6 286/4/6
f 280/4/6 281/4/6 287/4/6
f 286/2/6 280/2/6 287/2/6
f 287/4/6 281/4/6 288/4/6
