# MagicaVoxel @ Ephtracy

# group
o 

# material
mtllib Tv.mtl
usemtl palette

# normals
vn -1 0 0
vn 1 0 0
vn 0 0 1
vn 0 0 -1
vn 0 -1 0
vn 0 1 0

# texcoords
vt 0.908203 0.5
vt 0.939453 0.5
vt 0.943359 0.5
vt 0.947266 0.5
vt 0.951172 0.5
vt 0.955078 0.5
vt 0.958984 0.5
vt 0.970703 0.5
vt 0.974609 0.5
vt 0.994141 0.5

# verts
v 9.68575e-08 0.5 8.1
v 9.68575e-08 0.5 -7.9
v 9.68575e-08 1 7.9
v 9.68575e-08 1 -7.7
v 9.68575e-08 1.1 7.9
v 9.68575e-08 1.1 6.6
v 9.68575e-08 1.1 4
v 9.68575e-08 1.1 1.4
v 9.68575e-08 1.1 -1.2
v 9.68575e-08 1.1 -3.8
v 9.68575e-08 1.1 -6.4
v 9.68575e-08 1.1 -7.7
v 9.68575e-08 2.6 7.9
v 9.68575e-08 2.6 6.6
v 9.68575e-08 2.6 4
v 9.68575e-08 2.6 1.4
v 9.68575e-08 2.6 -1.2
v 9.68575e-08 2.6 -3.8
v 9.68575e-08 2.6 -6.4
v 9.68575e-08 2.6 -7.7
v 9.68575e-08 10.4 7.9
v 9.68575e-08 10.4 6.6
v 9.68575e-08 10.4 4
v 9.68575e-08 10.4 1.4
v 9.68575e-08 10.4 -1.2
v 9.68575e-08 10.4 -3.8
v 9.68575e-08 10.4 -6.4
v 9.68575e-08 10.4 -7.7
v 9.68575e-08 10.6 8.1
v 9.68575e-08 10.6 -7.9
v 0.4 0.5 8.1
v 0.4 0.5 -7.9
v 0.4 10.6 8.1
v 0.4 10.6 -7.9
v 9.68575e-08 0.5 8.1
v 9.68575e-08 10.6 8.1
v 0.4 0.5 8.1
v 0.4 10.6 8.1
v 9.68575e-08 0.5 -7.9
v 9.68575e-08 10.6 -7.9
v 0.4 0.5 -7.9
v 0.4 10.6 -7.9
v 9.68575e-08 0.5 8.1
v 0.4 0.5 8.1
v 9.68575e-08 0.5 -7.9
v 0.4 0.5 -7.9
v 9.68575e-08 10.6 8.1
v 0.4 10.6 8.1
v 9.68575e-08 10.6 -7.9
v 0.4 10.6 -7.9

# faces
f 3/2/1 2/2/1 1/2/1
f 4/2/1 2/2/1 3/2/1
f 5/2/1 3/2/1 1/2/1
f 5/10/1 4/10/1 3/10/1
f 6/10/1 4/10/1 5/10/1
f 7/10/1 4/10/1 6/10/1
f 8/10/1 4/10/1 7/10/1
f 9/10/1 4/10/1 8/10/1
f 10/10/1 4/10/1 9/10/1
f 11/10/1 4/10/1 10/10/1
f 12/2/1 2/2/1 4/2/1
f 12/10/1 4/10/1 11/10/1
f 13/2/1 5/2/1 1/2/1
f 13/9/1 6/9/1 5/9/1
f 14/1/1 7/1/1 6/1/1
f 14/9/1 6/9/1 13/9/1
f 15/5/1 8/5/1 7/5/1
f 15/1/1 7/1/1 14/1/1
f 16/1/1 9/1/1 8/1/1
f 16/5/1 8/5/1 15/5/1
f 17/7/1 10/7/1 9/7/1
f 17/1/1 9/1/1 16/1/1
f 18/1/1 11/1/1 10/1/1
f 18/7/1 10/7/1 17/7/1
f 19/3/1 12/3/1 11/3/1
f 19/1/1 11/1/1 18/1/1
f 20/2/1 2/2/1 12/2/1
f 20/3/1 12/3/1 19/3/1
f 21/2/1 13/2/1 1/2/1
f 21/3/1 14/3/1 13/3/1
f 22/8/1 15/8/1 14/8/1
f 22/3/1 14/3/1 21/3/1
f 23/7/1 16/7/1 15/7/1
f 23/8/1 15/8/1 22/8/1
f 24/6/1 17/6/1 16/6/1
f 24/7/1 16/7/1 23/7/1
f 25/5/1 18/5/1 17/5/1
f 25/6/1 17/6/1 24/6/1
f 26/4/1 19/4/1 18/4/1
f 26/5/1 18/5/1 25/5/1
f 27/9/1 20/9/1 19/9/1
f 27/4/1 19/4/1 26/4/1
f 28/2/1 2/2/1 20/2/1
f 28/9/1 20/9/1 27/9/1
f 29/2/1 23/2/1 22/2/1
f 29/2/1 25/2/1 24/2/1
f 29/2/1 28/2/1 27/2/1
f 29/2/1 22/2/1 21/2/1
f 29/2/1 21/2/1 1/2/1
f 29/2/1 26/2/1 25/2/1
f 29/2/1 27/2/1 26/2/1
f 29/2/1 24/2/1 23/2/1
f 30/2/1 2/2/1 28/2/1
f 30/2/1 28/2/1 29/2/1
f 31/2/2 32/2/2 33/2/2
f 33/2/2 32/2/2 34/2/2
f 37/2/3 36/2/3 35/2/3
f 38/2/3 36/2/3 37/2/3
f 39/2/4 40/2/4 41/2/4
f 41/2/4 40/2/4 42/2/4
f 45/2/5 44/2/5 43/2/5
f 46/2/5 44/2/5 45/2/5
f 47/2/6 48/2/6 49/2/6
f 49/2/6 48/2/6 50/2/6
