# MagicaVoxel @ Ephtracy

# group
o 

# material
mtllib campanitaOfi.mtl
usemtl palette

# normals
vn -1 0 0
vn 1 0 0
vn 0 0 1
vn 0 0 -1
vn 0 -1 0
vn 0 1 0

# texcoords
vt 0.00195312 0.5
vt 0.00585938 0.5
vt 0.00976562 0.5
vt 0.0136719 0.5
vt 0.0566406 0.5

# verts
v -0.5 0 0.1
v -0.5 0 -0.2
v -0.5 0.1 0.1
v -0.5 0.1 -0.2
v -0.4 0 0.2
v -0.4 0 0.1
v -0.4 0 -0.2
v -0.4 0 -0.3
v -0.4 0.1 0.2
v -0.4 0.1 0.1
v -0.4 0.1 -0.2
v -0.4 0.1 -0.3
v -0.4 0.2 0.1
v -0.4 0.2 -0.2
v -0.4 0.3 0.1
v -0.4 0.3 -0.2
v -0.3 0 0.3
v -0.3 0 0.2
v -0.3 0 -0.3
v -0.3 0 -0.4
v -0.3 0.1 0.3
v -0.3 0.1 0.2
v -0.3 0.1 0.1
v -0.3 0.1 -0.2
v -0.3 0.1 -0.3
v -0.3 0.1 -0.4
v -0.3 0.2 0.2
v -0.3 0.2 0.1
v -0.3 0.2 -0.2
v -0.3 0.2 -0.3
v -0.3 0.3 0.2
v -0.3 0.3 0.1
v -0.3 0.3 -0.2
v -0.3 0.3 -0.3
v -0.3 0.4 0.1
v -0.3 0.4 -0.2
v -0.2 0 0.4
v -0.2 0 0.3
v -0.2 0 -0.4
v -0.2 0 -0.5
v -0.2 0.1 0.4
v -0.2 0.1 0.3
v -0.2 0.1 0.2
v -0.2 0.1 -0.3
v -0.2 0.1 -0.4
v -0.2 0.1 -0.5
v -0.2 0.2 0.3
v -0.2 0.2 0.2
v -0.2 0.2 -0.3
v -0.2 0.2 -0.4
v -0.2 0.3 0.3
v -0.2 0.3 0.2
v -0.2 0.3 0.1
v -0.2 0.3 -0.2
v -0.2 0.3 -0.3
v -0.2 0.3 -0.4
v -0.2 0.4 0.2
v -0.2 0.4 0.1
v -0.2 0.4 -0.2
v -0.2 0.4 -0.3
v -0.2 0.5 0.1
v -0.2 0.5 -0.2
v -0.1 0 0.5
v -0.1 0 0.4
v -0.1 0 -0.5
v -0.1 0 -0.6
v -0.1 0.1 0.5
v -0.1 0.1 0.4
v -0.1 0.1 0.3
v -0.1 0.1 -0.4
v -0.1 0.1 -0.5
v -0.1 0.1 -0.6
v -0.1 0.2 0.4
v -0.1 0.2 0.3
v -0.1 0.2 -0.4
v -0.1 0.2 -0.5
v -0.1 0.3 0.4
v -0.1 0.3 0.3
v -0.1 0.3 0.2
v -0.1 0.3 -0.3
v -0.1 0.3 -0.4
v -0.1 0.3 -0.5
v -0.1 0.4 0.3
v -0.1 0.4 0.2
v -0.1 0.4 0.1
v -0.1 0.4 -0.2
v -0.1 0.4 -0.3
v -0.1 0.4 -0.4
v -0.1 0.5 0.2
v -0.1 0.5 0.1
v -0.1 0.5 -0.2
v -0.1 0.5 -0.3
v -0.1 0.6 0.1
v -0.1 0.6 -0.2
v 0 0.6 0
v 0 0.6 -0.1
v 0 0.7 0
v 0 0.7 -0.1
v 0.1 0.6 0
v 0.1 0.6 -0.1
v 0.1 0.7 0
v 0.1 0.7 -0.1
v 0.2 0 0.5
v 0.2 0 0.4
v 0.2 0 -0.5
v 0.2 0 -0.6
v 0.2 0.1 0.5
v 0.2 0.1 0.4
v 0.2 0.1 0.3
v 0.2 0.1 -0.4
v 0.2 0.1 -0.5
v 0.2 0.1 -0.6
v 0.2 0.2 0.4
v 0.2 0.2 0.3
v 0.2 0.2 -0.4
v 0.2 0.2 -0.5
v 0.2 0.3 0.4
v 0.2 0.3 0.3
v 0.2 0.3 0.2
v 0.2 0.3 -0.3
v 0.2 0.3 -0.4
v 0.2 0.3 -0.5
v 0.2 0.4 0.3
v 0.2 0.4 0.2
v 0.2 0.4 0.1
v 0.2 0.4 -0.2
v 0.2 0.4 -0.3
v 0.2 0.4 -0.4
v 0.2 0.5 0.2
v 0.2 0.5 0.1
v 0.2 0.5 -0.2
v 0.2 0.5 -0.3
v 0.2 0.6 0.1
v 0.2 0.6 -0.2
v 0.3 0 0.4
v 0.3 0 0.3
v 0.3 0 -0.4
v 0.3 0 -0.5
v 0.3 0.1 0.4
v 0.3 0.1 0.3
v 0.3 0.1 0.2
v 0.3 0.1 -0.3
v 0.3 0.1 -0.4
v 0.3 0.1 -0.5
v 0.3 0.2 0.3
v 0.3 0.2 0.2
v 0.3 0.2 -0.3
v 0.3 0.2 -0.4
v 0.3 0.3 0.3
v 0.3 0.3 0.2
v 0.3 0.3 0.1
v 0.3 0.3 -0.2
v 0.3 0.3 -0.3
v 0.3 0.3 -0.4
v 0.3 0.4 0.2
v 0.3 0.4 0.1
v 0.3 0.4 -0.2
v 0.3 0.4 -0.3
v 0.3 0.5 0.1
v 0.3 0.5 -0.2
v 0.4 0 0.3
v 0.4 0 0.2
v 0.4 0 -0.3
v 0.4 0 -0.4
v 0.4 0.1 0.3
v 0.4 0.1 0.2
v 0.4 0.1 0.1
v 0.4 0.1 -0.2
v 0.4 0.1 -0.3
v 0.4 0.1 -0.4
v 0.4 0.2 0.2
v 0.4 0.2 0.1
v 0.4 0.2 -0.2
v 0.4 0.2 -0.3
v 0.4 0.3 0.2
v 0.4 0.3 0.1
v 0.4 0.3 -0.2
v 0.4 0.3 -0.3
v 0.4 0.4 0.1
v 0.4 0.4 -0.2
v 0.5 0 0.2
v 0.5 0 0.1
v 0.5 0 -0.2
v 0.5 0 -0.3
v 0.5 0.1 0.2
v 0.5 0.1 0.1
v 0.5 0.1 -0.2
v 0.5 0.1 -0.3
v 0.5 0.2 0.1
v 0.5 0.2 -0.2
v 0.5 0.3 0.1
v 0.5 0.3 -0.2
v 0.6 0 0.1
v 0.6 0 -0.2
v 0.6 0.1 0.1
v 0.6 0.1 -0.2
v -0.1 0 0.5
v -0.1 0.1 0.5
v 0.2 0 0.5
v 0.2 0.1 0.5
v -0.2 0 0.4
v -0.2 0.1 0.4
v -0.1 0 0.4
v -0.1 0.1 0.4
v -0.1 0.2 0.4
v -0.1 0.3 0.4
v 0.2 0 0.4
v 0.2 0.1 0.4
v 0.2 0.2 0.4
v 0.2 0.3 0.4
v 0.3 0 0.4
v 0.3 0.1 0.4
v -0.3 0 0.3
v -0.3 0.1 0.3
v -0.2 0 0.3
v -0.2 0.1 0.3
v -0.2 0.2 0.3
v -0.2 0.3 0.3
v -0.1 0.1 0.3
v -0.1 0.2 0.3
v -0.1 0.3 0.3
v -0.1 0.4 0.3
v 0.2 0.1 0.3
v 0.2 0.2 0.3
v 0.2 0.3 0.3
v 0.2 0.4 0.3
v 0.3 0 0.3
v 0.3 0.1 0.3
v 0.3 0.2 0.3
v 0.3 0.3 0.3
v 0.4 0 0.3
v 0.4 0.1 0.3
v -0.4 0 0.2
v -0.4 0.1 0.2
v -0.3 0 0.2
v -0.3 0.1 0.2
v -0.3 0.2 0.2
v -0.3 0.3 0.2
v -0.2 0.1 0.2
v -0.2 0.2 0.2
v -0.2 0.3 0.2
v -0.2 0.4 0.2
v -0.1 0.3 0.2
v -0.1 0.4 0.2
v -0.1 0.5 0.2
v 0.2 0.3 0.2
v 0.2 0.4 0.2
v 0.2 0.5 0.2
v 0.3 0.1 0.2
v 0.3 0.2 0.2
v 0.3 0.3 0.2
v 0.3 0.4 0.2
v 0.4 0 0.2
v 0.4 0.1 0.2
v 0.4 0.2 0.2
v 0.4 0.3 0.2
v 0.5 0 0.2
v 0.5 0.1 0.2
v -0.5 0 0.1
v -0.5 0.1 0.1
v -0.4 0 0.1
v -0.4 0.1 0.1
v -0.4 0.2 0.1
v -0.4 0.3 0.1
v -0.3 0.1 0.1
v -0.3 0.2 0.1
v -0.3 0.3 0.1
v -0.3 0.4 0.1
v -0.2 0.3 0.1
v -0.2 0.4 0.1
v -0.2 0.5 0.1
v -0.1 0.4 0.1
v -0.1 0.5 0.1
v -0.1 0.6 0.1
v 0.2 0.4 0.1
v 0.2 0.5 0.1
v 0.2 0.6 0.1
v 0.3 0.3 0.1
v 0.3 0.4 0.1
v 0.3 0.5 0.1
v 0.4 0.1 0.1
v 0.4 0.2 0.1
v 0.4 0.3 0.1
v 0.4 0.4 0.1
v 0.5 0 0.1
v 0.5 0.1 0.1
v 0.5 0.2 0.1
v 0.5 0.3 0.1
v 0.6 0 0.1
v 0.6 0.1 0.1
v 0 0.6 0
v 0 0.7 0
v 0.1 0.6 0
v 0.1 0.7 0
v 0 0.6 -0.1
v 0 0.7 -0.1
v 0.1 0.6 -0.1
v 0.1 0.7 -0.1
v -0.5 0 -0.2
v -0.5 0.1 -0.2
v -0.4 0 -0.2
v -0.4 0.1 -0.2
v -0.4 0.2 -0.2
v -0.4 0.3 -0.2
v -0.3 0.1 -0.2
v -0.3 0.2 -0.2
v -0.3 0.3 -0.2
v -0.3 0.4 -0.2
v -0.2 0.3 -0.2
v -0.2 0.4 -0.2
v -0.2 0.5 -0.2
v -0.1 0.4 -0.2
v -0.1 0.5 -0.2
v -0.1 0.6 -0.2
v 0.2 0.4 -0.2
v 0.2 0.5 -0.2
v 0.2 0.6 -0.2
v 0.3 0.3 -0.2
v 0.3 0.4 -0.2
v 0.3 0.5 -0.2
v 0.4 0.1 -0.2
v 0.4 0.2 -0.2
v 0.4 0.3 -0.2
v 0.4 0.4 -0.2
v 0.5 0 -0.2
v 0.5 0.1 -0.2
v 0.5 0.2 -0.2
v 0.5 0.3 -0.2
v 0.6 0 -0.2
v 0.6 0.1 -0.2
v -0.4 0 -0.3
v -0.4 0.1 -0.3
v -0.3 0 -0.3
v -0.3 0.1 -0.3
v -0.3 0.2 -0.3
v -0.3 0.3 -0.3
v -0.2 0.1 -0.3
v -0.2 0.2 -0.3
v -0.2 0.3 -0.3
v -0.2 0.4 -0.3
v -0.1 0.3 -0.3
v -0.1 0.4 -0.3
v -0.1 0.5 -0.3
v 0.2 0.3 -0.3
v 0.2 0.4 -0.3
v 0.2 0.5 -0.3
v 0.3 0.1 -0.3
v 0.3 0.2 -0.3
v 0.3 0.3 -0.3
v 0.3 0.4 -0.3
v 0.4 0 -0.3
v 0.4 0.1 -0.3
v 0.4 0.2 -0.3
v 0.4 0.3 -0.3
v 0.5 0 -0.3
v 0.5 0.1 -0.3
v -0.3 0 -0.4
v -0.3 0.1 -0.4
v -0.2 0 -0.4
v -0.2 0.1 -0.4
v -0.2 0.2 -0.4
v -0.2 0.3 -0.4
v -0.1 0.1 -0.4
v -0.1 0.2 -0.4
v -0.1 0.3 -0.4
v -0.1 0.4 -0.4
v 0.2 0.1 -0.4
v 0.2 0.2 -0.4
v 0.2 0.3 -0.4
v 0.2 0.4 -0.4
v 0.3 0 -0.4
v 0.3 0.1 -0.4
v 0.3 0.2 -0.4
v 0.3 0.3 -0.4
v 0.4 0 -0.4
v 0.4 0.1 -0.4
v -0.2 0 -0.5
v -0.2 0.1 -0.5
v -0.1 0 -0.5
v -0.1 0.1 -0.5
v -0.1 0.2 -0.5
v -0.1 0.3 -0.5
v 0.2 0 -0.5
v 0.2 0.1 -0.5
v 0.2 0.2 -0.5
v 0.2 0.3 -0.5
v 0.3 0 -0.5
v 0.3 0.1 -0.5
v -0.1 0 -0.6
v -0.1 0.1 -0.6
v 0.2 0 -0.6
v 0.2 0.1 -0.6
v -0.1 0 0.5
v 0.2 0 0.5
v -0.2 0 0.4
v -0.1 0 0.4
v 0.2 0 0.4
v 0.3 0 0.4
v -0.3 0 0.3
v -0.2 0 0.3
v -0.1 0 0.3
v 0.2 0 0.3
v 0.3 0 0.3
v 0.4 0 0.3
v -0.4 0 0.2
v -0.3 0 0.2
v -0.2 0 0.2
v 0.3 0 0.2
v 0.4 0 0.2
v 0.5 0 0.2
v -0.5 0 0.1
v -0.4 0 0.1
v -0.3 0 0.1
v 0.4 0 0.1
v 0.5 0 0.1
v 0.6 0 0.1
v -0.5 0 -0.2
v -0.4 0 -0.2
v -0.3 0 -0.2
v 0.4 0 -0.2
v 0.5 0 -0.2
v 0.6 0 -0.2
v -0.4 0 -0.3
v -0.3 0 -0.3
v -0.2 0 -0.3
v 0.3 0 -0.3
v 0.4 0 -0.3
v 0.5 0 -0.3
v -0.3 0 -0.4
v -0.2 0 -0.4
v -0.1 0 -0.4
v 0.2 0 -0.4
v 0.3 0 -0.4
v 0.4 0 -0.4
v -0.2 0 -0.5
v -0.1 0 -0.5
v 0.2 0 -0.5
v 0.3 0 -0.5
v -0.1 0 -0.6
v 0.2 0 -0.6
v -0.1 0.1 0.5
v 0.2 0.1 0.5
v -0.2 0.1 0.4
v -0.1 0.1 0.4
v 0.2 0.1 0.4
v 0.3 0.1 0.4
v -0.3 0.1 0.3
v -0.2 0.1 0.3
v -0.1 0.1 0.3
v 0.2 0.1 0.3
v 0.3 0.1 0.3
v 0.4 0.1 0.3
v -0.4 0.1 0.2
v -0.3 0.1 0.2
v -0.2 0.1 0.2
v 0.3 0.1 0.2
v 0.4 0.1 0.2
v 0.5 0.1 0.2
v -0.5 0.1 0.1
v -0.4 0.1 0.1
v -0.3 0.1 0.1
v 0.4 0.1 0.1
v 0.5 0.1 0.1
v 0.6 0.1 0.1
v -0.5 0.1 -0.2
v -0.4 0.1 -0.2
v -0.3 0.1 -0.2
v 0.4 0.1 -0.2
v 0.5 0.1 -0.2
v 0.6 0.1 -0.2
v -0.4 0.1 -0.3
v -0.3 0.1 -0.3
v -0.2 0.1 -0.3
v 0.3 0.1 -0.3
v 0.4 0.1 -0.3
v 0.5 0.1 -0.3
v -0.3 0.1 -0.4
v -0.2 0.1 -0.4
v -0.1 0.1 -0.4
v 0.2 0.1 -0.4
v 0.3 0.1 -0.4
v 0.4 0.1 -0.4
v -0.2 0.1 -0.5
v -0.1 0.1 -0.5
v 0.2 0.1 -0.5
v 0.3 0.1 -0.5
v -0.1 0.1 -0.6
v 0.2 0.1 -0.6
v -0.1 0.3 0.4
v 0.2 0.3 0.4
v -0.2 0.3 0.3
v -0.1 0.3 0.3
v 0.2 0.3 0.3
v 0.3 0.3 0.3
v -0.3 0.3 0.2
v -0.2 0.3 0.2
v -0.1 0.3 0.2
v 0.2 0.3 0.2
v 0.3 0.3 0.2
v 0.4 0.3 0.2
v -0.4 0.3 0.1
v -0.3 0.3 0.1
v -0.2 0.3 0.1
v 0.3 0.3 0.1
v 0.4 0.3 0.1
v 0.5 0.3 0.1
v -0.4 0.3 -0.2
v -0.3 0.3 -0.2
v -0.2 0.3 -0.2
v 0.3 0.3 -0.2
v 0.4 0.3 -0.2
v 0.5 0.3 -0.2
v -0.3 0.3 -0.3
v -0.2 0.3 -0.3
v -0.1 0.3 -0.3
v 0.2 0.3 -0.3
v 0.3 0.3 -0.3
v 0.4 0.3 -0.3
v -0.2 0.3 -0.4
v -0.1 0.3 -0.4
v 0.2 0.3 -0.4
v 0.3 0.3 -0.4
v -0.1 0.3 -0.5
v 0.2 0.3 -0.5
v -0.1 0.4 0.3
v 0.2 0.4 0.3
v -0.2 0.4 0.2
v -0.1 0.4 0.2
v 0.2 0.4 0.2
v 0.3 0.4 0.2
v -0.3 0.4 0.1
v -0.2 0.4 0.1
v -0.1 0.4 0.1
v 0.2 0.4 0.1
v 0.3 0.4 0.1
v 0.4 0.4 0.1
v -0.3 0.4 -0.2
v -0.2 0.4 -0.2
v -0.1 0.4 -0.2
v 0.2 0.4 -0.2
v 0.3 0.4 -0.2
v 0.4 0.4 -0.2
v -0.2 0.4 -0.3
v -0.1 0.4 -0.3
v 0.2 0.4 -0.3
v 0.3 0.4 -0.3
v -0.1 0.4 -0.4
v 0.2 0.4 -0.4
v -0.1 0.5 0.2
v 0.2 0.5 0.2
v -0.2 0.5 0.1
v -0.1 0.5 0.1
v 0.2 0.5 0.1
v 0.3 0.5 0.1
v -0.2 0.5 -0.2
v -0.1 0.5 -0.2
v 0.2 0.5 -0.2
v 0.3 0.5 -0.2
v -0.1 0.5 -0.3
v 0.2 0.5 -0.3
v -0.1 0.6 0.1
v 0.2 0.6 0.1
v 0 0.6 0
v 0.1 0.6 0
v 0 0.6 -0.1
v 0.1 0.6 -0.1
v -0.1 0.6 -0.2
v 0.2 0.6 -0.2
v 0 0.7 0
v 0.1 0.7 0
v 0 0.7 -0.1
v 0.1 0.7 -0.1

# faces
f 3/2/1 2/2/1 1/2/1
f 4/2/1 2/2/1 3/2/1
f 9/2/1 6/2/1 5/2/1
f 10/2/1 6/2/1 9/2/1
f 11/2/1 8/2/1 7/2/1
f 12/2/1 8/2/1 11/2/1
f 13/3/1 11/3/1 10/3/1
f 14/3/1 11/3/1 13/3/1
f 15/1/1 14/1/1 13/1/1
f 16/1/1 14/1/1 15/1/1
f 21/2/1 18/2/1 17/2/1
f 22/2/1 18/2/1 21/2/1
f 25/2/1 20/2/1 19/2/1
f 26/2/1 20/2/1 25/2/1
f 27/3/1 23/3/1 22/3/1
f 28/3/1 23/3/1 27/3/1
f 29/3/1 25/3/1 24/3/1
f 30/3/1 25/3/1 29/3/1
f 31/1/1 28/1/1 27/1/1
f 32/1/1 28/1/1 31/1/1
f 33/1/1 30/1/1 29/1/1
f 34/1/1 30/1/1 33/1/1
f 35/1/1 33/1/1 32/1/1
f 36/1/1 33/1/1 35/1/1
f 41/2/1 38/2/1 37/2/1
f 42/2/1 38/2/1 41/2/1
f 45/2/1 40/2/1 39/2/1
f 46/2/1 40/2/1 45/2/1
f 47/3/1 43/3/1 42/3/1
f 48/3/1 43/3/1 47/3/1
f 49/3/1 45/3/1 44/3/1
f 50/3/1 45/3/1 49/3/1
f 51/1/1 48/1/1 47/1/1
f 52/1/1 48/1/1 51/1/1
f 55/1/1 50/1/1 49/1/1
f 56/1/1 50/1/1 55/1/1
f 57/1/1 53/1/1 52/1/1
f 58/1/1 53/1/1 57/1/1
f 59/1/1 55/1/1 54/1/1
f 60/1/1 55/1/1 59/1/1
f 61/1/1 59/1/1 58/1/1
f 62/1/1 59/1/1 61/1/1
f 67/2/1 64/2/1 63/2/1
f 68/2/1 64/2/1 67/2/1
f 71/2/1 66/2/1 65/2/1
f 72/2/1 66/2/1 71/2/1
f 73/3/1 69/3/1 68/3/1
f 74/3/1 69/3/1 73/3/1
f 75/3/1 71/3/1 70/3/1
f 76/3/1 71/3/1 75/3/1
f 77/1/1 74/1/1 73/1/1
f 78/1/1 74/1/1 77/1/1
f 81/1/1 76/1/1 75/1/1
f 82/1/1 76/1/1 81/1/1
f 83/1/1 79/1/1 78/1/1
f 84/1/1 79/1/1 83/1/1
f 87/1/1 81/1/1 80/1/1
f 88/1/1 81/1/1 87/1/1
f 89/1/1 85/1/1 84/1/1
f 90/1/1 85/1/1 89/1/1
f 91/1/1 87/1/1 86/1/1
f 92/1/1 87/1/1 91/1/1
f 93/1/1 91/1/1 90/1/1
f 94/1/1 91/1/1 93/1/1
f 97/5/1 96/5/1 95/5/1
f 98/5/1 96/5/1 97/5/1
f 99/5/2 100/5/2 101/5/2
f 101/5/2 100/5/2 102/5/2
f 103/2/2 104/2/2 107/2/2
f 107/2/2 104/2/2 108/2/2
f 105/2/2 106/2/2 111/2/2
f 111/2/2 106/2/2 112/2/2
f 108/3/2 109/3/2 113/3/2
f 113/3/2 109/3/2 114/3/2
f 110/3/2 111/3/2 115/3/2
f 115/3/2 111/3/2 116/3/2
f 113/1/2 114/1/2 117/1/2
f 117/1/2 114/1/2 118/1/2
f 115/1/2 116/1/2 121/1/2
f 121/1/2 116/1/2 122/1/2
f 118/1/2 119/1/2 123/1/2
f 123/1/2 119/1/2 124/1/2
f 120/1/2 121/1/2 127/1/2
f 127/1/2 121/1/2 128/1/2
f 124/1/2 125/1/2 129/1/2
f 129/1/2 125/1/2 130/1/2
f 126/1/2 127/1/2 131/1/2
f 131/1/2 127/1/2 132/1/2
f 130/1/2 131/1/2 133/1/2
f 133/1/2 131/1/2 134/1/2
f 135/2/2 136/2/2 139/2/2
f 139/2/2 136/2/2 140/2/2
f 137/2/2 138/2/2 143/2/2
f 143/2/2 138/2/2 144/2/2
f 140/3/2 141/3/2 145/3/2
f 145/3/2 141/3/2 146/3/2
f 142/3/2 143/3/2 147/3/2
f 147/3/2 143/3/2 148/3/2
f 145/1/2 146/1/2 149/1/2
f 149/1/2 146/1/2 150/1/2
f 147/1/2 148/1/2 153/1/2
f 153/1/2 148/1/2 154/1/2
f 150/1/2 151/1/2 155/1/2
f 155/1/2 151/1/2 156/1/2
f 152/1/2 153/1/2 157/1/2
f 157/1/2 153/1/2 158/1/2
f 156/1/2 157/1/2 159/1/2
f 159/1/2 157/1/2 160/1/2
f 161/2/2 162/2/2 165/2/2
f 165/2/2 162/2/2 166/2/2
f 163/2/2 164/2/2 169/2/2
f 169/2/2 164/2/2 170/2/2
f 166/3/2 167/3/2 171/3/2
f 171/3/2 167/3/2 172/3/2
f 168/3/2 169/3/2 173/3/2
f 173/3/2 169/3/2 174/3/2
f 171/1/2 172/1/2 175/1/2
f 175/1/2 172/1/2 176/1/2
f 173/1/2 174/1/2 177/1/2
f 177/1/2 174/1/2 178/1/2
f 176/1/2 177/1/2 179/1/2
f 179/1/2 177/1/2 180/1/2
f 181/2/2 182/2/2 185/2/2
f 185/2/2 182/2/2 186/2/2
f 183/2/2 184/2/2 187/2/2
f 187/2/2 184/2/2 188/2/2
f 186/3/2 187/3/2 189/3/2
f 189/3/2 187/3/2 190/3/2
f 189/1/2 190/1/2 191/1/2
f 191/1/2 190/1/2 192/1/2
f 193/2/2 194/2/2 195/2/2
f 195/2/2 194/2/2 196/2/2
f 199/2/3 198/2/3 197/2/3
f 200/2/3 198/2/3 199/2/3
f 203/2/3 202/2/3 201/2/3
f 204/2/3 202/2/3 203/2/3
f 208/3/3 205/3/3 204/3/3
f 209/1/3 206/1/3 205/1/3
f 209/3/3 205/3/3 208/3/3
f 210/1/3 206/1/3 209/1/3
f 211/2/3 208/2/3 207/2/3
f 212/2/3 208/2/3 211/2/3
f 215/2/3 214/2/3 213/2/3
f 216/2/3 214/2/3 215/2/3
f 219/3/3 217/3/3 216/3/3
f 220/1/3 218/1/3 217/1/3
f 220/3/3 217/3/3 219/3/3
f 221/1/3 218/1/3 220/1/3
f 225/1/3 222/1/3 221/1/3
f 226/1/3 222/1/3 225/1/3
f 228/3/3 224/3/3 223/3/3
f 229/1/3 225/1/3 224/1/3
f 229/3/3 224/3/3 228/3/3
f 230/1/3 225/1/3 229/1/3
f 231/2/3 228/2/3 227/2/3
f 232/2/3 228/2/3 231/2/3
f 235/2/3 234/2/3 233/2/3
f 236/2/3 234/2/3 235/2/3
f 239/3/3 237/3/3 236/3/3
f 240/1/3 238/1/3 237/1/3
f 240/3/3 237/3/3 239/3/3
f 241/1/3 238/1/3 240/1/3
f 243/1/3 242/1/3 241/1/3
f 244/1/3 242/1/3 243/1/3
f 247/1/3 245/1/3 244/1/3
f 248/1/3 245/1/3 247/1/3
f 251/1/3 247/1/3 246/1/3
f 252/1/3 247/1/3 251/1/3
f 254/3/3 250/3/3 249/3/3
f 255/1/3 251/1/3 250/1/3
f 255/3/3 250/3/3 254/3/3
f 256/1/3 251/1/3 255/1/3
f 257/2/3 254/2/3 253/2/3
f 258/2/3 254/2/3 257/2/3
f 261/2/3 260/2/3 259/2/3
f 262/2/3 260/2/3 261/2/3
f 265/3/3 263/3/3 262/3/3
f 266/1/3 264/1/3 263/1/3
f 266/3/3 263/3/3 265/3/3
f 267/1/3 264/1/3 266/1/3
f 269/1/3 268/1/3 267/1/3
f 270/1/3 268/1/3 269/1/3
f 272/1/3 271/1/3 270/1/3
f 273/1/3 271/1/3 272/1/3
f 276/1/3 274/1/3 273/1/3
f 277/1/3 274/1/3 276/1/3
f 279/1/3 276/1/3 275/1/3
f 280/1/3 276/1/3 279/1/3
f 283/1/3 279/1/3 278/1/3
f 284/1/3 279/1/3 283/1/3
f 286/3/3 282/3/3 281/3/3
f 287/1/3 283/1/3 282/1/3
f 287/3/3 282/3/3 286/3/3
f 288/1/3 283/1/3 287/1/3
f 289/2/3 286/2/3 285/2/3
f 290/2/3 286/2/3 289/2/3
f 293/5/3 292/5/3 291/5/3
f 294/5/3 292/5/3 293/5/3
f 295/5/4 296/5/4 297/5/4
f 297/5/4 296/5/4 298/5/4
f 299/2/4 300/2/4 301/2/4
f 301/2/4 300/2/4 302/2/4
f 302/3/4 303/3/4 305/3/4
f 303/1/4 304/1/4 306/1/4
f 305/3/4 303/3/4 306/3/4
f 306/1/4 304/1/4 307/1/4
f 307/1/4 308/1/4 309/1/4
f 309/1/4 308/1/4 310/1/4
f 310/1/4 311/1/4 312/1/4
f 312/1/4 311/1/4 313/1/4
f 313/1/4 314/1/4 316/1/4
f 316/1/4 314/1/4 317/1/4
f 315/1/4 316/1/4 319/1/4
f 319/1/4 316/1/4 320/1/4
f 318/1/4 319/1/4 323/1/4
f 323/1/4 319/1/4 324/1/4
f 321/3/4 322/3/4 326/3/4
f 322/1/4 323/1/4 327/1/4
f 326/3/4 322/3/4 327/3/4
f 327/1/4 323/1/4 328/1/4
f 325/2/4 326/2/4 329/2/4
f 329/2/4 326/2/4 330/2/4
f 331/2/4 332/2/4 333/2/4
f 333/2/4 332/2/4 334/2/4
f 334/3/4 335/3/4 337/3/4
f 335/1/4 336/1/4 338/1/4
f 337/3/4 335/3/4 338/3/4
f 338/1/4 336/1/4 339/1/4
f 339/1/4 340/1/4 341/1/4
f 341/1/4 340/1/4 342/1/4
f 342/1/4 343/1/4 345/1/4
f 345/1/4 343/1/4 346/1/4
f 344/1/4 345/1/4 349/1/4
f 349/1/4 345/1/4 350/1/4
f 347/3/4 348/3/4 352/3/4
f 348/1/4 349/1/4 353/1/4
f 352/3/4 348/3/4 353/3/4
f 353/1/4 349/1/4 354/1/4
f 351/2/4 352/2/4 355/2/4
f 355/2/4 352/2/4 356/2/4
f 357/2/4 358/2/4 359/2/4
f 359/2/4 358/2/4 360/2/4
f 360/3/4 361/3/4 363/3/4
f 361/1/4 362/1/4 364/1/4
f 363/3/4 361/3/4 364/3/4
f 364/1/4 362/1/4 365/1/4
f 365/1/4 366/1/4 369/1/4
f 369/1/4 366/1/4 370/1/4
f 367/3/4 368/3/4 372/3/4
f 368/1/4 369/1/4 373/1/4
f 372/3/4 368/3/4 373/3/4
f 373/1/4 369/1/4 374/1/4
f 371/2/4 372/2/4 375/2/4
f 375/2/4 372/2/4 376/2/4
f 377/2/4 378/2/4 379/2/4
f 379/2/4 378/2/4 380/2/4
f 380/3/4 381/3/4 384/3/4
f 381/1/4 382/1/4 385/1/4
f 384/3/4 381/3/4 385/3/4
f 385/1/4 382/1/4 386/1/4
f 383/2/4 384/2/4 387/2/4
f 387/2/4 384/2/4 388/2/4
f 389/2/4 390/2/4 391/2/4
f 391/2/4 390/2/4 392/2/4
f 396/2/5 394/2/5 393/2/5
f 397/2/5 394/2/5 396/2/5
f 400/2/5 396/2/5 395/2/5
f 401/3/5 397/3/5 396/3/5
f 401/2/5 396/2/5 400/2/5
f 402/2/5 398/2/5 397/2/5
f 402/3/5 397/3/5 401/3/5
f 403/2/5 398/2/5 402/2/5
f 406/2/5 400/2/5 399/2/5
f 407/3/5 401/3/5 400/3/5
f 407/3/5 402/3/5 401/3/5
f 407/2/5 400/2/5 406/2/5
f 407/3/5 403/3/5 402/3/5
f 408/2/5 404/2/5 403/2/5
f 408/3/5 403/3/5 407/3/5
f 409/2/5 404/2/5 408/2/5
f 412/2/5 406/2/5 405/2/5
f 413/3/5 407/3/5 406/3/5
f 413/3/5 408/3/5 407/3/5
f 413/2/5 406/2/5 412/2/5
f 413/3/5 409/3/5 408/3/5
f 414/2/5 410/2/5 409/2/5
f 414/3/5 409/3/5 413/3/5
f 415/2/5 410/2/5 414/2/5
f 417/2/5 412/2/5 411/2/5
f 418/3/5 413/3/5 412/3/5
f 418/2/5 412/2/5 417/2/5
f 418/3/5 414/3/5 413/3/5
f 418/3/5 415/3/5 414/3/5
f 419/3/5 415/3/5 418/3/5
f 420/3/5 415/3/5 419/3/5
f 421/2/5 416/2/5 415/2/5
f 421/3/5 415/3/5 420/3/5
f 422/2/5 416/2/5 421/2/5
f 423/2/5 419/2/5 418/2/5
f 424/3/5 420/3/5 419/3/5
f 424/2/5 419/2/5 423/2/5
f 425/3/5 420/3/5 424/3/5
f 426/3/5 420/3/5 425/3/5
f 427/2/5 421/2/5 420/2/5
f 427/3/5 420/3/5 426/3/5
f 428/2/5 421/2/5 427/2/5
f 429/2/5 425/2/5 424/2/5
f 430/3/5 426/3/5 425/3/5
f 430/2/5 425/2/5 429/2/5
f 431/3/5 426/3/5 430/3/5
f 432/3/5 426/3/5 431/3/5
f 433/2/5 427/2/5 426/2/5
f 433/3/5 426/3/5 432/3/5
f 434/2/5 427/2/5 433/2/5
f 435/2/5 431/2/5 430/2/5
f 436/3/5 432/3/5 431/3/5
f 436/2/5 431/2/5 435/2/5
f 437/2/5 433/2/5 432/2/5
f 437/3/5 432/3/5 436/3/5
f 438/2/5 433/2/5 437/2/5
f 439/2/5 437/2/5 436/2/5
f 440/2/5 437/2/5 439/2/5
f 441/2/6 442/2/6 444/2/6
f 444/2/6 442/2/6 445/2/6
f 443/2/6 444/2/6 448/2/6
f 448/2/6 444/2/6 449/2/6
f 445/2/6 446/2/6 450/2/6
f 450/2/6 446/2/6 451/2/6
f 447/2/6 448/2/6 454/2/6
f 454/2/6 448/2/6 455/2/6
f 451/2/6 452/2/6 456/2/6
f 456/2/6 452/2/6 457/2/6
f 453/2/6 454/2/6 460/2/6
f 460/2/6 454/2/6 461/2/6
f 457/2/6 458/2/6 462/2/6
f 462/2/6 458/2/6 463/2/6
f 459/2/6 460/2/6 465/2/6
f 465/2/6 460/2/6 466/2/6
f 463/2/6 464/2/6 469/2/6
f 469/2/6 464/2/6 470/2/6
f 466/2/6 467/2/6 471/2/6
f 471/2/6 467/2/6 472/2/6
f 468/2/6 469/2/6 475/2/6
f 475/2/6 469/2/6 476/2/6
f 472/2/6 473/2/6 477/2/6
f 477/2/6 473/2/6 478/2/6
f 474/2/6 475/2/6 481/2/6
f 481/2/6 475/2/6 482/2/6
f 478/2/6 479/2/6 483/2/6
f 483/2/6 479/2/6 484/2/6
f 480/2/6 481/2/6 485/2/6
f 485/2/6 481/2/6 486/2/6
f 484/2/6 485/2/6 487/2/6
f 487/2/6 485/2/6 488/2/6
f 489/1/6 490/1/6 492/1/6
f 492/1/6 490/1/6 493/1/6
f 491/1/6 492/1/6 496/1/6
f 496/1/6 492/1/6 497/1/6
f 493/1/6 494/1/6 498/1/6
f 498/1/6 494/1/6 499/1/6
f 495/1/6 496/1/6 502/1/6
f 502/1/6 496/1/6 503/1/6
f 499/1/6 500/1/6 504/1/6
f 504/1/6 500/1/6 505/1/6
f 501/1/6 502/1/6 507/1/6
f 507/1/6 502/1/6 508/1/6
f 505/1/6 506/1/6 511/1/6
f 511/1/6 506/1/6 512/1/6
f 508/1/6 509/1/6 513/1/6
f 513/1/6 509/1/6 514/1/6
f 510/1/6 511/1/6 517/1/6
f 517/1/6 511/1/6 518/1/6
f 514/1/6 515/1/6 519/1/6
f 519/1/6 515/1/6 520/1/6
f 516/1/6 517/1/6 521/1/6
f 521/1/6 517/1/6 522/1/6
f 520/1/6 521/1/6 523/1/6
f 523/1/6 521/1/6 524/1/6
f 525/1/6 526/1/6 528/1/6
f 528/1/6 526/1/6 529/1/6
f 527/1/6 528/1/6 532/1/6
f 532/1/6 528/1/6 533/1/6
f 529/1/6 530/1/6 534/1/6
f 534/1/6 530/1/6 535/1/6
f 531/1/6 532/1/6 537/1/6
f 537/1/6 532/1/6 538/1/6
f 535/1/6 536/1/6 541/1/6
f 541/1/6 536/1/6 542/1/6
f 538/1/6 539/1/6 543/1/6
f 543/1/6 539/1/6 544/1/6
f 540/1/6 541/1/6 545/1/6
f 545/1/6 541/1/6 546/1/6
f 544/1/6 545/1/6 547/1/6
f 547/1/6 545/1/6 548/1/6
f 549/1/6 550/1/6 552/1/6
f 552/1/6 550/1/6 553/1/6
f 551/1/6 552/1/6 555/1/6
f 555/1/6 552/1/6 556/1/6
f 553/1/6 554/1/6 557/1/6
f 557/1/6 554/1/6 558/1/6
f 556/1/6 557/1/6 559/1/6
f 559/1/6 557/1/6 560/1/6
f 561/1/6 562/1/6 563/1/6
f 563/1/6 562/1/6 564/1/6
f 561/1/6 563/1/6 565/1/6
f 564/1/6 562/1/6 566/1/6
f 561/1/6 565/1/6 567/1/6
f 565/1/6 566/1/6 567/1/6
f 566/1/6 562/1/6 568/1/6
f 567/1/6 566/1/6 568/1/6
f 569/5/6 570/5/6 571/5/6
f 571/5/6 570/5/6 572/5/6
