# MagicaVoxel @ Ephtracy

# group
o 

# material
mtllib Plancha_vacia.mtl
usemtl palette

# normals
vn -1 0 0
vn 1 0 0
vn 0 0 1
vn 0 0 -1
vn 0 -1 0
vn 0 1 0

# texcoords
vt 0.00195312 0.5
vt 0.0214844 0.5
vt 0.0253906 0.5
vt 0.0996094 0.5
vt 0.150391 0.5
vt 0.193359 0.5
vt 0.244141 0.5
vt 0.275391 0.5

# verts
v -3 1 4
v -3 1 -4.5
v -3 8 4
v -3 8 -2.7
v -3 11.2 -2.7
v -3 11.2 -4.5
v -2.7 0.2 3.7
v -2.7 0.2 3.3
v -2.7 0.2 -3.8
v -2.7 0.2 -4.2
v -2.7 0.3 3.7
v -2.7 0.3 3.3
v -2.7 0.3 -3.8
v -2.7 0.3 -4.2
v -2.7 1 3.7
v -2.7 1 3.3
v -2.7 1 -3.8
v -2.7 1 -4.2
v -2.6 0 3.6
v -2.6 0 3.4
v -2.6 0 -3.9
v -2.6 0 -4.1
v -2.6 0.2 3.6
v -2.6 0.2 3.4
v -2.6 0.2 -3.9
v -2.6 0.2 -4.1
v -2.6 10 -3.2
v -2.6 10 -4
v -2.6 10.4 -3.2
v -2.6 10.4 -4
v 1.4 7.1 4.1
v 1.4 7.1 4
v 1.4 7.6 4.1
v 1.4 7.6 4
v 1.5 7.3 4.2
v 1.5 7.3 4.1
v 1.5 7.5 4.2
v 1.5 7.5 4.1
v 1.9 9.9 -3.9
v 1.9 9.9 -4
v 1.9 10 -3.9
v 1.9 10 -4
v 2.3 0.2 3.7
v 2.3 0.2 3.3
v 2.3 0.2 -3.8
v 2.3 0.2 -4.2
v 2.3 0.3 3.7
v 2.3 0.3 3.3
v 2.3 0.3 -3.8
v 2.3 0.3 -4.2
v 2.3 1 3.7
v 2.3 1 3.3
v 2.3 1 -3.8
v 2.3 1 -4.2
v 2.4 0 3.6
v 2.4 0 3.4
v 2.4 0 -3.9
v 2.4 0 -4.1
v 2.4 0.2 3.6
v 2.4 0.2 3.4
v 2.4 0.2 -3.9
v 2.4 0.2 -4.1
v 2.5 7.8 3.2
v 2.5 7.8 -2.6
v 2.5 7.8 -2.7
v 2.5 8 3.2
v 2.5 8 -2.7
v 2.7 10 -3.2
v 2.7 10 -4
v 2.7 10.4 -3.2
v 2.7 10.4 -4
v -2.7 10 -3.2
v -2.7 10 -4
v -2.7 10.4 -3.2
v -2.7 10.4 -4
v -2.4 0 3.6
v -2.4 0 3.4
v -2.4 0 -3.9
v -2.4 0 -4.1
v -2.4 0.2 3.6
v -2.4 0.2 3.4
v -2.4 0.2 -3.9
v -2.4 0.2 -4.1
v -2.4 7.8 3.2
v -2.4 7.8 -2.6
v -2.4 7.8 -2.7
v -2.4 8 3.2
v -2.4 8 -2.7
v -2.3 0.2 3.7
v -2.3 0.2 3.3
v -2.3 0.2 -3.8
v -2.3 0.2 -4.2
v -2.3 0.3 3.7
v -2.3 0.3 3.3
v -2.3 0.3 -3.8
v -2.3 0.3 -4.2
v -2.3 1 3.7
v -2.3 1 3.3
v -2.3 1 -3.8
v -2.3 1 -4.2
v -1.9 9.9 -3.9
v -1.9 9.9 -4
v -1.9 10 -3.9
v -1.9 10 -4
v 2.1 7.3 4.2
v 2.1 7.3 4.1
v 2.1 7.5 4.2
v 2.1 7.5 4.1
v 2.2 7.1 4.1
v 2.2 7.1 4
v 2.2 7.6 4.1
v 2.2 7.6 4
v 2.6 0 3.6
v 2.6 0 3.4
v 2.6 0 -3.9
v 2.6 0 -4.1
v 2.6 0.2 3.6
v 2.6 0.2 3.4
v 2.6 0.2 -3.9
v 2.6 0.2 -4.1
v 2.6 10 -3.2
v 2.6 10 -4
v 2.6 10.4 -3.2
v 2.6 10.4 -4
v 2.7 0.2 3.7
v 2.7 0.2 3.3
v 2.7 0.2 -3.8
v 2.7 0.2 -4.2
v 2.7 0.3 3.7
v 2.7 0.3 3.3
v 2.7 0.3 -3.8
v 2.7 0.3 -4.2
v 2.7 1 3.7
v 2.7 1 3.3
v 2.7 1 -3.8
v 2.7 1 -4.2
v 3 1 4
v 3 1 -4.5
v 3 8 4
v 3 8 -2.7
v 3 11.2 -2.7
v 3 11.2 -4.5
v 1.5 7.3 4.2
v 1.5 7.5 4.2
v 2.1 7.3 4.2
v 2.1 7.5 4.2
v 1.4 7.1 4.1
v 1.4 7.6 4.1
v 1.5 7.3 4.1
v 1.5 7.5 4.1
v 2.1 7.3 4.1
v 2.1 7.5 4.1
v 2.2 7.1 4.1
v 2.2 7.6 4.1
v -3 1 4
v -3 8 4
v -2 2.5 4
v -2 4.2 4
v -1.8 2.1 4
v -1.8 2.5 4
v -0.3 3.7 4
v -0.3 4.2 4
v 0.2 2.1 4
v 0.2 3.7 4
v 1.4 7.1 4
v 1.4 7.6 4
v 2.2 7.1 4
v 2.2 7.6 4
v 3 1 4
v 3 8 4
v -2.7 0.2 3.7
v -2.7 0.3 3.7
v -2.7 1 3.7
v -2.3 0.2 3.7
v -2.3 0.3 3.7
v -2.3 1 3.7
v 2.3 0.2 3.7
v 2.3 0.3 3.7
v 2.3 1 3.7
v 2.7 0.2 3.7
v 2.7 0.3 3.7
v 2.7 1 3.7
v -2.6 0 3.6
v -2.6 0.2 3.6
v -2.4 0 3.6
v -2.4 0.2 3.6
v 2.4 0 3.6
v 2.4 0.2 3.6
v 2.6 0 3.6
v 2.6 0.2 3.6
v -3 8 -2.7
v -3 11.2 -2.7
v -2.9 10.4 -2.7
v -2.9 10.7 -2.7
v -2.7 10 -2.7
v -2.7 10.4 -2.7
v -2.6 8 -2.7
v -2.4 7.8 -2.7
v -2.4 8 -2.7
v -2.4 8.1 -2.7
v 2.5 7.8 -2.7
v 2.5 8 -2.7
v 2.5 8.1 -2.7
v 2.7 8 -2.7
v 2.7 10 -2.7
v 2.7 10.4 -2.7
v 2.9 10.4 -2.7
v 2.9 10.7 -2.7
v 3 8 -2.7
v 3 11.2 -2.7
v -2.7 0.2 -3.8
v -2.7 0.3 -3.8
v -2.7 1 -3.8
v -2.3 0.2 -3.8
v -2.3 0.3 -3.8
v -2.3 1 -3.8
v 2.3 0.2 -3.8
v 2.3 0.3 -3.8
v 2.3 1 -3.8
v 2.7 0.2 -3.8
v 2.7 0.3 -3.8
v 2.7 1 -3.8
v -2.6 0 -3.9
v -2.6 0.2 -3.9
v -2.4 0 -3.9
v -2.4 0.2 -3.9
v 2.4 0 -3.9
v 2.4 0.2 -3.9
v 2.6 0 -3.9
v 2.6 0.2 -3.9
v -2.7 10 -4
v -2.7 10.4 -4
v -2.6 10 -4
v -2.6 10.4 -4
v -1.9 9.9 -4
v -1.9 10 -4
v 1.9 9.9 -4
v 1.9 10 -4
v 2.6 10 -4
v 2.6 10.4 -4
v 2.7 10 -4
v 2.7 10.4 -4
v -2.6 0 3.4
v -2.6 0.2 3.4
v -2.4 0 3.4
v -2.4 0.2 3.4
v 2.4 0 3.4
v 2.4 0.2 3.4
v 2.6 0 3.4
v 2.6 0.2 3.4
v -2.7 0.2 3.3
v -2.7 0.3 3.3
v -2.7 1 3.3
v -2.3 0.2 3.3
v -2.3 0.3 3.3
v -2.3 1 3.3
v 2.3 0.2 3.3
v 2.3 0.3 3.3
v 2.3 1 3.3
v 2.7 0.2 3.3
v 2.7 0.3 3.3
v 2.7 1 3.3
v -2.4 7.8 3.2
v -2.4 8 3.2
v 2.5 7.8 3.2
v 2.5 8 3.2
v -2.7 10 -3.2
v -2.7 10.4 -3.2
v -2.6 10 -3.2
v -2.6 10.4 -3.2
v 2.6 10 -3.2
v 2.6 10.4 -3.2
v 2.7 10 -3.2
v 2.7 10.4 -3.2
v -1.9 9.9 -3.9
v -1.9 10 -3.9
v 1.9 9.9 -3.9
v 1.9 10 -3.9
v -2.6 0 -4.1
v -2.6 0.2 -4.1
v -2.4 0 -4.1
v -2.4 0.2 -4.1
v 2.4 0 -4.1
v 2.4 0.2 -4.1
v 2.6 0 -4.1
v 2.6 0.2 -4.1
v -2.7 0.2 -4.2
v -2.7 0.3 -4.2
v -2.7 1 -4.2
v -2.3 0.2 -4.2
v -2.3 0.3 -4.2
v -2.3 1 -4.2
v 2.3 0.2 -4.2
v 2.3 0.3 -4.2
v 2.3 1 -4.2
v 2.7 0.2 -4.2
v 2.7 0.3 -4.2
v 2.7 1 -4.2
v -3 1 -4.5
v -3 11.2 -4.5
v 3 1 -4.5
v 3 11.2 -4.5
v -2.6 0 3.6
v -2.4 0 3.6
v 2.4 0 3.6
v 2.6 0 3.6
v -2.6 0 3.4
v -2.4 0 3.4
v 2.4 0 3.4
v 2.6 0 3.4
v -2.6 0 -3.9
v -2.4 0 -3.9
v 2.4 0 -3.9
v 2.6 0 -3.9
v -2.6 0 -4.1
v -2.4 0 -4.1
v 2.4 0 -4.1
v 2.6 0 -4.1
v -2.7 0.2 3.7
v -2.3 0.2 3.7
v 2.3 0.2 3.7
v 2.7 0.2 3.7
v -2.6 0.2 3.6
v -2.4 0.2 3.6
v 2.4 0.2 3.6
v 2.6 0.2 3.6
v -2.6 0.2 3.4
v -2.4 0.2 3.4
v 2.4 0.2 3.4
v 2.6 0.2 3.4
v -2.7 0.2 3.3
v -2.3 0.2 3.3
v 2.3 0.2 3.3
v 2.7 0.2 3.3
v -2.7 0.2 -3.8
v -2.3 0.2 -3.8
v 2.3 0.2 -3.8
v 2.7 0.2 -3.8
v -2.6 0.2 -3.9
v -2.4 0.2 -3.9
v 2.4 0.2 -3.9
v 2.6 0.2 -3.9
v -2.6 0.2 -4.1
v -2.4 0.2 -4.1
v 2.4 0.2 -4.1
v 2.6 0.2 -4.1
v -2.7 0.2 -4.2
v -2.3 0.2 -4.2
v 2.3 0.2 -4.2
v 2.7 0.2 -4.2
v -3 1 4
v 3 1 4
v -2.7 1 3.7
v -2.3 1 3.7
v 2.3 1 3.7
v 2.7 1 3.7
v -2.7 1 3.3
v -2.3 1 3.3
v 2.3 1 3.3
v 2.7 1 3.3
v -2.7 1 -3.8
v -2.3 1 -3.8
v 2.3 1 -3.8
v 2.7 1 -3.8
v -2.7 1 -4.2
v -2.3 1 -4.2
v 2.3 1 -4.2
v 2.7 1 -4.2
v -3 1 -4.5
v 3 1 -4.5
v 1.4 7.1 4.1
v 2.2 7.1 4.1
v 1.4 7.1 4
v 2.2 7.1 4
v 1.5 7.3 4.2
v 2.1 7.3 4.2
v 1.5 7.3 4.1
v 2.1 7.3 4.1
v -1.9 10 -3.9
v 1.9 10 -3.9
v -1.9 10 -4
v 1.9 10 -4
v -2.7 10.4 -3.2
v -2.6 10.4 -3.2
v 2.6 10.4 -3.2
v 2.7 10.4 -3.2
v -2.7 10.4 -4
v -2.6 10.4 -4
v 2.6 10.4 -4
v 2.7 10.4 -4
v 1.5 7.5 4.2
v 2.1 7.5 4.2
v 1.5 7.5 4.1
v 2.1 7.5 4.1
v 1.4 7.6 4.1
v 2.2 7.6 4.1
v 1.4 7.6 4
v 2.2 7.6 4
v -2.4 7.8 3.2
v 2.5 7.8 3.2
v -2.4 7.8 -2.6
v 2.5 7.8 -2.6
v -2.4 7.8 -2.7
v 2.5 7.8 -2.7
v -3 8 4
v 3 8 4
v -2.6 8 3.4
v 2.7 8 3.4
v -2.4 8 3.2
v 2.5 8 3.2
v -3 8 -2.7
v -2.6 8 -2.7
v -2.4 8 -2.7
v 2.5 8 -2.7
v 2.7 8 -2.7
v 3 8 -2.7
v -1.9 9.9 -3.9
v 1.9 9.9 -3.9
v -1.9 9.9 -4
v 1.9 9.9 -4
v -2.7 10 -3.2
v -2.6 10 -3.2
v 2.6 10 -3.2
v 2.7 10 -3.2
v -2.7 10 -4
v -2.6 10 -4
v 2.6 10 -4
v 2.7 10 -4
v -3 11.2 -2.7
v 3 11.2 -2.7
v -2.5 11.2 -3.2
v 2.5 11.2 -3.2
v -2.5 11.2 -4
v 2.5 11.2 -4
v -3 11.2 -4.5
v 3 11.2 -4.5

# faces
f 3/3/1 2/3/1 1/3/1
f 4/3/1 2/3/1 3/3/1
f 5/3/1 2/3/1 4/3/1
f 6/3/1 2/3/1 5/3/1
f 11/2/1 8/2/1 7/2/1
f 12/2/1 8/2/1 11/2/1
f 13/2/1 10/2/1 9/2/1
f 14/2/1 10/2/1 13/2/1
f 15/3/1 12/3/1 11/3/1
f 16/3/1 12/3/1 15/3/1
f 17/3/1 14/3/1 13/3/1
f 18/3/1 14/3/1 17/3/1
f 23/2/1 20/2/1 19/2/1
f 24/2/1 20/2/1 23/2/1
f 25/2/1 22/2/1 21/2/1
f 26/2/1 22/2/1 25/2/1
f 29/4/1 28/4/1 27/4/1
f 30/4/1 28/4/1 29/4/1
f 33/5/1 32/5/1 31/5/1
f 34/5/1 32/5/1 33/5/1
f 37/6/1 36/6/1 35/6/1
f 38/6/1 36/6/1 37/6/1
f 41/3/1 40/3/1 39/3/1
f 42/3/1 40/3/1 41/3/1
f 47/2/1 44/2/1 43/2/1
f 48/2/1 44/2/1 47/2/1
f 49/2/1 46/2/1 45/2/1
f 50/2/1 46/2/1 49/2/1
f 51/3/1 48/3/1 47/3/1
f 52/3/1 48/3/1 51/3/1
f 53/3/1 50/3/1 49/3/1
f 54/3/1 50/3/1 53/3/1
f 59/2/1 56/2/1 55/2/1
f 60/2/1 56/2/1 59/2/1
f 61/2/1 58/2/1 57/2/1
f 62/2/1 58/2/1 61/2/1
f 66/7/1 64/7/1 63/7/1
f 66/7/1 65/7/1 64/7/1
f 67/7/1 65/7/1 66/7/1
f 70/3/1 69/3/1 68/3/1
f 71/3/1 69/3/1 70/3/1
f 72/3/2 73/3/2 74/3/2
f 74/3/2 73/3/2 75/3/2
f 76/2/2 77/2/2 80/2/2
f 80/2/2 77/2/2 81/2/2
f 78/2/2 79/2/2 82/2/2
f 82/2/2 79/2/2 83/2/2
f 84/7/2 85/7/2 87/7/2
f 85/7/2 86/7/2 87/7/2
f 87/7/2 86/7/2 88/7/2
f 89/2/2 90/2/2 93/2/2
f 93/2/2 90/2/2 94/2/2
f 91/2/2 92/2/2 95/2/2
f 95/2/2 92/2/2 96/2/2
f 93/3/2 94/3/2 97/3/2
f 97/3/2 94/3/2 98/3/2
f 95/3/2 96/3/2 99/3/2
f 99/3/2 96/3/2 100/3/2
f 101/3/2 102/3/2 103/3/2
f 103/3/2 102/3/2 104/3/2
f 105/6/2 106/6/2 107/6/2
f 107/6/2 106/6/2 108/6/2
f 109/5/2 110/5/2 111/5/2
f 111/5/2 110/5/2 112/5/2
f 113/2/2 114/2/2 117/2/2
f 117/2/2 114/2/2 118/2/2
f 115/2/2 116/2/2 119/2/2
f 119/2/2 116/2/2 120/2/2
f 121/4/2 122/4/2 123/4/2
f 123/4/2 122/4/2 124/4/2
f 125/2/2 126/2/2 129/2/2
f 129/2/2 126/2/2 130/2/2
f 127/2/2 128/2/2 131/2/2
f 131/2/2 128/2/2 132/2/2
f 129/3/2 130/3/2 133/3/2
f 133/3/2 130/3/2 134/3/2
f 131/3/2 132/3/2 135/3/2
f 135/3/2 132/3/2 136/3/2
f 137/3/2 138/3/2 139/3/2
f 139/3/2 138/3/2 140/3/2
f 140/3/2 138/3/2 141/3/2
f 141/3/2 138/3/2 142/3/2
f 145/6/3 144/6/3 143/6/3
f 146/6/3 144/6/3 145/6/3
f 149/5/3 148/5/3 147/5/3
f 150/5/3 148/5/3 149/5/3
f 151/5/3 149/5/3 147/5/3
f 152/5/3 148/5/3 150/5/3
f 153/5/3 151/5/3 147/5/3
f 153/5/3 152/5/3 151/5/3
f 154/5/3 148/5/3 152/5/3
f 154/5/3 152/5/3 153/5/3
f 157/3/3 156/3/3 155/3/3
f 158/3/3 156/3/3 157/3/3
f 159/3/3 157/3/3 155/3/3
f 160/4/3 158/4/3 157/4/3
f 160/3/3 157/3/3 159/3/3
f 161/4/3 160/4/3 159/4/3
f 161/4/3 158/4/3 160/4/3
f 162/3/3 156/3/3 158/3/3
f 162/4/3 158/4/3 161/4/3
f 163/4/3 161/4/3 159/4/3
f 163/3/3 159/3/3 155/3/3
f 164/3/3 162/3/3 161/3/3
f 164/4/3 161/4/3 163/4/3
f 165/3/3 156/3/3 162/3/3
f 165/3/3 162/3/3 164/3/3
f 165/3/3 164/3/3 163/3/3
f 166/3/3 156/3/3 165/3/3
f 167/3/3 165/3/3 163/3/3
f 168/3/3 156/3/3 166/3/3
f 169/3/3 163/3/3 155/3/3
f 169/3/3 168/3/3 167/3/3
f 169/3/3 167/3/3 163/3/3
f 170/3/3 156/3/3 168/3/3
f 170/3/3 168/3/3 169/3/3
f 174/2/3 172/2/3 171/2/3
f 175/3/3 173/3/3 172/3/3
f 175/2/3 172/2/3 174/2/3
f 176/3/3 173/3/3 175/3/3
f 180/2/3 178/2/3 177/2/3
f 181/3/3 179/3/3 178/3/3
f 181/2/3 178/2/3 180/2/3
f 182/3/3 179/3/3 181/3/3
f 185/2/3 184/2/3 183/2/3
f 186/2/3 184/2/3 185/2/3
f 189/2/3 188/2/3 187/2/3
f 190/2/3 188/2/3 189/2/3
f 193/3/3 192/3/3 191/3/3
f 194/3/3 192/3/3 193/3/3
f 195/3/3 193/3/3 191/3/3
f 196/4/3 194/4/3 193/4/3
f 196/3/3 193/3/3 195/3/3
f 197/3/3 195/3/3 191/3/3
f 199/3/3 195/3/3 197/3/3
f 200/3/3 195/3/3 199/3/3
f 201/7/3 199/7/3 198/7/3
f 202/4/3 200/4/3 199/4/3
f 202/7/3 199/7/3 201/7/3
f 203/3/3 195/3/3 200/3/3
f 203/4/3 200/4/3 202/4/3
f 204/3/3 203/3/3 202/3/3
f 205/4/3 196/4/3 195/4/3
f 205/3/3 203/3/3 204/3/3
f 205/3/3 195/3/3 203/3/3
f 206/4/3 194/4/3 196/4/3
f 206/4/3 196/4/3 205/4/3
f 207/3/3 205/3/3 204/3/3
f 207/4/3 194/4/3 206/4/3
f 207/3/3 206/3/3 205/3/3
f 208/3/3 192/3/3 194/3/3
f 208/4/3 194/4/3 207/4/3
f 209/3/3 207/3/3 204/3/3
f 209/3/3 208/3/3 207/3/3
f 210/3/3 192/3/3 208/3/3
f 210/3/3 208/3/3 209/3/3
f 214/2/3 212/2/3 211/2/3
f 215/3/3 213/3/3 212/3/3
f 215/2/3 212/2/3 214/2/3
f 216/3/3 213/3/3 215/3/3
f 220/2/3 218/2/3 217/2/3
f 221/3/3 219/3/3 218/3/3
f 221/2/3 218/2/3 220/2/3
f 222/3/3 219/3/3 221/3/3
f 225/2/3 224/2/3 223/2/3
f 226/2/3 224/2/3 225/2/3
f 229/2/3 228/2/3 227/2/3
f 230/2/3 228/2/3 229/2/3
f 233/3/3 232/3/3 231/3/3
f 234/3/3 232/3/3 233/3/3
f 237/3/3 236/3/3 235/3/3
f 238/3/3 236/3/3 237/3/3
f 241/3/3 240/3/3 239/3/3
f 242/3/3 240/3/3 241/3/3
f 243/2/4 244/2/4 245/2/4
f 245/2/4 244/2/4 246/2/4
f 247/2/4 248/2/4 249/2/4
f 249/2/4 248/2/4 250/2/4
f 251/2/4 252/2/4 254/2/4
f 252/3/4 253/3/4 255/3/4
f 254/2/4 252/2/4 255/2/4
f 255/3/4 253/3/4 256/3/4
f 257/2/4 258/2/4 260/2/4
f 258/3/4 259/3/4 261/3/4
f 260/2/4 258/2/4 261/2/4
f 261/3/4 259/3/4 262/3/4
f 263/7/4 264/7/4 265/7/4
f 265/7/4 264/7/4 266/7/4
f 267/4/4 268/4/4 269/4/4
f 269/4/4 268/4/4 270/4/4
f 271/4/4 272/4/4 273/4/4
f 273/4/4 272/4/4 274/4/4
f 275/3/4 276/3/4 277/3/4
f 277/3/4 276/3/4 278/3/4
f 279/2/4 280/2/4 281/2/4
f 281/2/4 280/2/4 282/2/4
f 283/2/4 284/2/4 285/2/4
f 285/2/4 284/2/4 286/2/4
f 287/2/4 288/2/4 290/2/4
f 288/3/4 289/3/4 291/3/4
f 290/2/4 288/2/4 291/2/4
f 291/3/4 289/3/4 292/3/4
f 293/2/4 294/2/4 296/2/4
f 294/3/4 295/3/4 297/3/4
f 296/2/4 294/2/4 297/2/4
f 297/3/4 295/3/4 298/3/4
f 299/3/4 300/3/4 301/3/4
f 301/3/4 300/3/4 302/3/4
f 307/2/5 304/2/5 303/2/5
f 308/2/5 304/2/5 307/2/5
f 309/2/5 306/2/5 305/2/5
f 310/2/5 306/2/5 309/2/5
f 315/2/5 312/2/5 311/2/5
f 316/2/5 312/2/5 315/2/5
f 317/2/5 314/2/5 313/2/5
f 318/2/5 314/2/5 317/2/5
f 323/2/5 320/2/5 319/2/5
f 324/2/5 320/2/5 323/2/5
f 325/2/5 322/2/5 321/2/5
f 326/2/5 322/2/5 325/2/5
f 327/2/5 323/2/5 319/2/5
f 328/2/5 320/2/5 324/2/5
f 329/2/5 325/2/5 321/2/5
f 330/2/5 322/2/5 326/2/5
f 331/2/5 327/2/5 319/2/5
f 331/2/5 328/2/5 327/2/5
f 332/2/5 320/2/5 328/2/5
f 332/2/5 328/2/5 331/2/5
f 333/2/5 330/2/5 329/2/5
f 333/2/5 329/2/5 321/2/5
f 334/2/5 322/2/5 330/2/5
f 334/2/5 330/2/5 333/2/5
f 339/2/5 336/2/5 335/2/5
f 340/2/5 336/2/5 339/2/5
f 341/2/5 338/2/5 337/2/5
f 342/2/5 338/2/5 341/2/5
f 343/2/5 339/2/5 335/2/5
f 344/2/5 336/2/5 340/2/5
f 345/2/5 341/2/5 337/2/5
f 346/2/5 338/2/5 342/2/5
f 347/2/5 343/2/5 335/2/5
f 347/2/5 344/2/5 343/2/5
f 348/2/5 336/2/5 344/2/5
f 348/2/5 344/2/5 347/2/5
f 349/2/5 346/2/5 345/2/5
f 349/2/5 345/2/5 337/2/5
f 350/2/5 338/2/5 346/2/5
f 350/2/5 346/2/5 349/2/5
f 353/3/5 352/3/5 351/3/5
f 354/3/5 352/3/5 353/3/5
f 355/3/5 352/3/5 354/3/5
f 356/3/5 352/3/5 355/3/5
f 357/3/5 353/3/5 351/3/5
f 358/3/5 355/3/5 354/3/5
f 359/3/5 355/3/5 358/3/5
f 360/3/5 352/3/5 356/3/5
f 361/3/5 359/3/5 358/3/5
f 361/3/5 360/3/5 359/3/5
f 361/3/5 357/3/5 351/3/5
f 361/3/5 358/3/5 357/3/5
f 362/3/5 360/3/5 361/3/5
f 363/3/5 360/3/5 362/3/5
f 364/3/5 352/3/5 360/3/5
f 364/3/5 360/3/5 363/3/5
f 365/3/5 361/3/5 351/3/5
f 366/3/5 363/3/5 362/3/5
f 367/3/5 363/3/5 366/3/5
f 368/3/5 352/3/5 364/3/5
f 369/3/5 365/3/5 351/3/5
f 369/3/5 368/3/5 367/3/5
f 369/3/5 367/3/5 366/3/5
f 369/3/5 366/3/5 365/3/5
f 370/3/5 352/3/5 368/3/5
f 370/3/5 368/3/5 369/3/5
f 373/5/5 372/5/5 371/5/5
f 374/5/5 372/5/5 373/5/5
f 377/6/5 376/6/5 375/6/5
f 378/6/5 376/6/5 377/6/5
f 381/4/5 380/4/5 379/4/5
f 382/4/5 380/4/5 381/4/5
f 387/3/5 384/3/5 383/3/5
f 388/3/5 384/3/5 387/3/5
f 389/3/5 386/3/5 385/3/5
f 390/3/5 386/3/5 389/3/5
f 391/6/6 392/6/6 393/6/6
f 393/6/6 392/6/6 394/6/6
f 395/5/6 396/5/6 397/5/6
f 397/5/6 396/5/6 398/5/6
f 399/8/6 400/8/6 401/8/6
f 401/8/6 400/8/6 402/8/6
f 401/7/6 402/7/6 403/7/6
f 403/7/6 402/7/6 404/7/6
f 405/3/6 406/3/6 407/3/6
f 407/3/6 406/3/6 408/3/6
f 407/7/6 408/7/6 409/7/6
f 409/7/6 408/7/6 410/7/6
f 405/3/6 407/3/6 411/3/6
f 407/7/6 409/7/6 412/7/6
f 411/3/6 407/3/6 412/3/6
f 412/7/6 409/7/6 413/7/6
f 410/7/6 408/7/6 414/7/6
f 408/3/6 406/3/6 415/3/6
f 414/7/6 408/7/6 415/7/6
f 415/3/6 406/3/6 416/3/6
f 417/3/6 418/3/6 419/3/6
f 419/3/6 418/3/6 420/3/6
f 421/3/6 422/3/6 425/3/6
f 425/3/6 422/3/6 426/3/6
f 423/3/6 424/3/6 427/3/6
f 427/3/6 424/3/6 428/3/6
f 429/3/6 430/3/6 431/3/6
f 431/3/6 430/3/6 432/3/6
f 429/3/6 431/3/6 433/3/6
f 431/4/6 432/4/6 433/4/6
f 432/3/6 430/3/6 434/3/6
f 433/4/6 432/4/6 434/4/6
f 429/3/6 433/3/6 435/3/6
f 433/3/6 434/3/6 435/3/6
f 434/3/6 430/3/6 436/3/6
f 435/3/6 434/3/6 436/3/6
