# MagicaVoxel @ Ephtracy

# group
o 

# material
mtllib cuchillo.mtl
usemtl palette

# normals
vn -1 0 0
vn 1 0 0
vn 0 0 1
vn 0 0 -1
vn 0 -1 0
vn 0 1 0

# texcoords
vt 0.00195312 0.5
vt 0.955078 0.5
vt 0.966797 0.5

# verts
v -1.1 0.9 -0.2
v -1.1 0.9 -0.3
v -1.1 1 -0.2
v -1.1 1 -0.3
v -1 0.8 -0.2
v -1 0.8 -0.3
v -1 0.9 -0.2
v -1 0.9 -0.3
v -0.9 0.7 -0.2
v -0.9 0.7 -0.3
v -0.9 0.8 -0.2
v -0.9 0.8 -0.3
v -0.8 0.6 -0.2
v -0.8 0.6 -0.3
v -0.8 0.7 -0.2
v -0.8 0.7 -0.3
v 0.1 0.7 -0.1
v 0.1 0.7 -0.2
v 0.1 0.7 -0.3
v 0.1 0.7 -0.4
v 0.1 1 -0.1
v 0.1 1 -0.2
v 0.1 1 -0.3
v 0.1 1 -0.4
v 1 0.7 -0.1
v 1 0.7 -0.4
v 1 0.8 -0.1
v 1 0.8 -0.4
v 0 0.6 -0.2
v 0 0.6 -0.3
v 0 0.7 -0.2
v 0 0.7 -0.3
v 0.2 0.7 -0.1
v 0.2 0.7 -0.4
v 0.2 0.8 -0.1
v 0.2 0.8 -0.4
v 1.3 0.7 -0.1
v 1.3 0.7 -0.4
v 1.3 1 -0.1
v 1.3 1 -0.4
v 0.1 0.7 -0.1
v 0.1 1 -0.1
v 0.2 0.7 -0.1
v 0.2 0.8 -0.1
v 0.3 0.8 -0.1
v 0.3 1 -0.1
v 1 0.7 -0.1
v 1 0.8 -0.1
v 1.1 0.8 -0.1
v 1.1 0.9 -0.1
v 1.2 0.8 -0.1
v 1.2 0.9 -0.1
v 1.3 0.7 -0.1
v 1.3 1 -0.1
v -1.1 0.9 -0.2
v -1.1 1 -0.2
v -1 0.8 -0.2
v -1 0.9 -0.2
v -0.9 0.7 -0.2
v -0.9 0.8 -0.2
v -0.8 0.6 -0.2
v -0.8 0.7 -0.2
v 0 0.6 -0.2
v 0 0.7 -0.2
v 0.1 0.7 -0.2
v 0.1 1 -0.2
v -1.1 0.9 -0.3
v -1.1 1 -0.3
v -1 0.8 -0.3
v -1 0.9 -0.3
v -0.9 0.7 -0.3
v -0.9 0.8 -0.3
v -0.8 0.6 -0.3
v -0.8 0.7 -0.3
v 0 0.6 -0.3
v 0 0.7 -0.3
v 0.1 0.7 -0.3
v 0.1 1 -0.3
v 0.1 0.7 -0.4
v 0.1 1 -0.4
v 0.2 0.7 -0.4
v 0.2 0.8 -0.4
v 0.3 0.8 -0.4
v 0.3 1 -0.4
v 1 0.7 -0.4
v 1 0.8 -0.4
v 1.1 0.8 -0.4
v 1.1 0.9 -0.4
v 1.2 0.8 -0.4
v 1.2 0.9 -0.4
v 1.3 0.7 -0.4
v 1.3 1 -0.4
v -0.8 0.6 -0.2
v 0 0.6 -0.2
v -0.8 0.6 -0.3
v 0 0.6 -0.3
v 0.1 0.7 -0.1
v 0.2 0.7 -0.1
v 1 0.7 -0.1
v 1.3 0.7 -0.1
v -0.9 0.7 -0.2
v -0.8 0.7 -0.2
v 0 0.7 -0.2
v 0.1 0.7 -0.2
v -0.9 0.7 -0.3
v -0.8 0.7 -0.3
v 0 0.7 -0.3
v 0.1 0.7 -0.3
v 0.1 0.7 -0.4
v 0.2 0.7 -0.4
v 1 0.7 -0.4
v 1.3 0.7 -0.4
v 0.2 0.8 -0.1
v 0.3 0.8 -0.1
v 1 0.8 -0.1
v -1 0.8 -0.2
v -0.9 0.8 -0.2
v 0.8 0.8 -0.2
v 0.9 0.8 -0.2
v -1 0.8 -0.3
v -0.9 0.8 -0.3
v 0.8 0.8 -0.3
v 0.9 0.8 -0.3
v 0.2 0.8 -0.4
v 0.3 0.8 -0.4
v 1 0.8 -0.4
v -1.1 0.9 -0.2
v -1 0.9 -0.2
v -1.1 0.9 -0.3
v -1 0.9 -0.3
v 0.1 1 -0.1
v 0.3 1 -0.1
v 1.3 1 -0.1
v -1.1 1 -0.2
v 0.1 1 -0.2
v -1.1 1 -0.3
v 0.1 1 -0.3
v 0.1 1 -0.4
v 0.3 1 -0.4
v 1.3 1 -0.4

# faces
f 3/3/1 2/3/1 1/3/1
f 4/3/1 2/3/1 3/3/1
f 7/3/1 6/3/1 5/3/1
f 8/3/1 6/3/1 7/3/1
f 11/3/1 10/3/1 9/3/1
f 12/3/1 10/3/1 11/3/1
f 15/3/1 14/3/1 13/3/1
f 16/3/1 14/3/1 15/3/1
f 21/3/1 18/3/1 17/3/1
f 22/3/1 18/3/1 21/3/1
f 23/3/1 20/3/1 19/3/1
f 24/3/1 20/3/1 23/3/1
f 27/2/1 26/2/1 25/2/1
f 28/2/1 26/2/1 27/2/1
f 29/3/2 30/3/2 31/3/2
f 31/3/2 30/3/2 32/3/2
f 33/3/2 34/3/2 35/3/2
f 35/3/2 34/3/2 36/3/2
f 37/2/2 38/2/2 39/2/2
f 39/2/2 38/2/2 40/2/2
f 43/3/3 42/3/3 41/3/3
f 44/3/3 42/3/3 43/3/3
f 45/3/3 42/3/3 44/3/3
f 46/3/3 42/3/3 45/3/3
f 48/2/3 46/2/3 45/2/3
f 49/2/3 46/2/3 48/2/3
f 49/2/3 48/2/3 47/2/3
f 50/2/3 46/2/3 49/2/3
f 51/2/3 49/2/3 47/2/3
f 51/1/3 50/1/3 49/1/3
f 52/2/3 46/2/3 50/2/3
f 52/1/3 50/1/3 51/1/3
f 53/2/3 51/2/3 47/2/3
f 53/2/3 52/2/3 51/2/3
f 54/2/3 46/2/3 52/2/3
f 54/2/3 52/2/3 53/2/3
f 58/3/3 56/3/3 55/3/3
f 60/3/3 58/3/3 57/3/3
f 62/3/3 60/3/3 59/3/3
f 63/3/3 62/3/3 61/3/3
f 64/3/3 60/3/3 62/3/3
f 64/3/3 62/3/3 63/3/3
f 65/3/3 60/3/3 64/3/3
f 66/3/3 56/3/3 58/3/3
f 66/3/3 60/3/3 65/3/3
f 66/3/3 58/3/3 60/3/3
f 67/3/4 68/3/4 70/3/4
f 69/3/4 70/3/4 72/3/4
f 71/3/4 72/3/4 74/3/4
f 73/3/4 74/3/4 75/3/4
f 74/3/4 72/3/4 76/3/4
f 75/3/4 74/3/4 76/3/4
f 76/3/4 72/3/4 77/3/4
f 70/3/4 68/3/4 78/3/4
f 77/3/4 72/3/4 78/3/4
f 72/3/4 70/3/4 78/3/4
f 79/3/4 80/3/4 81/3/4
f 81/3/4 80/3/4 82/3/4
f 82/3/4 80/3/4 83/3/4
f 83/3/4 80/3/4 84/3/4
f 83/2/4 84/2/4 86/2/4
f 86/2/4 84/2/4 87/2/4
f 85/2/4 86/2/4 87/2/4
f 87/2/4 84/2/4 88/2/4
f 85/2/4 87/2/4 89/2/4
f 87/1/4 88/1/4 89/1/4
f 88/2/4 84/2/4 90/2/4
f 89/1/4 88/1/4 90/1/4
f 85/2/4 89/2/4 91/2/4
f 89/2/4 90/2/4 91/2/4
f 90/2/4 84/2/4 92/2/4
f 91/2/4 90/2/4 92/2/4
f 95/3/5 94/3/5 93/3/5
f 96/3/5 94/3/5 95/3/5
f 104/3/5 98/3/5 97/3/5
f 105/3/5 102/3/5 101/3/5
f 106/3/5 102/3/5 105/3/5
f 107/3/5 104/3/5 103/3/5
f 108/3/5 98/3/5 104/3/5
f 108/3/5 104/3/5 107/3/5
f 109/3/5 98/3/5 108/3/5
f 110/3/5 98/3/5 109/3/5
f 111/2/5 100/2/5 99/2/5
f 112/2/5 100/2/5 111/2/5
f 118/2/5 115/2/5 114/2/5
f 119/2/5 115/2/5 118/2/5
f 120/3/5 117/3/5 116/3/5
f 121/3/5 117/3/5 120/3/5
f 122/2/5 118/2/5 114/2/5
f 122/3/5 119/3/5 118/3/5
f 123/2/5 115/2/5 119/2/5
f 123/3/5 119/3/5 122/3/5
f 124/3/5 114/3/5 113/3/5
f 125/2/5 122/2/5 114/2/5
f 125/3/5 114/3/5 124/3/5
f 125/2/5 123/2/5 122/2/5
f 126/2/5 115/2/5 123/2/5
f 126/2/5 123/2/5 125/2/5
f 129/3/5 128/3/5 127/3/5
f 130/3/5 128/3/5 129/3/5
f 131/3/6 132/3/6 135/3/6
f 134/3/6 135/3/6 136/3/6
f 135/3/6 132/3/6 137/3/6
f 136/3/6 135/3/6 137/3/6
f 137/3/6 132/3/6 138/3/6
f 132/2/6 133/2/6 139/2/6
f 138/3/6 132/3/6 139/3/6
f 139/2/6 133/2/6 140/2/6
