# MagicaVoxel @ Ephtracy

# group
o 

# material
mtllib colgadorofi.mtl
usemtl palette

# normals
vn -1 0 0
vn 1 0 0
vn 0 0 1
vn 0 0 -1
vn 0 -1 0
vn 0 1 0

# texcoords
vt 0.00195312 0.5
vt 0.0175781 0.5

# verts
v -0.5 0 1.5
v -0.5 0 -1.5
v -0.5 1 1.5
v -0.5 1 -1.5
v 0.1 0 1
v 0.1 0 0.9
v 0.1 0 0.6
v 0.1 0 0.5
v 0.1 0 0.2
v 0.1 0 0.1
v 0.1 0 -0.2
v 0.1 0 -0.3
v 0.1 0 -0.6
v 0.1 0 -0.7
v 0.1 0 -1
v 0.1 0 -1.1
v 0.1 0.9 1
v 0.1 0.9 0.9
v 0.1 0.9 0.6
v 0.1 0.9 0.5
v 0.1 0.9 0.2
v 0.1 0.9 0.1
v 0.1 0.9 -0.2
v 0.1 0.9 -0.3
v 0.1 0.9 -0.6
v 0.1 0.9 -0.7
v 0.1 0.9 -1
v 0.1 0.9 -1.1
v 0.3 0.1 1
v 0.3 0.1 0.9
v 0.3 0.1 0.6
v 0.3 0.1 0.5
v 0.3 0.1 0.2
v 0.3 0.1 0.1
v 0.3 0.1 -0.2
v 0.3 0.1 -0.3
v 0.3 0.1 -0.6
v 0.3 0.1 -0.7
v 0.3 0.1 -1
v 0.3 0.1 -1.1
v 0.3 0.2 1
v 0.3 0.2 0.9
v 0.3 0.2 0.6
v 0.3 0.2 0.5
v 0.3 0.2 0.2
v 0.3 0.2 0.1
v 0.3 0.2 -0.2
v 0.3 0.2 -0.3
v 0.3 0.2 -0.6
v 0.3 0.2 -0.7
v 0.3 0.2 -1
v 0.3 0.2 -1.1
v -0.4 0 1.4
v -0.4 0 -1.4
v -0.4 0.9 1.4
v -0.4 0.9 -1.4
v 0.2 0.1 1
v 0.2 0.1 0.9
v 0.2 0.1 0.6
v 0.2 0.1 0.5
v 0.2 0.1 0.2
v 0.2 0.1 0.1
v 0.2 0.1 -0.2
v 0.2 0.1 -0.3
v 0.2 0.1 -0.6
v 0.2 0.1 -0.7
v 0.2 0.1 -1
v 0.2 0.1 -1.1
v 0.2 0.9 1
v 0.2 0.9 0.9
v 0.2 0.9 0.6
v 0.2 0.9 0.5
v 0.2 0.9 0.2
v 0.2 0.9 0.1
v 0.2 0.9 -0.2
v 0.2 0.9 -0.3
v 0.2 0.9 -0.6
v 0.2 0.9 -0.7
v 0.2 0.9 -1
v 0.2 0.9 -1.1
v 0.4 0 1
v 0.4 0 0.9
v 0.4 0 0.6
v 0.4 0 0.5
v 0.4 0 0.2
v 0.4 0 0.1
v 0.4 0 -0.2
v 0.4 0 -0.3
v 0.4 0 -0.6
v 0.4 0 -0.7
v 0.4 0 -1
v 0.4 0 -1.1
v 0.4 0.2 1
v 0.4 0.2 0.9
v 0.4 0.2 0.6
v 0.4 0.2 0.5
v 0.4 0.2 0.2
v 0.4 0.2 0.1
v 0.4 0.2 -0.2
v 0.4 0.2 -0.3
v 0.4 0.2 -0.6
v 0.4 0.2 -0.7
v 0.4 0.2 -1
v 0.4 0.2 -1.1
v 0.5 0 1.5
v 0.5 0 1.4
v 0.5 0 -1.4
v 0.5 0 -1.5
v 0.5 0.9 1.4
v 0.5 0.9 -1.4
v 0.5 1 1.5
v 0.5 1 -1.5
v -0.5 0 1.5
v -0.5 1 1.5
v 0.5 0 1.5
v 0.5 1 1.5
v 0.1 0 1
v 0.1 0.9 1
v 0.2 0.1 1
v 0.2 0.9 1
v 0.3 0.1 1
v 0.3 0.2 1
v 0.4 0 1
v 0.4 0.2 1
v 0.1 0 0.6
v 0.1 0.9 0.6
v 0.2 0.1 0.6
v 0.2 0.9 0.6
v 0.3 0.1 0.6
v 0.3 0.2 0.6
v 0.4 0 0.6
v 0.4 0.2 0.6
v 0.1 0 0.2
v 0.1 0.9 0.2
v 0.2 0.1 0.2
v 0.2 0.9 0.2
v 0.3 0.1 0.2
v 0.3 0.2 0.2
v 0.4 0 0.2
v 0.4 0.2 0.2
v 0.1 0 -0.2
v 0.1 0.9 -0.2
v 0.2 0.1 -0.2
v 0.2 0.9 -0.2
v 0.3 0.1 -0.2
v 0.3 0.2 -0.2
v 0.4 0 -0.2
v 0.4 0.2 -0.2
v 0.1 0 -0.6
v 0.1 0.9 -0.6
v 0.2 0.1 -0.6
v 0.2 0.9 -0.6
v 0.3 0.1 -0.6
v 0.3 0.2 -0.6
v 0.4 0 -0.6
v 0.4 0.2 -0.6
v 0.1 0 -1
v 0.1 0.9 -1
v 0.2 0.1 -1
v 0.2 0.9 -1
v 0.3 0.1 -1
v 0.3 0.2 -1
v 0.4 0 -1
v 0.4 0.2 -1
v -0.4 0 -1.4
v -0.4 0.9 -1.4
v 0.5 0 -1.4
v 0.5 0.9 -1.4
v -0.4 0 1.4
v -0.4 0.9 1.4
v 0.5 0 1.4
v 0.5 0.9 1.4
v 0.1 0 0.9
v 0.1 0.9 0.9
v 0.2 0.1 0.9
v 0.2 0.9 0.9
v 0.3 0.1 0.9
v 0.3 0.2 0.9
v 0.4 0 0.9
v 0.4 0.2 0.9
v 0.1 0 0.5
v 0.1 0.9 0.5
v 0.2 0.1 0.5
v 0.2 0.9 0.5
v 0.3 0.1 0.5
v 0.3 0.2 0.5
v 0.4 0 0.5
v 0.4 0.2 0.5
v 0.1 0 0.1
v 0.1 0.9 0.1
v 0.2 0.1 0.1
v 0.2 0.9 0.1
v 0.3 0.1 0.1
v 0.3 0.2 0.1
v 0.4 0 0.1
v 0.4 0.2 0.1
v 0.1 0 -0.3
v 0.1 0.9 -0.3
v 0.2 0.1 -0.3
v 0.2 0.9 -0.3
v 0.3 0.1 -0.3
v 0.3 0.2 -0.3
v 0.4 0 -0.3
v 0.4 0.2 -0.3
v 0.1 0 -0.7
v 0.1 0.9 -0.7
v 0.2 0.1 -0.7
v 0.2 0.9 -0.7
v 0.3 0.1 -0.7
v 0.3 0.2 -0.7
v 0.4 0 -0.7
v 0.4 0.2 -0.7
v 0.1 0 -1.1
v 0.1 0.9 -1.1
v 0.2 0.1 -1.1
v 0.2 0.9 -1.1
v 0.3 0.1 -1.1
v 0.3 0.2 -1.1
v 0.4 0 -1.1
v 0.4 0.2 -1.1
v -0.5 0 -1.5
v -0.5 1 -1.5
v 0.5 0 -1.5
v 0.5 1 -1.5
v -0.5 0 1.5
v 0.5 0 1.5
v -0.4 0 1.4
v 0.5 0 1.4
v 0.1 0 1
v 0.4 0 1
v 0.1 0 0.9
v 0.4 0 0.9
v 0.1 0 0.6
v 0.4 0 0.6
v 0.1 0 0.5
v 0.4 0 0.5
v 0.1 0 0.2
v 0.4 0 0.2
v 0.1 0 0.1
v 0.4 0 0.1
v 0.1 0 -0.2
v 0.4 0 -0.2
v 0.1 0 -0.3
v 0.4 0 -0.3
v 0.1 0 -0.6
v 0.4 0 -0.6
v 0.1 0 -0.7
v 0.4 0 -0.7
v 0.1 0 -1
v 0.4 0 -1
v 0.1 0 -1.1
v 0.4 0 -1.1
v -0.4 0 -1.4
v 0.5 0 -1.4
v -0.5 0 -1.5
v 0.5 0 -1.5
v -0.4 0.9 1.4
v 0.5 0.9 1.4
v 0.1 0.9 1
v 0.2 0.9 1
v 0.1 0.9 0.9
v 0.2 0.9 0.9
v 0.1 0.9 0.6
v 0.2 0.9 0.6
v 0.1 0.9 0.5
v 0.2 0.9 0.5
v 0.1 0.9 0.2
v 0.2 0.9 0.2
v 0.1 0.9 0.1
v 0.2 0.9 0.1
v 0.1 0.9 -0.2
v 0.2 0.9 -0.2
v 0.1 0.9 -0.3
v 0.2 0.9 -0.3
v 0.1 0.9 -0.6
v 0.2 0.9 -0.6
v 0.1 0.9 -0.7
v 0.2 0.9 -0.7
v 0.1 0.9 -1
v 0.2 0.9 -1
v 0.1 0.9 -1.1
v 0.2 0.9 -1.1
v -0.4 0.9 -1.4
v 0.5 0.9 -1.4
v 0.2 0.1 1
v 0.3 0.1 1
v 0.2 0.1 0.9
v 0.3 0.1 0.9
v 0.2 0.1 0.6
v 0.3 0.1 0.6
v 0.2 0.1 0.5
v 0.3 0.1 0.5
v 0.2 0.1 0.2
v 0.3 0.1 0.2
v 0.2 0.1 0.1
v 0.3 0.1 0.1
v 0.2 0.1 -0.2
v 0.3 0.1 -0.2
v 0.2 0.1 -0.3
v 0.3 0.1 -0.3
v 0.2 0.1 -0.6
v 0.3 0.1 -0.6
v 0.2 0.1 -0.7
v 0.3 0.1 -0.7
v 0.2 0.1 -1
v 0.3 0.1 -1
v 0.2 0.1 -1.1
v 0.3 0.1 -1.1
v 0.3 0.2 1
v 0.4 0.2 1
v 0.3 0.2 0.9
v 0.4 0.2 0.9
v 0.3 0.2 0.6
v 0.4 0.2 0.6
v 0.3 0.2 0.5
v 0.4 0.2 0.5
v 0.3 0.2 0.2
v 0.4 0.2 0.2
v 0.3 0.2 0.1
v 0.4 0.2 0.1
v 0.3 0.2 -0.2
v 0.4 0.2 -0.2
v 0.3 0.2 -0.3
v 0.4 0.2 -0.3
v 0.3 0.2 -0.6
v 0.4 0.2 -0.6
v 0.3 0.2 -0.7
v 0.4 0.2 -0.7
v 0.3 0.2 -1
v 0.4 0.2 -1
v 0.3 0.2 -1.1
v 0.4 0.2 -1.1
v -0.5 1 1.5
v 0.5 1 1.5
v -0.5 1 -1.5
v 0.5 1 -1.5

# faces
f 3/1/1 2/1/1 1/1/1
f 4/1/1 2/1/1 3/1/1
f 17/2/1 6/2/1 5/2/1
f 18/2/1 6/2/1 17/2/1
f 19/2/1 8/2/1 7/2/1
f 20/2/1 8/2/1 19/2/1
f 21/2/1 10/2/1 9/2/1
f 22/2/1 10/2/1 21/2/1
f 23/2/1 12/2/1 11/2/1
f 24/2/1 12/2/1 23/2/1
f 25/2/1 14/2/1 13/2/1
f 26/2/1 14/2/1 25/2/1
f 27/2/1 16/2/1 15/2/1
f 28/2/1 16/2/1 27/2/1
f 41/2/1 30/2/1 29/2/1
f 42/2/1 30/2/1 41/2/1
f 43/2/1 32/2/1 31/2/1
f 44/2/1 32/2/1 43/2/1
f 45/2/1 34/2/1 33/2/1
f 46/2/1 34/2/1 45/2/1
f 47/2/1 36/2/1 35/2/1
f 48/2/1 36/2/1 47/2/1
f 49/2/1 38/2/1 37/2/1
f 50/2/1 38/2/1 49/2/1
f 51/2/1 40/2/1 39/2/1
f 52/2/1 40/2/1 51/2/1
f 53/1/2 54/1/2 55/1/2
f 55/1/2 54/1/2 56/1/2
f 57/2/2 58/2/2 69/2/2
f 69/2/2 58/2/2 70/2/2
f 59/2/2 60/2/2 71/2/2
f 71/2/2 60/2/2 72/2/2
f 61/2/2 62/2/2 73/2/2
f 73/2/2 62/2/2 74/2/2
f 63/2/2 64/2/2 75/2/2
f 75/2/2 64/2/2 76/2/2
f 65/2/2 66/2/2 77/2/2
f 77/2/2 66/2/2 78/2/2
f 67/2/2 68/2/2 79/2/2
f 79/2/2 68/2/2 80/2/2
f 81/2/2 82/2/2 93/2/2
f 93/2/2 82/2/2 94/2/2
f 83/2/2 84/2/2 95/2/2
f 95/2/2 84/2/2 96/2/2
f 85/2/2 86/2/2 97/2/2
f 97/2/2 86/2/2 98/2/2
f 87/2/2 88/2/2 99/2/2
f 99/2/2 88/2/2 100/2/2
f 89/2/2 90/2/2 101/2/2
f 101/2/2 90/2/2 102/2/2
f 91/2/2 92/2/2 103/2/2
f 103/2/2 92/2/2 104/2/2
f 105/1/2 106/1/2 109/1/2
f 107/1/2 108/1/2 110/1/2
f 105/1/2 109/1/2 111/1/2
f 109/1/2 110/1/2 111/1/2
f 110/1/2 108/1/2 112/1/2
f 111/1/2 110/1/2 112/1/2
f 115/1/3 114/1/3 113/1/3
f 116/1/3 114/1/3 115/1/3
f 119/2/3 118/2/3 117/2/3
f 120/2/3 118/2/3 119/2/3
f 121/2/3 119/2/3 117/2/3
f 123/2/3 121/2/3 117/2/3
f 123/2/3 122/2/3 121/2/3
f 124/2/3 122/2/3 123/2/3
f 127/2/3 126/2/3 125/2/3
f 128/2/3 126/2/3 127/2/3
f 129/2/3 127/2/3 125/2/3
f 131/2/3 129/2/3 125/2/3
f 131/2/3 130/2/3 129/2/3
f 132/2/3 130/2/3 131/2/3
f 135/2/3 134/2/3 133/2/3
f 136/2/3 134/2/3 135/2/3
f 137/2/3 135/2/3 133/2/3
f 139/2/3 137/2/3 133/2/3
f 139/2/3 138/2/3 137/2/3
f 140/2/3 138/2/3 139/2/3
f 143/2/3 142/2/3 141/2/3
f 144/2/3 142/2/3 143/2/3
f 145/2/3 143/2/3 141/2/3
f 147/2/3 145/2/3 141/2/3
f 147/2/3 146/2/3 145/2/3
f 148/2/3 146/2/3 147/2/3
f 151/2/3 150/2/3 149/2/3
f 152/2/3 150/2/3 151/2/3
f 153/2/3 151/2/3 149/2/3
f 155/2/3 153/2/3 149/2/3
f 155/2/3 154/2/3 153/2/3
f 156/2/3 154/2/3 155/2/3
f 159/2/3 158/2/3 157/2/3
f 160/2/3 158/2/3 159/2/3
f 161/2/3 159/2/3 157/2/3
f 163/2/3 161/2/3 157/2/3
f 163/2/3 162/2/3 161/2/3
f 164/2/3 162/2/3 163/2/3
f 167/1/3 166/1/3 165/1/3
f 168/1/3 166/1/3 167/1/3
f 169/1/4 170/1/4 171/1/4
f 171/1/4 170/1/4 172/1/4
f 173/2/4 174/2/4 175/2/4
f 175/2/4 174/2/4 176/2/4
f 173/2/4 175/2/4 177/2/4
f 173/2/4 177/2/4 179/2/4
f 177/2/4 178/2/4 179/2/4
f 179/2/4 178/2/4 180/2/4
f 181/2/4 182/2/4 183/2/4
f 183/2/4 182/2/4 184/2/4
f 181/2/4 183/2/4 185/2/4
f 181/2/4 185/2/4 187/2/4
f 185/2/4 186/2/4 187/2/4
f 187/2/4 186/2/4 188/2/4
f 189/2/4 190/2/4 191/2/4
f 191/2/4 190/2/4 192/2/4
f 189/2/4 191/2/4 193/2/4
f 189/2/4 193/2/4 195/2/4
f 193/2/4 194/2/4 195/2/4
f 195/2/4 194/2/4 196/2/4
f 197/2/4 198/2/4 199/2/4
f 199/2/4 198/2/4 200/2/4
f 197/2/4 199/2/4 201/2/4
f 197/2/4 201/2/4 203/2/4
f 201/2/4 202/2/4 203/2/4
f 203/2/4 202/2/4 204/2/4
f 205/2/4 206/2/4 207/2/4
f 207/2/4 206/2/4 208/2/4
f 205/2/4 207/2/4 209/2/4
f 205/2/4 209/2/4 211/2/4
f 209/2/4 210/2/4 211/2/4
f 211/2/4 210/2/4 212/2/4
f 213/2/4 214/2/4 215/2/4
f 215/2/4 214/2/4 216/2/4
f 213/2/4 215/2/4 217/2/4
f 213/2/4 217/2/4 219/2/4
f 217/2/4 218/2/4 219/2/4
f 219/2/4 218/2/4 220/2/4
f 221/1/4 222/1/4 223/1/4
f 223/1/4 222/1/4 224/1/4
f 227/1/5 226/1/5 225/1/5
f 228/1/5 226/1/5 227/1/5
f 231/2/5 230/2/5 229/2/5
f 232/2/5 230/2/5 231/2/5
f 235/2/5 234/2/5 233/2/5
f 236/2/5 234/2/5 235/2/5
f 239/2/5 238/2/5 237/2/5
f 240/2/5 238/2/5 239/2/5
f 243/2/5 242/2/5 241/2/5
f 244/2/5 242/2/5 243/2/5
f 247/2/5 246/2/5 245/2/5
f 248/2/5 246/2/5 247/2/5
f 251/2/5 250/2/5 249/2/5
f 252/2/5 250/2/5 251/2/5
f 253/1/5 227/1/5 225/1/5
f 255/1/5 253/1/5 225/1/5
f 255/1/5 254/1/5 253/1/5
f 256/1/5 254/1/5 255/1/5
f 259/1/5 258/1/5 257/1/5
f 260/1/5 258/1/5 259/1/5
f 261/1/5 259/1/5 257/1/5
f 262/1/5 258/1/5 260/1/5
f 263/1/5 261/1/5 257/1/5
f 263/1/5 262/1/5 261/1/5
f 264/1/5 258/1/5 262/1/5
f 264/1/5 262/1/5 263/1/5
f 265/1/5 263/1/5 257/1/5
f 266/1/5 258/1/5 264/1/5
f 267/1/5 265/1/5 257/1/5
f 267/1/5 266/1/5 265/1/5
f 268/1/5 258/1/5 266/1/5
f 268/1/5 266/1/5 267/1/5
f 269/1/5 267/1/5 257/1/5
f 270/1/5 258/1/5 268/1/5
f 271/1/5 269/1/5 257/1/5
f 271/1/5 270/1/5 269/1/5
f 272/1/5 258/1/5 270/1/5
f 272/1/5 270/1/5 271/1/5
f 273/1/5 271/1/5 257/1/5
f 274/1/5 258/1/5 272/1/5
f 275/1/5 273/1/5 257/1/5
f 275/1/5 274/1/5 273/1/5
f 276/1/5 258/1/5 274/1/5
f 276/1/5 274/1/5 275/1/5
f 277/1/5 275/1/5 257/1/5
f 278/1/5 258/1/5 276/1/5
f 279/1/5 277/1/5 257/1/5
f 279/1/5 278/1/5 277/1/5
f 280/1/5 258/1/5 278/1/5
f 280/1/5 278/1/5 279/1/5
f 281/1/5 279/1/5 257/1/5
f 282/1/5 258/1/5 280/1/5
f 283/1/5 281/1/5 257/1/5
f 283/1/5 282/1/5 281/1/5
f 284/1/5 258/1/5 282/1/5
f 284/1/5 282/1/5 283/1/5
f 285/2/6 286/2/6 287/2/6
f 287/2/6 286/2/6 288/2/6
f 289/2/6 290/2/6 291/2/6
f 291/2/6 290/2/6 292/2/6
f 293/2/6 294/2/6 295/2/6
f 295/2/6 294/2/6 296/2/6
f 297/2/6 298/2/6 299/2/6
f 299/2/6 298/2/6 300/2/6
f 301/2/6 302/2/6 303/2/6
f 303/2/6 302/2/6 304/2/6
f 305/2/6 306/2/6 307/2/6
f 307/2/6 306/2/6 308/2/6
f 309/2/6 310/2/6 311/2/6
f 311/2/6 310/2/6 312/2/6
f 313/2/6 314/2/6 315/2/6
f 315/2/6 314/2/6 316/2/6
f 317/2/6 318/2/6 319/2/6
f 319/2/6 318/2/6 320/2/6
f 321/2/6 322/2/6 323/2/6
f 323/2/6 322/2/6 324/2/6
f 325/2/6 326/2/6 327/2/6
f 327/2/6 326/2/6 328/2/6
f 329/2/6 330/2/6 331/2/6
f 331/2/6 330/2/6 332/2/6
f 333/1/6 334/1/6 335/1/6
f 335/1/6 334/1/6 336/1/6
